solid OpenSCAD_Model
  facet normal 0.999229 0.0392577 0
    outer loop
      vertex 4 0 20
      vertex 3.98767 0.313836 0
      vertex 3.98767 0.313836 20
    endloop
  endfacet
  facet normal 0.999229 0.0392577 0
    outer loop
      vertex 3.98767 0.313836 0
      vertex 4 0 20
      vertex 4 0 0
    endloop
  endfacet
  facet normal 0.993067 0.11755 0
    outer loop
      vertex 3.98767 0.313836 20
      vertex 3.95075 0.625738 0
      vertex 3.95075 0.625738 20
    endloop
  endfacet
  facet normal 0.993067 0.11755 0
    outer loop
      vertex 3.95075 0.625738 0
      vertex 3.98767 0.313836 20
      vertex 3.98767 0.313836 0
    endloop
  endfacet
  facet normal 0.980787 0.195079 0
    outer loop
      vertex 3.95075 0.625738 20
      vertex 3.88948 0.933781 0
      vertex 3.88948 0.933781 20
    endloop
  endfacet
  facet normal 0.980787 0.195079 0
    outer loop
      vertex 3.88948 0.933781 0
      vertex 3.95075 0.625738 20
      vertex 3.95075 0.625738 0
    endloop
  endfacet
  facet normal 0.962459 0.271428 0
    outer loop
      vertex 3.88948 0.933781 20
      vertex 3.80423 1.23607 0
      vertex 3.80423 1.23607 20
    endloop
  endfacet
  facet normal 0.962459 0.271428 0
    outer loop
      vertex 3.80423 1.23607 0
      vertex 3.88948 0.933781 20
      vertex 3.88948 0.933781 0
    endloop
  endfacet
  facet normal 0.938187 0.346129 0
    outer loop
      vertex 3.80423 1.23607 20
      vertex 3.69552 1.53073 0
      vertex 3.69552 1.53073 20
    endloop
  endfacet
  facet normal 0.938187 0.346129 0
    outer loop
      vertex 3.69552 1.53073 0
      vertex 3.80423 1.23607 20
      vertex 3.80423 1.23607 0
    endloop
  endfacet
  facet normal 0.908147 0.418652 0
    outer loop
      vertex 3.69552 1.53073 20
      vertex 3.56403 1.81596 0
      vertex 3.56403 1.81596 20
    endloop
  endfacet
  facet normal 0.908147 0.418652 0
    outer loop
      vertex 3.56403 1.81596 0
      vertex 3.69552 1.53073 20
      vertex 3.69552 1.53073 0
    endloop
  endfacet
  facet normal 0.872488 0.488635 0
    outer loop
      vertex 3.56403 1.81596 20
      vertex 3.41056 2.08999 0
      vertex 3.41056 2.08999 20
    endloop
  endfacet
  facet normal 0.872488 0.488635 0
    outer loop
      vertex 3.41056 2.08999 0
      vertex 3.56403 1.81596 20
      vertex 3.56403 1.81596 0
    endloop
  endfacet
  facet normal 0.831477 0.55556 0
    outer loop
      vertex 3.41056 2.08999 20
      vertex 3.23607 2.35114 0
      vertex 3.23607 2.35114 20
    endloop
  endfacet
  facet normal 0.831477 0.55556 0
    outer loop
      vertex 3.23607 2.35114 0
      vertex 3.41056 2.08999 20
      vertex 3.41056 2.08999 0
    endloop
  endfacet
  facet normal 0.785306 0.619107 0
    outer loop
      vertex 3.23607 2.35114 20
      vertex 3.04162 2.59779 0
      vertex 3.04162 2.59779 20
    endloop
  endfacet
  facet normal 0.785306 0.619107 0
    outer loop
      vertex 3.04162 2.59779 0
      vertex 3.23607 2.35114 20
      vertex 3.23607 2.35114 0
    endloop
  endfacet
  facet normal 0.734341 0.678781 0
    outer loop
      vertex 3.04162 2.59779 20
      vertex 2.82843 2.82843 0
      vertex 2.82843 2.82843 20
    endloop
  endfacet
  facet normal 0.734341 0.678781 0
    outer loop
      vertex 2.82843 2.82843 0
      vertex 3.04162 2.59779 20
      vertex 3.04162 2.59779 0
    endloop
  endfacet
  facet normal 0.678781 0.734341 -0
    outer loop
      vertex 2.82843 2.82843 0
      vertex 2.59779 3.04162 20
      vertex 2.82843 2.82843 20
    endloop
  endfacet
  facet normal 0.678781 0.734341 0
    outer loop
      vertex 2.59779 3.04162 20
      vertex 2.82843 2.82843 0
      vertex 2.59779 3.04162 0
    endloop
  endfacet
  facet normal 0.619107 0.785306 -0
    outer loop
      vertex 2.59779 3.04162 0
      vertex 2.35114 3.23607 20
      vertex 2.59779 3.04162 20
    endloop
  endfacet
  facet normal 0.619107 0.785306 0
    outer loop
      vertex 2.35114 3.23607 20
      vertex 2.59779 3.04162 0
      vertex 2.35114 3.23607 0
    endloop
  endfacet
  facet normal 0.55556 0.831477 -0
    outer loop
      vertex 2.35114 3.23607 0
      vertex 2.08999 3.41056 20
      vertex 2.35114 3.23607 20
    endloop
  endfacet
  facet normal 0.55556 0.831477 0
    outer loop
      vertex 2.08999 3.41056 20
      vertex 2.35114 3.23607 0
      vertex 2.08999 3.41056 0
    endloop
  endfacet
  facet normal 0.488635 0.872488 -0
    outer loop
      vertex 2.08999 3.41056 0
      vertex 1.81596 3.56403 20
      vertex 2.08999 3.41056 20
    endloop
  endfacet
  facet normal 0.488635 0.872488 0
    outer loop
      vertex 1.81596 3.56403 20
      vertex 2.08999 3.41056 0
      vertex 1.81596 3.56403 0
    endloop
  endfacet
  facet normal 0.418652 0.908147 -0
    outer loop
      vertex 1.81596 3.56403 0
      vertex 1.53073 3.69552 20
      vertex 1.81596 3.56403 20
    endloop
  endfacet
  facet normal 0.418652 0.908147 0
    outer loop
      vertex 1.53073 3.69552 20
      vertex 1.81596 3.56403 0
      vertex 1.53073 3.69552 0
    endloop
  endfacet
  facet normal 0.346129 0.938187 -0
    outer loop
      vertex 1.53073 3.69552 0
      vertex 1.23607 3.80423 20
      vertex 1.53073 3.69552 20
    endloop
  endfacet
  facet normal 0.346129 0.938187 0
    outer loop
      vertex 1.23607 3.80423 20
      vertex 1.53073 3.69552 0
      vertex 1.23607 3.80423 0
    endloop
  endfacet
  facet normal 0.271428 0.962459 -0
    outer loop
      vertex 1.23607 3.80423 0
      vertex 0.933781 3.88948 20
      vertex 1.23607 3.80423 20
    endloop
  endfacet
  facet normal 0.271428 0.962459 0
    outer loop
      vertex 0.933781 3.88948 20
      vertex 1.23607 3.80423 0
      vertex 0.933781 3.88948 0
    endloop
  endfacet
  facet normal 0.195079 0.980787 -0
    outer loop
      vertex 0.933781 3.88948 0
      vertex 0.625738 3.95075 20
      vertex 0.933781 3.88948 20
    endloop
  endfacet
  facet normal 0.195079 0.980787 0
    outer loop
      vertex 0.625738 3.95075 20
      vertex 0.933781 3.88948 0
      vertex 0.625738 3.95075 0
    endloop
  endfacet
  facet normal 0.11755 0.993067 -0
    outer loop
      vertex 0.625738 3.95075 0
      vertex 0.313836 3.98767 20
      vertex 0.625738 3.95075 20
    endloop
  endfacet
  facet normal 0.11755 0.993067 0
    outer loop
      vertex 0.313836 3.98767 20
      vertex 0.625738 3.95075 0
      vertex 0.313836 3.98767 0
    endloop
  endfacet
  facet normal 0.0392577 0.999229 -0
    outer loop
      vertex 0.313836 3.98767 0
      vertex 0 4 20
      vertex 0.313836 3.98767 20
    endloop
  endfacet
  facet normal 0.0392577 0.999229 0
    outer loop
      vertex 0 4 20
      vertex 0.313836 3.98767 0
      vertex 0 4 0
    endloop
  endfacet
  facet normal -0.0392577 0.999229 0
    outer loop
      vertex 0 4 0
      vertex -0.313836 3.98767 20
      vertex 0 4 20
    endloop
  endfacet
  facet normal -0.0392577 0.999229 0
    outer loop
      vertex -0.313836 3.98767 20
      vertex 0 4 0
      vertex -0.313836 3.98767 0
    endloop
  endfacet
  facet normal -0.11755 0.993067 0
    outer loop
      vertex -0.313836 3.98767 0
      vertex -0.625738 3.95075 20
      vertex -0.313836 3.98767 20
    endloop
  endfacet
  facet normal -0.11755 0.993067 0
    outer loop
      vertex -0.625738 3.95075 20
      vertex -0.313836 3.98767 0
      vertex -0.625738 3.95075 0
    endloop
  endfacet
  facet normal -0.195079 0.980787 0
    outer loop
      vertex -0.625738 3.95075 0
      vertex -0.933781 3.88948 20
      vertex -0.625738 3.95075 20
    endloop
  endfacet
  facet normal -0.195079 0.980787 0
    outer loop
      vertex -0.933781 3.88948 20
      vertex -0.625738 3.95075 0
      vertex -0.933781 3.88948 0
    endloop
  endfacet
  facet normal -0.271428 0.962459 0
    outer loop
      vertex -0.933781 3.88948 0
      vertex -1.23607 3.80423 20
      vertex -0.933781 3.88948 20
    endloop
  endfacet
  facet normal -0.271428 0.962459 0
    outer loop
      vertex -1.23607 3.80423 20
      vertex -0.933781 3.88948 0
      vertex -1.23607 3.80423 0
    endloop
  endfacet
  facet normal -0.346129 0.938187 0
    outer loop
      vertex -1.23607 3.80423 0
      vertex -1.53073 3.69552 20
      vertex -1.23607 3.80423 20
    endloop
  endfacet
  facet normal -0.346129 0.938187 0
    outer loop
      vertex -1.53073 3.69552 20
      vertex -1.23607 3.80423 0
      vertex -1.53073 3.69552 0
    endloop
  endfacet
  facet normal -0.418652 0.908147 0
    outer loop
      vertex -1.53073 3.69552 0
      vertex -1.81596 3.56403 20
      vertex -1.53073 3.69552 20
    endloop
  endfacet
  facet normal -0.418652 0.908147 0
    outer loop
      vertex -1.81596 3.56403 20
      vertex -1.53073 3.69552 0
      vertex -1.81596 3.56403 0
    endloop
  endfacet
  facet normal -0.488635 0.872488 0
    outer loop
      vertex -1.81596 3.56403 0
      vertex -2.08999 3.41056 20
      vertex -1.81596 3.56403 20
    endloop
  endfacet
  facet normal -0.488635 0.872488 0
    outer loop
      vertex -2.08999 3.41056 20
      vertex -1.81596 3.56403 0
      vertex -2.08999 3.41056 0
    endloop
  endfacet
  facet normal -0.55556 0.831477 0
    outer loop
      vertex -2.08999 3.41056 0
      vertex -2.35114 3.23607 20
      vertex -2.08999 3.41056 20
    endloop
  endfacet
  facet normal -0.55556 0.831477 0
    outer loop
      vertex -2.35114 3.23607 20
      vertex -2.08999 3.41056 0
      vertex -2.35114 3.23607 0
    endloop
  endfacet
  facet normal -0.619107 0.785306 0
    outer loop
      vertex -2.35114 3.23607 0
      vertex -2.59779 3.04162 20
      vertex -2.35114 3.23607 20
    endloop
  endfacet
  facet normal -0.619107 0.785306 0
    outer loop
      vertex -2.59779 3.04162 20
      vertex -2.35114 3.23607 0
      vertex -2.59779 3.04162 0
    endloop
  endfacet
  facet normal -0.678781 0.734341 0
    outer loop
      vertex -2.59779 3.04162 0
      vertex -2.82843 2.82843 20
      vertex -2.59779 3.04162 20
    endloop
  endfacet
  facet normal -0.678781 0.734341 0
    outer loop
      vertex -2.82843 2.82843 20
      vertex -2.59779 3.04162 0
      vertex -2.82843 2.82843 0
    endloop
  endfacet
  facet normal -0.734341 0.678781 0
    outer loop
      vertex -3.04162 2.59779 0
      vertex -2.82843 2.82843 20
      vertex -2.82843 2.82843 0
    endloop
  endfacet
  facet normal -0.734341 0.678781 0
    outer loop
      vertex -2.82843 2.82843 20
      vertex -3.04162 2.59779 0
      vertex -3.04162 2.59779 20
    endloop
  endfacet
  facet normal -0.785306 0.619107 0
    outer loop
      vertex -3.23607 2.35114 0
      vertex -3.04162 2.59779 20
      vertex -3.04162 2.59779 0
    endloop
  endfacet
  facet normal -0.785306 0.619107 0
    outer loop
      vertex -3.04162 2.59779 20
      vertex -3.23607 2.35114 0
      vertex -3.23607 2.35114 20
    endloop
  endfacet
  facet normal -0.831477 0.55556 0
    outer loop
      vertex -3.41056 2.08999 0
      vertex -3.23607 2.35114 20
      vertex -3.23607 2.35114 0
    endloop
  endfacet
  facet normal -0.831477 0.55556 0
    outer loop
      vertex -3.23607 2.35114 20
      vertex -3.41056 2.08999 0
      vertex -3.41056 2.08999 20
    endloop
  endfacet
  facet normal -0.872488 0.488635 0
    outer loop
      vertex -3.56403 1.81596 0
      vertex -3.41056 2.08999 20
      vertex -3.41056 2.08999 0
    endloop
  endfacet
  facet normal -0.872488 0.488635 0
    outer loop
      vertex -3.41056 2.08999 20
      vertex -3.56403 1.81596 0
      vertex -3.56403 1.81596 20
    endloop
  endfacet
  facet normal -0.908147 0.418652 0
    outer loop
      vertex -3.69552 1.53073 0
      vertex -3.56403 1.81596 20
      vertex -3.56403 1.81596 0
    endloop
  endfacet
  facet normal -0.908147 0.418652 0
    outer loop
      vertex -3.56403 1.81596 20
      vertex -3.69552 1.53073 0
      vertex -3.69552 1.53073 20
    endloop
  endfacet
  facet normal -0.938187 0.346129 0
    outer loop
      vertex -3.80423 1.23607 0
      vertex -3.69552 1.53073 20
      vertex -3.69552 1.53073 0
    endloop
  endfacet
  facet normal -0.938187 0.346129 0
    outer loop
      vertex -3.69552 1.53073 20
      vertex -3.80423 1.23607 0
      vertex -3.80423 1.23607 20
    endloop
  endfacet
  facet normal -0.962459 0.271428 0
    outer loop
      vertex -3.88948 0.933781 0
      vertex -3.80423 1.23607 20
      vertex -3.80423 1.23607 0
    endloop
  endfacet
  facet normal -0.962459 0.271428 0
    outer loop
      vertex -3.80423 1.23607 20
      vertex -3.88948 0.933781 0
      vertex -3.88948 0.933781 20
    endloop
  endfacet
  facet normal -0.980787 0.195079 0
    outer loop
      vertex -3.95075 0.625738 0
      vertex -3.88948 0.933781 20
      vertex -3.88948 0.933781 0
    endloop
  endfacet
  facet normal -0.980787 0.195079 0
    outer loop
      vertex -3.88948 0.933781 20
      vertex -3.95075 0.625738 0
      vertex -3.95075 0.625738 20
    endloop
  endfacet
  facet normal -0.993067 0.11755 0
    outer loop
      vertex -3.98767 0.313836 0
      vertex -3.95075 0.625738 20
      vertex -3.95075 0.625738 0
    endloop
  endfacet
  facet normal -0.993067 0.11755 0
    outer loop
      vertex -3.95075 0.625738 20
      vertex -3.98767 0.313836 0
      vertex -3.98767 0.313836 20
    endloop
  endfacet
  facet normal -0.999229 0.0392577 0
    outer loop
      vertex -4 -0 0
      vertex -3.98767 0.313836 20
      vertex -3.98767 0.313836 0
    endloop
  endfacet
  facet normal -0.999229 0.0392577 0
    outer loop
      vertex -3.98767 0.313836 20
      vertex -4 -0 0
      vertex -4 -0 20
    endloop
  endfacet
  facet normal -0.999229 -0.0392577 0
    outer loop
      vertex -3.98767 -0.313836 0
      vertex -4 -0 20
      vertex -4 -0 0
    endloop
  endfacet
  facet normal -0.999229 -0.0392577 0
    outer loop
      vertex -4 -0 20
      vertex -3.98767 -0.313836 0
      vertex -3.98767 -0.313836 20
    endloop
  endfacet
  facet normal -0.993067 -0.11755 0
    outer loop
      vertex -3.95075 -0.625738 0
      vertex -3.98767 -0.313836 20
      vertex -3.98767 -0.313836 0
    endloop
  endfacet
  facet normal -0.993067 -0.11755 0
    outer loop
      vertex -3.98767 -0.313836 20
      vertex -3.95075 -0.625738 0
      vertex -3.95075 -0.625738 20
    endloop
  endfacet
  facet normal -0.980787 -0.195079 0
    outer loop
      vertex -3.88948 -0.933781 0
      vertex -3.95075 -0.625738 20
      vertex -3.95075 -0.625738 0
    endloop
  endfacet
  facet normal -0.980787 -0.195079 0
    outer loop
      vertex -3.95075 -0.625738 20
      vertex -3.88948 -0.933781 0
      vertex -3.88948 -0.933781 20
    endloop
  endfacet
  facet normal -0.962459 -0.271428 0
    outer loop
      vertex -3.80423 -1.23607 0
      vertex -3.88948 -0.933781 20
      vertex -3.88948 -0.933781 0
    endloop
  endfacet
  facet normal -0.962459 -0.271428 0
    outer loop
      vertex -3.88948 -0.933781 20
      vertex -3.80423 -1.23607 0
      vertex -3.80423 -1.23607 20
    endloop
  endfacet
  facet normal -0.938187 -0.346129 0
    outer loop
      vertex -3.69552 -1.53073 0
      vertex -3.80423 -1.23607 20
      vertex -3.80423 -1.23607 0
    endloop
  endfacet
  facet normal -0.938187 -0.346129 0
    outer loop
      vertex -3.80423 -1.23607 20
      vertex -3.69552 -1.53073 0
      vertex -3.69552 -1.53073 20
    endloop
  endfacet
  facet normal -0.908147 -0.418652 0
    outer loop
      vertex -3.56403 -1.81596 0
      vertex -3.69552 -1.53073 20
      vertex -3.69552 -1.53073 0
    endloop
  endfacet
  facet normal -0.908147 -0.418652 0
    outer loop
      vertex -3.69552 -1.53073 20
      vertex -3.56403 -1.81596 0
      vertex -3.56403 -1.81596 20
    endloop
  endfacet
  facet normal -0.872488 -0.488635 0
    outer loop
      vertex -3.41056 -2.08999 0
      vertex -3.56403 -1.81596 20
      vertex -3.56403 -1.81596 0
    endloop
  endfacet
  facet normal -0.872488 -0.488635 0
    outer loop
      vertex -3.56403 -1.81596 20
      vertex -3.41056 -2.08999 0
      vertex -3.41056 -2.08999 20
    endloop
  endfacet
  facet normal -0.831477 -0.55556 0
    outer loop
      vertex -3.23607 -2.35114 0
      vertex -3.41056 -2.08999 20
      vertex -3.41056 -2.08999 0
    endloop
  endfacet
  facet normal -0.831477 -0.55556 0
    outer loop
      vertex -3.41056 -2.08999 20
      vertex -3.23607 -2.35114 0
      vertex -3.23607 -2.35114 20
    endloop
  endfacet
  facet normal -0.785306 -0.619107 0
    outer loop
      vertex -3.04162 -2.59779 0
      vertex -3.23607 -2.35114 20
      vertex -3.23607 -2.35114 0
    endloop
  endfacet
  facet normal -0.785306 -0.619107 0
    outer loop
      vertex -3.23607 -2.35114 20
      vertex -3.04162 -2.59779 0
      vertex -3.04162 -2.59779 20
    endloop
  endfacet
  facet normal -0.734341 -0.678781 0
    outer loop
      vertex -2.82843 -2.82843 0
      vertex -3.04162 -2.59779 20
      vertex -3.04162 -2.59779 0
    endloop
  endfacet
  facet normal -0.734341 -0.678781 0
    outer loop
      vertex -3.04162 -2.59779 20
      vertex -2.82843 -2.82843 0
      vertex -2.82843 -2.82843 20
    endloop
  endfacet
  facet normal -0.678781 -0.734341 0
    outer loop
      vertex -2.82843 -2.82843 0
      vertex -2.59779 -3.04162 20
      vertex -2.82843 -2.82843 20
    endloop
  endfacet
  facet normal -0.678781 -0.734341 -0
    outer loop
      vertex -2.59779 -3.04162 20
      vertex -2.82843 -2.82843 0
      vertex -2.59779 -3.04162 0
    endloop
  endfacet
  facet normal -0.619107 -0.785306 0
    outer loop
      vertex -2.59779 -3.04162 0
      vertex -2.35114 -3.23607 20
      vertex -2.59779 -3.04162 20
    endloop
  endfacet
  facet normal -0.619107 -0.785306 -0
    outer loop
      vertex -2.35114 -3.23607 20
      vertex -2.59779 -3.04162 0
      vertex -2.35114 -3.23607 0
    endloop
  endfacet
  facet normal -0.55556 -0.831477 0
    outer loop
      vertex -2.35114 -3.23607 0
      vertex -2.08999 -3.41056 20
      vertex -2.35114 -3.23607 20
    endloop
  endfacet
  facet normal -0.55556 -0.831477 -0
    outer loop
      vertex -2.08999 -3.41056 20
      vertex -2.35114 -3.23607 0
      vertex -2.08999 -3.41056 0
    endloop
  endfacet
  facet normal -0.488635 -0.872488 0
    outer loop
      vertex -2.08999 -3.41056 0
      vertex -1.81596 -3.56403 20
      vertex -2.08999 -3.41056 20
    endloop
  endfacet
  facet normal -0.488635 -0.872488 -0
    outer loop
      vertex -1.81596 -3.56403 20
      vertex -2.08999 -3.41056 0
      vertex -1.81596 -3.56403 0
    endloop
  endfacet
  facet normal -0.418652 -0.908147 0
    outer loop
      vertex -1.81596 -3.56403 0
      vertex -1.53073 -3.69552 20
      vertex -1.81596 -3.56403 20
    endloop
  endfacet
  facet normal -0.418652 -0.908147 -0
    outer loop
      vertex -1.53073 -3.69552 20
      vertex -1.81596 -3.56403 0
      vertex -1.53073 -3.69552 0
    endloop
  endfacet
  facet normal -0.346129 -0.938187 0
    outer loop
      vertex -1.53073 -3.69552 0
      vertex -1.23607 -3.80423 20
      vertex -1.53073 -3.69552 20
    endloop
  endfacet
  facet normal -0.346129 -0.938187 -0
    outer loop
      vertex -1.23607 -3.80423 20
      vertex -1.53073 -3.69552 0
      vertex -1.23607 -3.80423 0
    endloop
  endfacet
  facet normal -0.271428 -0.962459 0
    outer loop
      vertex -1.23607 -3.80423 0
      vertex -0.933781 -3.88948 20
      vertex -1.23607 -3.80423 20
    endloop
  endfacet
  facet normal -0.271428 -0.962459 -0
    outer loop
      vertex -0.933781 -3.88948 20
      vertex -1.23607 -3.80423 0
      vertex -0.933781 -3.88948 0
    endloop
  endfacet
  facet normal -0.195079 -0.980787 0
    outer loop
      vertex -0.933781 -3.88948 0
      vertex -0.625738 -3.95075 20
      vertex -0.933781 -3.88948 20
    endloop
  endfacet
  facet normal -0.195079 -0.980787 -0
    outer loop
      vertex -0.625738 -3.95075 20
      vertex -0.933781 -3.88948 0
      vertex -0.625738 -3.95075 0
    endloop
  endfacet
  facet normal -0.11755 -0.993067 0
    outer loop
      vertex -0.625738 -3.95075 0
      vertex -0.313836 -3.98767 20
      vertex -0.625738 -3.95075 20
    endloop
  endfacet
  facet normal -0.11755 -0.993067 -0
    outer loop
      vertex -0.313836 -3.98767 20
      vertex -0.625738 -3.95075 0
      vertex -0.313836 -3.98767 0
    endloop
  endfacet
  facet normal -0.0392577 -0.999229 0
    outer loop
      vertex -0.313836 -3.98767 0
      vertex -0 -4 20
      vertex -0.313836 -3.98767 20
    endloop
  endfacet
  facet normal -0.0392577 -0.999229 -0
    outer loop
      vertex -0 -4 20
      vertex -0.313836 -3.98767 0
      vertex -0 -4 0
    endloop
  endfacet
  facet normal 0.0392577 -0.999229 0
    outer loop
      vertex -0 -4 0
      vertex 0.313836 -3.98767 20
      vertex -0 -4 20
    endloop
  endfacet
  facet normal 0.0392577 -0.999229 0
    outer loop
      vertex 0.313836 -3.98767 20
      vertex -0 -4 0
      vertex 0.313836 -3.98767 0
    endloop
  endfacet
  facet normal 0.11755 -0.993067 0
    outer loop
      vertex 0.313836 -3.98767 0
      vertex 0.625738 -3.95075 20
      vertex 0.313836 -3.98767 20
    endloop
  endfacet
  facet normal 0.11755 -0.993067 0
    outer loop
      vertex 0.625738 -3.95075 20
      vertex 0.313836 -3.98767 0
      vertex 0.625738 -3.95075 0
    endloop
  endfacet
  facet normal 0.195079 -0.980787 0
    outer loop
      vertex 0.625738 -3.95075 0
      vertex 0.933781 -3.88948 20
      vertex 0.625738 -3.95075 20
    endloop
  endfacet
  facet normal 0.195079 -0.980787 0
    outer loop
      vertex 0.933781 -3.88948 20
      vertex 0.625738 -3.95075 0
      vertex 0.933781 -3.88948 0
    endloop
  endfacet
  facet normal 0.271428 -0.962459 0
    outer loop
      vertex 0.933781 -3.88948 0
      vertex 1.23607 -3.80423 20
      vertex 0.933781 -3.88948 20
    endloop
  endfacet
  facet normal 0.271428 -0.962459 0
    outer loop
      vertex 1.23607 -3.80423 20
      vertex 0.933781 -3.88948 0
      vertex 1.23607 -3.80423 0
    endloop
  endfacet
  facet normal 0.346129 -0.938187 0
    outer loop
      vertex 1.23607 -3.80423 0
      vertex 1.53073 -3.69552 20
      vertex 1.23607 -3.80423 20
    endloop
  endfacet
  facet normal 0.346129 -0.938187 0
    outer loop
      vertex 1.53073 -3.69552 20
      vertex 1.23607 -3.80423 0
      vertex 1.53073 -3.69552 0
    endloop
  endfacet
  facet normal 0.418652 -0.908147 0
    outer loop
      vertex 1.53073 -3.69552 0
      vertex 1.81596 -3.56403 20
      vertex 1.53073 -3.69552 20
    endloop
  endfacet
  facet normal 0.418652 -0.908147 0
    outer loop
      vertex 1.81596 -3.56403 20
      vertex 1.53073 -3.69552 0
      vertex 1.81596 -3.56403 0
    endloop
  endfacet
  facet normal 0.488635 -0.872488 0
    outer loop
      vertex 1.81596 -3.56403 0
      vertex 2.08999 -3.41056 20
      vertex 1.81596 -3.56403 20
    endloop
  endfacet
  facet normal 0.488635 -0.872488 0
    outer loop
      vertex 2.08999 -3.41056 20
      vertex 1.81596 -3.56403 0
      vertex 2.08999 -3.41056 0
    endloop
  endfacet
  facet normal 0.55556 -0.831477 0
    outer loop
      vertex 2.08999 -3.41056 0
      vertex 2.35114 -3.23607 20
      vertex 2.08999 -3.41056 20
    endloop
  endfacet
  facet normal 0.55556 -0.831477 0
    outer loop
      vertex 2.35114 -3.23607 20
      vertex 2.08999 -3.41056 0
      vertex 2.35114 -3.23607 0
    endloop
  endfacet
  facet normal 0.619107 -0.785306 0
    outer loop
      vertex 2.35114 -3.23607 0
      vertex 2.59779 -3.04162 20
      vertex 2.35114 -3.23607 20
    endloop
  endfacet
  facet normal 0.619107 -0.785306 0
    outer loop
      vertex 2.59779 -3.04162 20
      vertex 2.35114 -3.23607 0
      vertex 2.59779 -3.04162 0
    endloop
  endfacet
  facet normal 0.678781 -0.734341 0
    outer loop
      vertex 2.59779 -3.04162 0
      vertex 2.82843 -2.82843 20
      vertex 2.59779 -3.04162 20
    endloop
  endfacet
  facet normal 0.678781 -0.734341 0
    outer loop
      vertex 2.82843 -2.82843 20
      vertex 2.59779 -3.04162 0
      vertex 2.82843 -2.82843 0
    endloop
  endfacet
  facet normal 0.734341 -0.678781 0
    outer loop
      vertex 2.82843 -2.82843 20
      vertex 3.04162 -2.59779 0
      vertex 3.04162 -2.59779 20
    endloop
  endfacet
  facet normal 0.734341 -0.678781 0
    outer loop
      vertex 3.04162 -2.59779 0
      vertex 2.82843 -2.82843 20
      vertex 2.82843 -2.82843 0
    endloop
  endfacet
  facet normal 0.785306 -0.619107 0
    outer loop
      vertex 3.04162 -2.59779 20
      vertex 3.23607 -2.35114 0
      vertex 3.23607 -2.35114 20
    endloop
  endfacet
  facet normal 0.785306 -0.619107 0
    outer loop
      vertex 3.23607 -2.35114 0
      vertex 3.04162 -2.59779 20
      vertex 3.04162 -2.59779 0
    endloop
  endfacet
  facet normal 0.831477 -0.55556 0
    outer loop
      vertex 3.23607 -2.35114 20
      vertex 3.41056 -2.08999 0
      vertex 3.41056 -2.08999 20
    endloop
  endfacet
  facet normal 0.831477 -0.55556 0
    outer loop
      vertex 3.41056 -2.08999 0
      vertex 3.23607 -2.35114 20
      vertex 3.23607 -2.35114 0
    endloop
  endfacet
  facet normal 0.872488 -0.488635 0
    outer loop
      vertex 3.41056 -2.08999 20
      vertex 3.56403 -1.81596 0
      vertex 3.56403 -1.81596 20
    endloop
  endfacet
  facet normal 0.872488 -0.488635 0
    outer loop
      vertex 3.56403 -1.81596 0
      vertex 3.41056 -2.08999 20
      vertex 3.41056 -2.08999 0
    endloop
  endfacet
  facet normal 0.908147 -0.418652 0
    outer loop
      vertex 3.56403 -1.81596 20
      vertex 3.69552 -1.53073 0
      vertex 3.69552 -1.53073 20
    endloop
  endfacet
  facet normal 0.908147 -0.418652 0
    outer loop
      vertex 3.69552 -1.53073 0
      vertex 3.56403 -1.81596 20
      vertex 3.56403 -1.81596 0
    endloop
  endfacet
  facet normal 0.938187 -0.346129 0
    outer loop
      vertex 3.69552 -1.53073 20
      vertex 3.80423 -1.23607 0
      vertex 3.80423 -1.23607 20
    endloop
  endfacet
  facet normal 0.938187 -0.346129 0
    outer loop
      vertex 3.80423 -1.23607 0
      vertex 3.69552 -1.53073 20
      vertex 3.69552 -1.53073 0
    endloop
  endfacet
  facet normal 0.962459 -0.271428 0
    outer loop
      vertex 3.80423 -1.23607 20
      vertex 3.88948 -0.933781 0
      vertex 3.88948 -0.933781 20
    endloop
  endfacet
  facet normal 0.962459 -0.271428 0
    outer loop
      vertex 3.88948 -0.933781 0
      vertex 3.80423 -1.23607 20
      vertex 3.80423 -1.23607 0
    endloop
  endfacet
  facet normal 0.980787 -0.195079 0
    outer loop
      vertex 3.88948 -0.933781 20
      vertex 3.95075 -0.625738 0
      vertex 3.95075 -0.625738 20
    endloop
  endfacet
  facet normal 0.980787 -0.195079 0
    outer loop
      vertex 3.95075 -0.625738 0
      vertex 3.88948 -0.933781 20
      vertex 3.88948 -0.933781 0
    endloop
  endfacet
  facet normal 0.993067 -0.11755 0
    outer loop
      vertex 3.95075 -0.625738 20
      vertex 3.98767 -0.313836 0
      vertex 3.98767 -0.313836 20
    endloop
  endfacet
  facet normal 0.993067 -0.11755 0
    outer loop
      vertex 3.98767 -0.313836 0
      vertex 3.95075 -0.625738 20
      vertex 3.95075 -0.625738 0
    endloop
  endfacet
  facet normal 0.999229 -0.0392577 0
    outer loop
      vertex 3.98767 -0.313836 20
      vertex 4 0 0
      vertex 4 0 20
    endloop
  endfacet
  facet normal 0.999229 -0.0392577 0
    outer loop
      vertex 4 0 0
      vertex 3.98767 -0.313836 20
      vertex 3.98767 -0.313836 0
    endloop
  endfacet
  facet normal 0 0 -1
    outer loop
      vertex 3.98767 -0.313836 0
      vertex 3.98767 0.313836 0
      vertex 4 0 0
    endloop
  endfacet
  facet normal 0 0 -1
    outer loop
      vertex 3.95075 -0.625738 0
      vertex 3.98767 0.313836 0
      vertex 3.98767 -0.313836 0
    endloop
  endfacet
  facet normal 0 0 -1
    outer loop
      vertex 3.95075 -0.625738 0
      vertex 3.95075 0.625738 0
      vertex 3.98767 0.313836 0
    endloop
  endfacet
  facet normal 0 0 -1
    outer loop
      vertex 3.88948 -0.933781 0
      vertex 3.95075 0.625738 0
      vertex 3.95075 -0.625738 0
    endloop
  endfacet
  facet normal 0 0 -1
    outer loop
      vertex 3.88948 -0.933781 0
      vertex 3.88948 0.933781 0
      vertex 3.95075 0.625738 0
    endloop
  endfacet
  facet normal 0 0 -1
    outer loop
      vertex 3.80423 -1.23607 0
      vertex 3.88948 0.933781 0
      vertex 3.88948 -0.933781 0
    endloop
  endfacet
  facet normal 0 0 -1
    outer loop
      vertex 3.80423 -1.23607 0
      vertex 3.80423 1.23607 0
      vertex 3.88948 0.933781 0
    endloop
  endfacet
  facet normal 0 0 -1
    outer loop
      vertex 3.69552 -1.53073 0
      vertex 3.80423 1.23607 0
      vertex 3.80423 -1.23607 0
    endloop
  endfacet
  facet normal 0 0 -1
    outer loop
      vertex 3.69552 -1.53073 0
      vertex 3.69552 1.53073 0
      vertex 3.80423 1.23607 0
    endloop
  endfacet
  facet normal 0 0 -1
    outer loop
      vertex 3.56403 -1.81596 0
      vertex 3.69552 1.53073 0
      vertex 3.69552 -1.53073 0
    endloop
  endfacet
  facet normal 0 0 -1
    outer loop
      vertex 3.56403 -1.81596 0
      vertex 3.56403 1.81596 0
      vertex 3.69552 1.53073 0
    endloop
  endfacet
  facet normal 0 0 -1
    outer loop
      vertex 3.41056 -2.08999 0
      vertex 3.56403 1.81596 0
      vertex 3.56403 -1.81596 0
    endloop
  endfacet
  facet normal 0 0 -1
    outer loop
      vertex 3.41056 -2.08999 0
      vertex 3.41056 2.08999 0
      vertex 3.56403 1.81596 0
    endloop
  endfacet
  facet normal 0 0 -1
    outer loop
      vertex 3.23607 -2.35114 0
      vertex 3.41056 2.08999 0
      vertex 3.41056 -2.08999 0
    endloop
  endfacet
  facet normal 0 0 -1
    outer loop
      vertex 3.23607 -2.35114 0
      vertex 3.23607 2.35114 0
      vertex 3.41056 2.08999 0
    endloop
  endfacet
  facet normal 0 0 -1
    outer loop
      vertex 3.04162 -2.59779 0
      vertex 3.23607 2.35114 0
      vertex 3.23607 -2.35114 0
    endloop
  endfacet
  facet normal 0 0 -1
    outer loop
      vertex 3.04162 -2.59779 0
      vertex 3.04162 2.59779 0
      vertex 3.23607 2.35114 0
    endloop
  endfacet
  facet normal 0 0 -1
    outer loop
      vertex 2.82843 -2.82843 0
      vertex 3.04162 2.59779 0
      vertex 3.04162 -2.59779 0
    endloop
  endfacet
  facet normal 0 0 -1
    outer loop
      vertex 2.82843 -2.82843 0
      vertex 2.82843 2.82843 0
      vertex 3.04162 2.59779 0
    endloop
  endfacet
  facet normal 0 0 -1
    outer loop
      vertex 2.59779 -3.04162 0
      vertex 2.82843 2.82843 0
      vertex 2.82843 -2.82843 0
    endloop
  endfacet
  facet normal 0 0 -1
    outer loop
      vertex 2.59779 -3.04162 0
      vertex 2.59779 3.04162 0
      vertex 2.82843 2.82843 0
    endloop
  endfacet
  facet normal 0 0 -1
    outer loop
      vertex 2.35114 -3.23607 0
      vertex 2.59779 3.04162 0
      vertex 2.59779 -3.04162 0
    endloop
  endfacet
  facet normal 0 0 -1
    outer loop
      vertex 2.35114 -3.23607 0
      vertex 2.35114 3.23607 0
      vertex 2.59779 3.04162 0
    endloop
  endfacet
  facet normal 0 0 -1
    outer loop
      vertex 2.08999 -3.41056 0
      vertex 2.35114 3.23607 0
      vertex 2.35114 -3.23607 0
    endloop
  endfacet
  facet normal 0 0 -1
    outer loop
      vertex 2.08999 -3.41056 0
      vertex 2.08999 3.41056 0
      vertex 2.35114 3.23607 0
    endloop
  endfacet
  facet normal 0 0 -1
    outer loop
      vertex 1.81596 -3.56403 0
      vertex 2.08999 3.41056 0
      vertex 2.08999 -3.41056 0
    endloop
  endfacet
  facet normal 0 0 -1
    outer loop
      vertex 1.81596 -3.56403 0
      vertex 1.81596 3.56403 0
      vertex 2.08999 3.41056 0
    endloop
  endfacet
  facet normal 0 0 -1
    outer loop
      vertex 1.53073 -3.69552 0
      vertex 1.81596 3.56403 0
      vertex 1.81596 -3.56403 0
    endloop
  endfacet
  facet normal 0 0 -1
    outer loop
      vertex 1.53073 -3.69552 0
      vertex 1.53073 3.69552 0
      vertex 1.81596 3.56403 0
    endloop
  endfacet
  facet normal 0 0 -1
    outer loop
      vertex 1.23607 -3.80423 0
      vertex 1.53073 3.69552 0
      vertex 1.53073 -3.69552 0
    endloop
  endfacet
  facet normal 0 0 -1
    outer loop
      vertex 1.23607 -3.80423 0
      vertex 1.23607 3.80423 0
      vertex 1.53073 3.69552 0
    endloop
  endfacet
  facet normal 0 0 -1
    outer loop
      vertex 0.933781 -3.88948 0
      vertex 1.23607 3.80423 0
      vertex 1.23607 -3.80423 0
    endloop
  endfacet
  facet normal 0 0 -1
    outer loop
      vertex 0.933781 -3.88948 0
      vertex 0.933781 3.88948 0
      vertex 1.23607 3.80423 0
    endloop
  endfacet
  facet normal 0 0 -1
    outer loop
      vertex 0.625738 -3.95075 0
      vertex 0.933781 3.88948 0
      vertex 0.933781 -3.88948 0
    endloop
  endfacet
  facet normal 0 0 -1
    outer loop
      vertex 0.625738 -3.95075 0
      vertex 0.625738 3.95075 0
      vertex 0.933781 3.88948 0
    endloop
  endfacet
  facet normal 0 0 -1
    outer loop
      vertex 0.313836 -3.98767 0
      vertex 0.625738 3.95075 0
      vertex 0.625738 -3.95075 0
    endloop
  endfacet
  facet normal 0 0 -1
    outer loop
      vertex 0.313836 -3.98767 0
      vertex 0.313836 3.98767 0
      vertex 0.625738 3.95075 0
    endloop
  endfacet
  facet normal 0 0 -1
    outer loop
      vertex -0 -4 0
      vertex 0.313836 3.98767 0
      vertex 0.313836 -3.98767 0
    endloop
  endfacet
  facet normal 0 0 -1
    outer loop
      vertex -0 -4 0
      vertex 0 4 0
      vertex 0.313836 3.98767 0
    endloop
  endfacet
  facet normal 0 0 -1
    outer loop
      vertex -0.313836 -3.98767 0
      vertex 0 4 0
      vertex -0 -4 0
    endloop
  endfacet
  facet normal 0 0 -1
    outer loop
      vertex -0.313836 -3.98767 0
      vertex -0.313836 3.98767 0
      vertex 0 4 0
    endloop
  endfacet
  facet normal 0 0 -1
    outer loop
      vertex -0.625738 -3.95075 0
      vertex -0.313836 3.98767 0
      vertex -0.313836 -3.98767 0
    endloop
  endfacet
  facet normal 0 0 -1
    outer loop
      vertex -0.625738 -3.95075 0
      vertex -0.625738 3.95075 0
      vertex -0.313836 3.98767 0
    endloop
  endfacet
  facet normal 0 0 -1
    outer loop
      vertex -0.933781 -3.88948 0
      vertex -0.625738 3.95075 0
      vertex -0.625738 -3.95075 0
    endloop
  endfacet
  facet normal 0 0 -1
    outer loop
      vertex -0.933781 -3.88948 0
      vertex -0.933781 3.88948 0
      vertex -0.625738 3.95075 0
    endloop
  endfacet
  facet normal 0 0 -1
    outer loop
      vertex -1.23607 -3.80423 0
      vertex -0.933781 3.88948 0
      vertex -0.933781 -3.88948 0
    endloop
  endfacet
  facet normal 0 0 -1
    outer loop
      vertex -1.23607 -3.80423 0
      vertex -1.23607 3.80423 0
      vertex -0.933781 3.88948 0
    endloop
  endfacet
  facet normal 0 0 -1
    outer loop
      vertex -1.53073 -3.69552 0
      vertex -1.23607 3.80423 0
      vertex -1.23607 -3.80423 0
    endloop
  endfacet
  facet normal 0 0 -1
    outer loop
      vertex -1.53073 -3.69552 0
      vertex -1.53073 3.69552 0
      vertex -1.23607 3.80423 0
    endloop
  endfacet
  facet normal 0 0 -1
    outer loop
      vertex -1.81596 -3.56403 0
      vertex -1.53073 3.69552 0
      vertex -1.53073 -3.69552 0
    endloop
  endfacet
  facet normal 0 0 -1
    outer loop
      vertex -1.81596 -3.56403 0
      vertex -1.81596 3.56403 0
      vertex -1.53073 3.69552 0
    endloop
  endfacet
  facet normal 0 0 -1
    outer loop
      vertex -2.08999 -3.41056 0
      vertex -1.81596 3.56403 0
      vertex -1.81596 -3.56403 0
    endloop
  endfacet
  facet normal 0 0 -1
    outer loop
      vertex -2.08999 -3.41056 0
      vertex -2.08999 3.41056 0
      vertex -1.81596 3.56403 0
    endloop
  endfacet
  facet normal 0 0 -1
    outer loop
      vertex -2.35114 -3.23607 0
      vertex -2.08999 3.41056 0
      vertex -2.08999 -3.41056 0
    endloop
  endfacet
  facet normal 0 0 -1
    outer loop
      vertex -2.35114 -3.23607 0
      vertex -2.35114 3.23607 0
      vertex -2.08999 3.41056 0
    endloop
  endfacet
  facet normal 0 0 -1
    outer loop
      vertex -2.59779 -3.04162 0
      vertex -2.35114 3.23607 0
      vertex -2.35114 -3.23607 0
    endloop
  endfacet
  facet normal 0 0 -1
    outer loop
      vertex -2.59779 -3.04162 0
      vertex -2.59779 3.04162 0
      vertex -2.35114 3.23607 0
    endloop
  endfacet
  facet normal 0 0 -1
    outer loop
      vertex -2.82843 -2.82843 0
      vertex -2.59779 3.04162 0
      vertex -2.59779 -3.04162 0
    endloop
  endfacet
  facet normal 0 0 -1
    outer loop
      vertex -2.82843 -2.82843 0
      vertex -2.82843 2.82843 0
      vertex -2.59779 3.04162 0
    endloop
  endfacet
  facet normal 0 0 -1
    outer loop
      vertex -3.04162 -2.59779 0
      vertex -2.82843 2.82843 0
      vertex -2.82843 -2.82843 0
    endloop
  endfacet
  facet normal 0 0 -1
    outer loop
      vertex -3.04162 -2.59779 0
      vertex -3.04162 2.59779 0
      vertex -2.82843 2.82843 0
    endloop
  endfacet
  facet normal 0 0 -1
    outer loop
      vertex -3.23607 -2.35114 0
      vertex -3.04162 2.59779 0
      vertex -3.04162 -2.59779 0
    endloop
  endfacet
  facet normal 0 0 -1
    outer loop
      vertex -3.23607 -2.35114 0
      vertex -3.23607 2.35114 0
      vertex -3.04162 2.59779 0
    endloop
  endfacet
  facet normal 0 0 -1
    outer loop
      vertex -3.41056 -2.08999 0
      vertex -3.23607 2.35114 0
      vertex -3.23607 -2.35114 0
    endloop
  endfacet
  facet normal 0 0 -1
    outer loop
      vertex -3.41056 -2.08999 0
      vertex -3.41056 2.08999 0
      vertex -3.23607 2.35114 0
    endloop
  endfacet
  facet normal 0 0 -1
    outer loop
      vertex -3.56403 -1.81596 0
      vertex -3.41056 2.08999 0
      vertex -3.41056 -2.08999 0
    endloop
  endfacet
  facet normal 0 0 -1
    outer loop
      vertex -3.56403 -1.81596 0
      vertex -3.56403 1.81596 0
      vertex -3.41056 2.08999 0
    endloop
  endfacet
  facet normal 0 0 -1
    outer loop
      vertex -3.69552 -1.53073 0
      vertex -3.56403 1.81596 0
      vertex -3.56403 -1.81596 0
    endloop
  endfacet
  facet normal 0 0 -1
    outer loop
      vertex -3.69552 -1.53073 0
      vertex -3.69552 1.53073 0
      vertex -3.56403 1.81596 0
    endloop
  endfacet
  facet normal 0 0 -1
    outer loop
      vertex -3.80423 -1.23607 0
      vertex -3.69552 1.53073 0
      vertex -3.69552 -1.53073 0
    endloop
  endfacet
  facet normal 0 0 -1
    outer loop
      vertex -3.80423 -1.23607 0
      vertex -3.80423 1.23607 0
      vertex -3.69552 1.53073 0
    endloop
  endfacet
  facet normal 0 0 -1
    outer loop
      vertex -3.88948 -0.933781 0
      vertex -3.80423 1.23607 0
      vertex -3.80423 -1.23607 0
    endloop
  endfacet
  facet normal 0 0 -1
    outer loop
      vertex -3.88948 -0.933781 0
      vertex -3.88948 0.933781 0
      vertex -3.80423 1.23607 0
    endloop
  endfacet
  facet normal 0 0 -1
    outer loop
      vertex -3.95075 -0.625738 0
      vertex -3.88948 0.933781 0
      vertex -3.88948 -0.933781 0
    endloop
  endfacet
  facet normal 0 0 -1
    outer loop
      vertex -3.95075 -0.625738 0
      vertex -3.95075 0.625738 0
      vertex -3.88948 0.933781 0
    endloop
  endfacet
  facet normal 0 0 -1
    outer loop
      vertex -3.98767 -0.313836 0
      vertex -3.95075 0.625738 0
      vertex -3.95075 -0.625738 0
    endloop
  endfacet
  facet normal 0 0 -1
    outer loop
      vertex -3.98767 -0.313836 0
      vertex -3.98767 0.313836 0
      vertex -3.95075 0.625738 0
    endloop
  endfacet
  facet normal 0 -0 -1
    outer loop
      vertex -3.98767 0.313836 0
      vertex -3.98767 -0.313836 0
      vertex -4 -0 0
    endloop
  endfacet
  facet normal 0 0 1
    outer loop
      vertex 3.98767 0.313836 20
      vertex 3.98767 -0.313836 20
      vertex 4 0 20
    endloop
  endfacet
  facet normal 0 0 1
    outer loop
      vertex 3.95075 0.625738 20
      vertex 3.98767 -0.313836 20
      vertex 3.98767 0.313836 20
    endloop
  endfacet
  facet normal 0 0 1
    outer loop
      vertex 3.95075 0.625738 20
      vertex 3.95075 -0.625738 20
      vertex 3.98767 -0.313836 20
    endloop
  endfacet
  facet normal 0 0 1
    outer loop
      vertex 3.88948 0.933781 20
      vertex 3.95075 -0.625738 20
      vertex 3.95075 0.625738 20
    endloop
  endfacet
  facet normal 0 0 1
    outer loop
      vertex 3.88948 0.933781 20
      vertex 3.88948 -0.933781 20
      vertex 3.95075 -0.625738 20
    endloop
  endfacet
  facet normal 0 0 1
    outer loop
      vertex 3.80423 1.23607 20
      vertex 3.88948 -0.933781 20
      vertex 3.88948 0.933781 20
    endloop
  endfacet
  facet normal 0 0 1
    outer loop
      vertex 3.80423 1.23607 20
      vertex 3.80423 -1.23607 20
      vertex 3.88948 -0.933781 20
    endloop
  endfacet
  facet normal 0 0 1
    outer loop
      vertex 3.69552 1.53073 20
      vertex 3.80423 -1.23607 20
      vertex 3.80423 1.23607 20
    endloop
  endfacet
  facet normal 0 0 1
    outer loop
      vertex 3.69552 1.53073 20
      vertex 3.69552 -1.53073 20
      vertex 3.80423 -1.23607 20
    endloop
  endfacet
  facet normal 0 0 1
    outer loop
      vertex 3.56403 1.81596 20
      vertex 3.69552 -1.53073 20
      vertex 3.69552 1.53073 20
    endloop
  endfacet
  facet normal 0 0 1
    outer loop
      vertex 3.56403 1.81596 20
      vertex 3.56403 -1.81596 20
      vertex 3.69552 -1.53073 20
    endloop
  endfacet
  facet normal 0 0 1
    outer loop
      vertex 3.41056 2.08999 20
      vertex 3.56403 -1.81596 20
      vertex 3.56403 1.81596 20
    endloop
  endfacet
  facet normal 0 0 1
    outer loop
      vertex 3.41056 2.08999 20
      vertex 3.41056 -2.08999 20
      vertex 3.56403 -1.81596 20
    endloop
  endfacet
  facet normal 0 0 1
    outer loop
      vertex 3.23607 2.35114 20
      vertex 3.41056 -2.08999 20
      vertex 3.41056 2.08999 20
    endloop
  endfacet
  facet normal 0 0 1
    outer loop
      vertex 3.23607 2.35114 20
      vertex 3.23607 -2.35114 20
      vertex 3.41056 -2.08999 20
    endloop
  endfacet
  facet normal 0 0 1
    outer loop
      vertex 3.04162 2.59779 20
      vertex 3.23607 -2.35114 20
      vertex 3.23607 2.35114 20
    endloop
  endfacet
  facet normal 0 0 1
    outer loop
      vertex 3.04162 2.59779 20
      vertex 3.04162 -2.59779 20
      vertex 3.23607 -2.35114 20
    endloop
  endfacet
  facet normal 0 0 1
    outer loop
      vertex 2.82843 2.82843 20
      vertex 3.04162 -2.59779 20
      vertex 3.04162 2.59779 20
    endloop
  endfacet
  facet normal 0 0 1
    outer loop
      vertex 2.82843 2.82843 20
      vertex 2.82843 -2.82843 20
      vertex 3.04162 -2.59779 20
    endloop
  endfacet
  facet normal 0 0 1
    outer loop
      vertex 2.59779 3.04162 20
      vertex 2.82843 -2.82843 20
      vertex 2.82843 2.82843 20
    endloop
  endfacet
  facet normal 0 0 1
    outer loop
      vertex 2.59779 3.04162 20
      vertex 2.59779 -3.04162 20
      vertex 2.82843 -2.82843 20
    endloop
  endfacet
  facet normal 0 0 1
    outer loop
      vertex 2.35114 3.23607 20
      vertex 2.59779 -3.04162 20
      vertex 2.59779 3.04162 20
    endloop
  endfacet
  facet normal 0 0 1
    outer loop
      vertex 2.35114 3.23607 20
      vertex 2.35114 -3.23607 20
      vertex 2.59779 -3.04162 20
    endloop
  endfacet
  facet normal 0 0 1
    outer loop
      vertex 2.08999 3.41056 20
      vertex 2.35114 -3.23607 20
      vertex 2.35114 3.23607 20
    endloop
  endfacet
  facet normal 0 0 1
    outer loop
      vertex 2.08999 3.41056 20
      vertex 2.08999 -3.41056 20
      vertex 2.35114 -3.23607 20
    endloop
  endfacet
  facet normal 0 0 1
    outer loop
      vertex 1.81596 3.56403 20
      vertex 2.08999 -3.41056 20
      vertex 2.08999 3.41056 20
    endloop
  endfacet
  facet normal 0 0 1
    outer loop
      vertex 1.81596 3.56403 20
      vertex 1.81596 -3.56403 20
      vertex 2.08999 -3.41056 20
    endloop
  endfacet
  facet normal 0 0 1
    outer loop
      vertex 1.53073 3.69552 20
      vertex 1.81596 -3.56403 20
      vertex 1.81596 3.56403 20
    endloop
  endfacet
  facet normal 0 0 1
    outer loop
      vertex 1.53073 3.69552 20
      vertex 1.53073 -3.69552 20
      vertex 1.81596 -3.56403 20
    endloop
  endfacet
  facet normal 0 0 1
    outer loop
      vertex 1.23607 3.80423 20
      vertex 1.53073 -3.69552 20
      vertex 1.53073 3.69552 20
    endloop
  endfacet
  facet normal 0 0 1
    outer loop
      vertex 1.23607 3.80423 20
      vertex 1.23607 -3.80423 20
      vertex 1.53073 -3.69552 20
    endloop
  endfacet
  facet normal 0 0 1
    outer loop
      vertex 0.933781 3.88948 20
      vertex 1.23607 -3.80423 20
      vertex 1.23607 3.80423 20
    endloop
  endfacet
  facet normal 0 0 1
    outer loop
      vertex 0.933781 3.88948 20
      vertex 0.933781 -3.88948 20
      vertex 1.23607 -3.80423 20
    endloop
  endfacet
  facet normal 0 0 1
    outer loop
      vertex 0.625738 3.95075 20
      vertex 0.933781 -3.88948 20
      vertex 0.933781 3.88948 20
    endloop
  endfacet
  facet normal 0 0 1
    outer loop
      vertex 0.625738 3.95075 20
      vertex 0.625738 -3.95075 20
      vertex 0.933781 -3.88948 20
    endloop
  endfacet
  facet normal 0 0 1
    outer loop
      vertex 0.313836 3.98767 20
      vertex 0.625738 -3.95075 20
      vertex 0.625738 3.95075 20
    endloop
  endfacet
  facet normal 0 0 1
    outer loop
      vertex 0.313836 3.98767 20
      vertex 0.313836 -3.98767 20
      vertex 0.625738 -3.95075 20
    endloop
  endfacet
  facet normal 0 0 1
    outer loop
      vertex 0 4 20
      vertex 0.313836 -3.98767 20
      vertex 0.313836 3.98767 20
    endloop
  endfacet
  facet normal 0 0 1
    outer loop
      vertex 0 4 20
      vertex -0 -4 20
      vertex 0.313836 -3.98767 20
    endloop
  endfacet
  facet normal -0 0 1
    outer loop
      vertex -0.313836 3.98767 20
      vertex -0 -4 20
      vertex 0 4 20
    endloop
  endfacet
  facet normal 0 0 1
    outer loop
      vertex -0.313836 3.98767 20
      vertex -0.313836 -3.98767 20
      vertex -0 -4 20
    endloop
  endfacet
  facet normal -0 0 1
    outer loop
      vertex -0.625738 3.95075 20
      vertex -0.313836 -3.98767 20
      vertex -0.313836 3.98767 20
    endloop
  endfacet
  facet normal 0 0 1
    outer loop
      vertex -0.625738 3.95075 20
      vertex -0.625738 -3.95075 20
      vertex -0.313836 -3.98767 20
    endloop
  endfacet
  facet normal -0 0 1
    outer loop
      vertex -0.933781 3.88948 20
      vertex -0.625738 -3.95075 20
      vertex -0.625738 3.95075 20
    endloop
  endfacet
  facet normal 0 0 1
    outer loop
      vertex -0.933781 3.88948 20
      vertex -0.933781 -3.88948 20
      vertex -0.625738 -3.95075 20
    endloop
  endfacet
  facet normal -0 0 1
    outer loop
      vertex -1.23607 3.80423 20
      vertex -0.933781 -3.88948 20
      vertex -0.933781 3.88948 20
    endloop
  endfacet
  facet normal 0 0 1
    outer loop
      vertex -1.23607 3.80423 20
      vertex -1.23607 -3.80423 20
      vertex -0.933781 -3.88948 20
    endloop
  endfacet
  facet normal -0 0 1
    outer loop
      vertex -1.53073 3.69552 20
      vertex -1.23607 -3.80423 20
      vertex -1.23607 3.80423 20
    endloop
  endfacet
  facet normal 0 0 1
    outer loop
      vertex -1.53073 3.69552 20
      vertex -1.53073 -3.69552 20
      vertex -1.23607 -3.80423 20
    endloop
  endfacet
  facet normal -0 0 1
    outer loop
      vertex -1.81596 3.56403 20
      vertex -1.53073 -3.69552 20
      vertex -1.53073 3.69552 20
    endloop
  endfacet
  facet normal 0 0 1
    outer loop
      vertex -1.81596 3.56403 20
      vertex -1.81596 -3.56403 20
      vertex -1.53073 -3.69552 20
    endloop
  endfacet
  facet normal -0 0 1
    outer loop
      vertex -2.08999 3.41056 20
      vertex -1.81596 -3.56403 20
      vertex -1.81596 3.56403 20
    endloop
  endfacet
  facet normal 0 0 1
    outer loop
      vertex -2.08999 3.41056 20
      vertex -2.08999 -3.41056 20
      vertex -1.81596 -3.56403 20
    endloop
  endfacet
  facet normal -0 0 1
    outer loop
      vertex -2.35114 3.23607 20
      vertex -2.08999 -3.41056 20
      vertex -2.08999 3.41056 20
    endloop
  endfacet
  facet normal 0 0 1
    outer loop
      vertex -2.35114 3.23607 20
      vertex -2.35114 -3.23607 20
      vertex -2.08999 -3.41056 20
    endloop
  endfacet
  facet normal -0 0 1
    outer loop
      vertex -2.59779 3.04162 20
      vertex -2.35114 -3.23607 20
      vertex -2.35114 3.23607 20
    endloop
  endfacet
  facet normal 0 0 1
    outer loop
      vertex -2.59779 3.04162 20
      vertex -2.59779 -3.04162 20
      vertex -2.35114 -3.23607 20
    endloop
  endfacet
  facet normal -0 0 1
    outer loop
      vertex -2.82843 2.82843 20
      vertex -2.59779 -3.04162 20
      vertex -2.59779 3.04162 20
    endloop
  endfacet
  facet normal 0 0 1
    outer loop
      vertex -2.82843 2.82843 20
      vertex -2.82843 -2.82843 20
      vertex -2.59779 -3.04162 20
    endloop
  endfacet
  facet normal -0 0 1
    outer loop
      vertex -3.04162 2.59779 20
      vertex -2.82843 -2.82843 20
      vertex -2.82843 2.82843 20
    endloop
  endfacet
  facet normal 0 0 1
    outer loop
      vertex -3.04162 2.59779 20
      vertex -3.04162 -2.59779 20
      vertex -2.82843 -2.82843 20
    endloop
  endfacet
  facet normal -0 0 1
    outer loop
      vertex -3.23607 2.35114 20
      vertex -3.04162 -2.59779 20
      vertex -3.04162 2.59779 20
    endloop
  endfacet
  facet normal 0 0 1
    outer loop
      vertex -3.23607 2.35114 20
      vertex -3.23607 -2.35114 20
      vertex -3.04162 -2.59779 20
    endloop
  endfacet
  facet normal -0 0 1
    outer loop
      vertex -3.41056 2.08999 20
      vertex -3.23607 -2.35114 20
      vertex -3.23607 2.35114 20
    endloop
  endfacet
  facet normal 0 0 1
    outer loop
      vertex -3.41056 2.08999 20
      vertex -3.41056 -2.08999 20
      vertex -3.23607 -2.35114 20
    endloop
  endfacet
  facet normal -0 0 1
    outer loop
      vertex -3.56403 1.81596 20
      vertex -3.41056 -2.08999 20
      vertex -3.41056 2.08999 20
    endloop
  endfacet
  facet normal 0 0 1
    outer loop
      vertex -3.56403 1.81596 20
      vertex -3.56403 -1.81596 20
      vertex -3.41056 -2.08999 20
    endloop
  endfacet
  facet normal -0 0 1
    outer loop
      vertex -3.69552 1.53073 20
      vertex -3.56403 -1.81596 20
      vertex -3.56403 1.81596 20
    endloop
  endfacet
  facet normal 0 0 1
    outer loop
      vertex -3.69552 1.53073 20
      vertex -3.69552 -1.53073 20
      vertex -3.56403 -1.81596 20
    endloop
  endfacet
  facet normal -0 0 1
    outer loop
      vertex -3.80423 1.23607 20
      vertex -3.69552 -1.53073 20
      vertex -3.69552 1.53073 20
    endloop
  endfacet
  facet normal 0 0 1
    outer loop
      vertex -3.80423 1.23607 20
      vertex -3.80423 -1.23607 20
      vertex -3.69552 -1.53073 20
    endloop
  endfacet
  facet normal -0 0 1
    outer loop
      vertex -3.88948 0.933781 20
      vertex -3.80423 -1.23607 20
      vertex -3.80423 1.23607 20
    endloop
  endfacet
  facet normal 0 0 1
    outer loop
      vertex -3.88948 0.933781 20
      vertex -3.88948 -0.933781 20
      vertex -3.80423 -1.23607 20
    endloop
  endfacet
  facet normal -0 0 1
    outer loop
      vertex -3.95075 0.625738 20
      vertex -3.88948 -0.933781 20
      vertex -3.88948 0.933781 20
    endloop
  endfacet
  facet normal 0 0 1
    outer loop
      vertex -3.95075 0.625738 20
      vertex -3.95075 -0.625738 20
      vertex -3.88948 -0.933781 20
    endloop
  endfacet
  facet normal -0 0 1
    outer loop
      vertex -3.98767 0.313836 20
      vertex -3.95075 -0.625738 20
      vertex -3.95075 0.625738 20
    endloop
  endfacet
  facet normal 0 0 1
    outer loop
      vertex -3.98767 0.313836 20
      vertex -3.98767 -0.313836 20
      vertex -3.95075 -0.625738 20
    endloop
  endfacet
  facet normal 0 -0 1
    outer loop
      vertex -3.98767 -0.313836 20
      vertex -3.98767 0.313836 20
      vertex -4 -0 20
    endloop
  endfacet
endsolid OpenSCAD_Model
