solid OpenSCAD_Model
  facet normal 1 -0 0
    outer loop
      vertex 15 -5 0.5
      vertex 15 5 -0.5
      vertex 15 5 0.5
    endloop
  endfacet
  facet normal 1 0 0
    outer loop
      vertex 15 5 -0.5
      vertex 15 -5 0.5
      vertex 15 -5 -0.5
    endloop
  endfacet
  facet normal 0 0 1
    outer loop
      vertex 15 5 0.5
      vertex 13.5 4 0.5
      vertex 15 -5 0.5
    endloop
  endfacet
  facet normal 0 0 1
    outer loop
      vertex 15 5 0.5
      vertex -13.5 4 0.5
      vertex 13.5 4 0.5
    endloop
  endfacet
  facet normal 0 0 1
    outer loop
      vertex -13.5 4 0.5
      vertex -15 5 0.5
      vertex -13.5 -4 0.5
    endloop
  endfacet
  facet normal -0 0 1
    outer loop
      vertex -15 5 0.5
      vertex -13.5 4 0.5
      vertex 15 5 0.5
    endloop
  endfacet
  facet normal -0 0 1
    outer loop
      vertex 13.5 -4 0.5
      vertex 15 -5 0.5
      vertex 13.5 4 0.5
    endloop
  endfacet
  facet normal -0 0 1
    outer loop
      vertex -13.5 -4 0.5
      vertex 15 -5 0.5
      vertex 13.5 -4 0.5
    endloop
  endfacet
  facet normal 0 0 1
    outer loop
      vertex -13.5 -4 0.5
      vertex -15 -5 0.5
      vertex 15 -5 0.5
    endloop
  endfacet
  facet normal 0 0 1
    outer loop
      vertex -15 -5 0.5
      vertex -13.5 -4 0.5
      vertex -15 5 0.5
    endloop
  endfacet
  facet normal 0 0 -1
    outer loop
      vertex 15 -5 -0.5
      vertex 12 -2.5 -0.5
      vertex 15 5 -0.5
    endloop
  endfacet
  facet normal 0 0 -1
    outer loop
      vertex 15 -5 -0.5
      vertex -12 -2.5 -0.5
      vertex 12 -2.5 -0.5
    endloop
  endfacet
  facet normal -0 0 -1
    outer loop
      vertex -12 -2.5 -0.5
      vertex -15 -5 -0.5
      vertex -12 2.5 -0.5
    endloop
  endfacet
  facet normal 0 0 -1
    outer loop
      vertex -15 -5 -0.5
      vertex -12 -2.5 -0.5
      vertex 15 -5 -0.5
    endloop
  endfacet
  facet normal 0 0 -1
    outer loop
      vertex 12 2.5 -0.5
      vertex 15 5 -0.5
      vertex 12 -2.5 -0.5
    endloop
  endfacet
  facet normal 0 0 -1
    outer loop
      vertex -12 2.5 -0.5
      vertex 15 5 -0.5
      vertex 12 2.5 -0.5
    endloop
  endfacet
  facet normal 0 0 -1
    outer loop
      vertex -12 2.5 -0.5
      vertex -15 5 -0.5
      vertex 15 5 -0.5
    endloop
  endfacet
  facet normal 0 0 -1
    outer loop
      vertex -15 5 -0.5
      vertex -12 2.5 -0.5
      vertex -15 -5 -0.5
    endloop
  endfacet
  facet normal -1 0 0
    outer loop
      vertex -15 -5 -0.5
      vertex -15 5 0.5
      vertex -15 5 -0.5
    endloop
  endfacet
  facet normal -1 -0 0
    outer loop
      vertex -15 5 0.5
      vertex -15 -5 -0.5
      vertex -15 -5 0.5
    endloop
  endfacet
  facet normal 0 1 -0
    outer loop
      vertex 15 5 -0.5
      vertex -15 5 0.5
      vertex 15 5 0.5
    endloop
  endfacet
  facet normal 0 1 0
    outer loop
      vertex -15 5 0.5
      vertex 15 5 -0.5
      vertex -15 5 -0.5
    endloop
  endfacet
  facet normal 0 -1 0
    outer loop
      vertex -15 -5 -0.5
      vertex 15 -5 0.5
      vertex -15 -5 0.5
    endloop
  endfacet
  facet normal 0 -1 -0
    outer loop
      vertex 15 -5 0.5
      vertex -15 -5 -0.5
      vertex 15 -5 -0.5
    endloop
  endfacet
  facet normal -1 0 0
    outer loop
      vertex 13.5 -4 0
      vertex 13.5 4 0.5
      vertex 13.5 4 0
    endloop
  endfacet
  facet normal -1 -0 0
    outer loop
      vertex 13.5 4 0.5
      vertex 13.5 -4 0
      vertex 13.5 -4 0.5
    endloop
  endfacet
  facet normal 0 0 1
    outer loop
      vertex 13.5 4 0
      vertex 12 2.5 0
      vertex 13.5 -4 0
    endloop
  endfacet
  facet normal 0 0 1
    outer loop
      vertex 13.5 4 0
      vertex -12 2.5 0
      vertex 12 2.5 0
    endloop
  endfacet
  facet normal 0 0 1
    outer loop
      vertex -12 2.5 0
      vertex -13.5 4 0
      vertex -12 -2.5 0
    endloop
  endfacet
  facet normal -0 0 1
    outer loop
      vertex -13.5 4 0
      vertex -12 2.5 0
      vertex 13.5 4 0
    endloop
  endfacet
  facet normal -0 0 1
    outer loop
      vertex 12 -2.5 0
      vertex 13.5 -4 0
      vertex 12 2.5 0
    endloop
  endfacet
  facet normal -0 0 1
    outer loop
      vertex -12 -2.5 0
      vertex 13.5 -4 0
      vertex 12 -2.5 0
    endloop
  endfacet
  facet normal 0 0 1
    outer loop
      vertex -12 -2.5 0
      vertex -13.5 -4 0
      vertex 13.5 -4 0
    endloop
  endfacet
  facet normal 0 0 1
    outer loop
      vertex -13.5 -4 0
      vertex -12 -2.5 0
      vertex -13.5 4 0
    endloop
  endfacet
  facet normal 1 -0 0
    outer loop
      vertex -13.5 -4 0.5
      vertex -13.5 4 0
      vertex -13.5 4 0.5
    endloop
  endfacet
  facet normal 1 0 0
    outer loop
      vertex -13.5 4 0
      vertex -13.5 -4 0.5
      vertex -13.5 -4 0
    endloop
  endfacet
  facet normal 0 -1 0
    outer loop
      vertex -13.5 4 0
      vertex 13.5 4 0.5
      vertex -13.5 4 0.5
    endloop
  endfacet
  facet normal 0 -1 -0
    outer loop
      vertex 13.5 4 0.5
      vertex -13.5 4 0
      vertex 13.5 4 0
    endloop
  endfacet
  facet normal 0 1 -0
    outer loop
      vertex 13.5 -4 0
      vertex -13.5 -4 0.5
      vertex 13.5 -4 0.5
    endloop
  endfacet
  facet normal 0 1 0
    outer loop
      vertex -13.5 -4 0.5
      vertex 13.5 -4 0
      vertex -13.5 -4 0
    endloop
  endfacet
  facet normal -1 0 0
    outer loop
      vertex 12 -2.5 -0.5
      vertex 12 2.5 0
      vertex 12 2.5 -0.5
    endloop
  endfacet
  facet normal -1 -0 0
    outer loop
      vertex 12 2.5 0
      vertex 12 -2.5 -0.5
      vertex 12 -2.5 0
    endloop
  endfacet
  facet normal 1 -0 0
    outer loop
      vertex -12 -2.5 0
      vertex -12 2.5 -0.5
      vertex -12 2.5 0
    endloop
  endfacet
  facet normal 1 0 0
    outer loop
      vertex -12 2.5 -0.5
      vertex -12 -2.5 0
      vertex -12 -2.5 -0.5
    endloop
  endfacet
  facet normal 0 -1 0
    outer loop
      vertex -12 2.5 -0.5
      vertex 12 2.5 0
      vertex -12 2.5 0
    endloop
  endfacet
  facet normal 0 -1 -0
    outer loop
      vertex 12 2.5 0
      vertex -12 2.5 -0.5
      vertex 12 2.5 -0.5
    endloop
  endfacet
  facet normal 0 1 -0
    outer loop
      vertex 12 -2.5 -0.5
      vertex -12 -2.5 0
      vertex 12 -2.5 0
    endloop
  endfacet
  facet normal 0 1 0
    outer loop
      vertex -12 -2.5 0
      vertex 12 -2.5 -0.5
      vertex -12 -2.5 -0.5
    endloop
  endfacet
endsolid OpenSCAD_Model
