solid OpenSCAD_Model
  facet normal -0.368148 0.929767 0
    outer loop
      vertex -8.92705 10.8532 -1
      vertex -9.27734 10.7145 4
      vertex -8.92705 10.8532 4
    endloop
  endfacet
  facet normal -0.368148 0.929767 0
    outer loop
      vertex -9.27734 10.7145 4
      vertex -8.92705 10.8532 -1
      vertex -9.27734 10.7145 -1
    endloop
  endfacet
  facet normal -0.248707 -0.968579 0
    outer loop
      vertex -8.92705 -10.8532 -1
      vertex -8.56214 -10.9469 4
      vertex -8.92705 -10.8532 4
    endloop
  endfacet
  facet normal -0.248707 -0.968579 -0
    outer loop
      vertex -8.56214 -10.9469 4
      vertex -8.92705 -10.8532 -1
      vertex -8.56214 -10.9469 -1
    endloop
  endfacet
  facet normal -0.770393 -0.63757 0
    outer loop
      vertex -10.1869 -10.0536 -1
      vertex -10.4271 -9.76336 4
      vertex -10.4271 -9.76336 -1
    endloop
  endfacet
  facet normal -0.770393 -0.63757 0
    outer loop
      vertex -10.4271 -9.76336 4
      vertex -10.1869 -10.0536 -1
      vertex -10.1869 -10.0536 4
    endloop
  endfacet
  facet normal -0.982285 -0.187395 0
    outer loop
      vertex -10.9057 -8.74607 -1
      vertex -10.9763 -8.376 4
      vertex -10.9763 -8.376 -1
    endloop
  endfacet
  facet normal -0.982285 -0.187395 0
    outer loop
      vertex -10.9763 -8.376 4
      vertex -10.9057 -8.74607 -1
      vertex -10.9057 -8.74607 4
    endloop
  endfacet
  facet normal 1 -0 0
    outer loop
      vertex 11 -8 4
      vertex 11 8 -1
      vertex 11 8 4
    endloop
  endfacet
  facet normal 1 0 0
    outer loop
      vertex 11 8 -1
      vertex 11 -8 4
      vertex 11 -8 -1
    endloop
  endfacet
  facet normal -0.481762 -0.876302 0
    outer loop
      vertex -9.60748 -10.533 -1
      vertex -9.27734 -10.7145 4
      vertex -9.60748 -10.533 4
    endloop
  endfacet
  facet normal -0.481762 -0.876302 -0
    outer loop
      vertex -9.27734 -10.7145 4
      vertex -9.60748 -10.533 -1
      vertex -9.27734 -10.7145 -1
    endloop
  endfacet
  facet normal -0.684555 0.728962 0
    outer loop
      vertex -9.91227 10.3115 -1
      vertex -10.1869 10.0536 4
      vertex -9.91227 10.3115 4
    endloop
  endfacet
  facet normal -0.684555 0.728962 0
    outer loop
      vertex -10.1869 10.0536 4
      vertex -9.91227 10.3115 -1
      vertex -10.1869 10.0536 -1
    endloop
  endfacet
  facet normal 0.248707 -0.968579 0
    outer loop
      vertex 8.56214 -10.9469 -1
      vertex 8.92705 -10.8532 4
      vertex 8.56214 -10.9469 4
    endloop
  endfacet
  facet normal 0.248707 -0.968579 0
    outer loop
      vertex 8.92705 -10.8532 4
      vertex 8.56214 -10.9469 -1
      vertex 8.92705 -10.8532 -1
    endloop
  endfacet
  facet normal -0.998019 0.0629071 0
    outer loop
      vertex -11 8 -1
      vertex -10.9763 8.376 4
      vertex -10.9763 8.376 -1
    endloop
  endfacet
  facet normal -0.998019 0.0629071 0
    outer loop
      vertex -10.9763 8.376 4
      vertex -11 8 -1
      vertex -11 8 4
    endloop
  endfacet
  facet normal 0 -1 0
    outer loop
      vertex -8.18837 -10.9941 -1
      vertex 8.18837 -10.9941 4
      vertex -8.18837 -10.9941 4
    endloop
  endfacet
  facet normal 0 -1 -0
    outer loop
      vertex 8.18837 -10.9941 4
      vertex -8.18837 -10.9941 -1
      vertex 8.18837 -10.9941 -1
    endloop
  endfacet
  facet normal -1 0 0
    outer loop
      vertex -11 -8 -1
      vertex -11 8 4
      vertex -11 8 -1
    endloop
  endfacet
  facet normal -1 -0 0
    outer loop
      vertex -11 8 4
      vertex -11 -8 -1
      vertex -11 -8 4
    endloop
  endfacet
  facet normal -0.368148 -0.929767 0
    outer loop
      vertex -9.27734 -10.7145 -1
      vertex -8.92705 -10.8532 4
      vertex -9.27734 -10.7145 4
    endloop
  endfacet
  facet normal -0.368148 -0.929767 -0
    outer loop
      vertex -8.92705 -10.8532 4
      vertex -9.27734 -10.7145 -1
      vertex -8.92705 -10.8532 -1
    endloop
  endfacet
  facet normal -0.684555 -0.728962 0
    outer loop
      vertex -10.1869 -10.0536 -1
      vertex -9.91227 -10.3115 4
      vertex -10.1869 -10.0536 4
    endloop
  endfacet
  facet normal -0.684555 -0.728962 -0
    outer loop
      vertex -9.91227 -10.3115 4
      vertex -10.1869 -10.0536 -1
      vertex -9.91227 -10.3115 -1
    endloop
  endfacet
  facet normal -0.844415 0.53569 0
    outer loop
      vertex -10.6289 9.44526 -1
      vertex -10.4271 9.76336 4
      vertex -10.4271 9.76336 -1
    endloop
  endfacet
  facet normal -0.844415 0.53569 0
    outer loop
      vertex -10.4271 9.76336 4
      vertex -10.6289 9.44526 -1
      vertex -10.6289 9.44526 4
    endloop
  endfacet
  facet normal 0.998019 -0.0629071 0
    outer loop
      vertex 10.9763 -8.376 4
      vertex 11 -8 -1
      vertex 11 -8 4
    endloop
  endfacet
  facet normal 0.998019 -0.0629071 0
    outer loop
      vertex 11 -8 -1
      vertex 10.9763 -8.376 4
      vertex 10.9763 -8.376 -1
    endloop
  endfacet
  facet normal -0.982285 0.187395 0
    outer loop
      vertex -10.9763 8.376 -1
      vertex -10.9057 8.74607 4
      vertex -10.9057 8.74607 -1
    endloop
  endfacet
  facet normal -0.982285 0.187395 0
    outer loop
      vertex -10.9057 8.74607 4
      vertex -10.9763 8.376 -1
      vertex -10.9763 8.376 4
    endloop
  endfacet
  facet normal 0.844415 0.53569 0
    outer loop
      vertex 10.6289 9.44526 4
      vertex 10.4271 9.76336 -1
      vertex 10.4271 9.76336 4
    endloop
  endfacet
  facet normal 0.844415 0.53569 0
    outer loop
      vertex 10.4271 9.76336 -1
      vertex 10.6289 9.44526 4
      vertex 10.6289 9.44526 -1
    endloop
  endfacet
  facet normal 0.481762 -0.876302 0
    outer loop
      vertex 9.27734 -10.7145 -1
      vertex 9.60748 -10.533 4
      vertex 9.27734 -10.7145 4
    endloop
  endfacet
  facet normal 0.481762 -0.876302 0
    outer loop
      vertex 9.60748 -10.533 4
      vertex 9.27734 -10.7145 -1
      vertex 9.60748 -10.533 -1
    endloop
  endfacet
  facet normal 0 1 -0
    outer loop
      vertex 8.18837 10.9941 -1
      vertex -8.18837 10.9941 4
      vertex 8.18837 10.9941 4
    endloop
  endfacet
  facet normal 0 1 0
    outer loop
      vertex -8.18837 10.9941 4
      vertex 8.18837 10.9941 -1
      vertex -8.18837 10.9941 -1
    endloop
  endfacet
  facet normal 0.951071 0.308972 0
    outer loop
      vertex 10.9057 8.74607 4
      vertex 10.7893 9.10437 -1
      vertex 10.7893 9.10437 4
    endloop
  endfacet
  facet normal 0.951071 0.308972 0
    outer loop
      vertex 10.7893 9.10437 -1
      vertex 10.9057 8.74607 4
      vertex 10.9057 8.74607 -1
    endloop
  endfacet
  facet normal -0.587884 -0.808945 0
    outer loop
      vertex -9.91227 -10.3115 -1
      vertex -9.60748 -10.533 4
      vertex -9.91227 -10.3115 4
    endloop
  endfacet
  facet normal -0.587884 -0.808945 -0
    outer loop
      vertex -9.60748 -10.533 4
      vertex -9.91227 -10.3115 -1
      vertex -9.60748 -10.533 -1
    endloop
  endfacet
  facet normal 0 0 -1
    outer loop
      vertex 8.18837 -10.9941 -1
      vertex 11 -8 -1
      vertex 10.9763 -8.376 -1
    endloop
  endfacet
  facet normal 0 0 -1
    outer loop
      vertex -11 -8 -1
      vertex 11 -8 -1
      vertex 8.18837 -10.9941 -1
    endloop
  endfacet
  facet normal 0 0 -1
    outer loop
      vertex 8.18837 -10.9941 -1
      vertex 10.9763 -8.376 -1
      vertex 10.9057 -8.74607 -1
    endloop
  endfacet
  facet normal 0 0 -1
    outer loop
      vertex 11 -8 -1
      vertex -11 -8 -1
      vertex 11 8 -1
    endloop
  endfacet
  facet normal 0 0 -1
    outer loop
      vertex 8.18837 -10.9941 -1
      vertex 10.9057 -8.74607 -1
      vertex 10.7893 -9.10437 -1
    endloop
  endfacet
  facet normal 0 0 -1
    outer loop
      vertex 11 8 -1
      vertex 8.18837 10.9941 -1
      vertex 10.9763 8.376 -1
    endloop
  endfacet
  facet normal 0 0 -1
    outer loop
      vertex 8.18837 -10.9941 -1
      vertex 10.7893 -9.10437 -1
      vertex 10.6289 -9.44526 -1
    endloop
  endfacet
  facet normal 0 0 -1
    outer loop
      vertex 10.9763 8.376 -1
      vertex 8.18837 10.9941 -1
      vertex 10.9057 8.74607 -1
    endloop
  endfacet
  facet normal 0 0 -1
    outer loop
      vertex 8.18837 -10.9941 -1
      vertex 10.6289 -9.44526 -1
      vertex 10.4271 -9.76336 -1
    endloop
  endfacet
  facet normal 0 0 -1
    outer loop
      vertex 10.9057 8.74607 -1
      vertex 8.18837 10.9941 -1
      vertex 10.7893 9.10437 -1
    endloop
  endfacet
  facet normal 0 0 -1
    outer loop
      vertex 8.18837 -10.9941 -1
      vertex 10.4271 -9.76336 -1
      vertex 10.1869 -10.0536 -1
    endloop
  endfacet
  facet normal 0 0 -1
    outer loop
      vertex 10.7893 9.10437 -1
      vertex 8.18837 10.9941 -1
      vertex 10.6289 9.44526 -1
    endloop
  endfacet
  facet normal 0 0 -1
    outer loop
      vertex 8.18837 -10.9941 -1
      vertex 10.1869 -10.0536 -1
      vertex 9.91227 -10.3115 -1
    endloop
  endfacet
  facet normal 0 0 -1
    outer loop
      vertex 10.6289 9.44526 -1
      vertex 8.18837 10.9941 -1
      vertex 10.4271 9.76336 -1
    endloop
  endfacet
  facet normal 0 0 -1
    outer loop
      vertex 8.18837 -10.9941 -1
      vertex 9.91227 -10.3115 -1
      vertex 9.60748 -10.533 -1
    endloop
  endfacet
  facet normal 0 0 -1
    outer loop
      vertex 10.4271 9.76336 -1
      vertex 8.18837 10.9941 -1
      vertex 10.1869 10.0536 -1
    endloop
  endfacet
  facet normal 0 0 -1
    outer loop
      vertex 8.18837 -10.9941 -1
      vertex 9.60748 -10.533 -1
      vertex 9.27734 -10.7145 -1
    endloop
  endfacet
  facet normal 0 0 -1
    outer loop
      vertex 10.1869 10.0536 -1
      vertex 8.18837 10.9941 -1
      vertex 9.91227 10.3115 -1
    endloop
  endfacet
  facet normal 0 0 -1
    outer loop
      vertex 8.18837 -10.9941 -1
      vertex 9.27734 -10.7145 -1
      vertex 8.92705 -10.8532 -1
    endloop
  endfacet
  facet normal 0 0 -1
    outer loop
      vertex 9.91227 10.3115 -1
      vertex 8.18837 10.9941 -1
      vertex 9.60748 10.533 -1
    endloop
  endfacet
  facet normal 0 0 -1
    outer loop
      vertex 8.18837 -10.9941 -1
      vertex 8.92705 -10.8532 -1
      vertex 8.56214 -10.9469 -1
    endloop
  endfacet
  facet normal 0 0 -1
    outer loop
      vertex 9.60748 10.533 -1
      vertex 8.18837 10.9941 -1
      vertex 9.27734 10.7145 -1
    endloop
  endfacet
  facet normal 0 0 -1
    outer loop
      vertex 9.27734 10.7145 -1
      vertex 8.18837 10.9941 -1
      vertex 8.92705 10.8532 -1
    endloop
  endfacet
  facet normal 0 0 -1
    outer loop
      vertex 8.92705 10.8532 -1
      vertex 8.18837 10.9941 -1
      vertex 8.56214 10.9469 -1
    endloop
  endfacet
  facet normal 0 0 -1
    outer loop
      vertex -11 -8 -1
      vertex 8.18837 -10.9941 -1
      vertex -8.18837 -10.9941 -1
    endloop
  endfacet
  facet normal 0 0 -1
    outer loop
      vertex -11 8 -1
      vertex 11 8 -1
      vertex -11 -8 -1
    endloop
  endfacet
  facet normal 0 0 -1
    outer loop
      vertex -11 -8 -1
      vertex -8.18837 -10.9941 -1
      vertex -8.56214 -10.9469 -1
    endloop
  endfacet
  facet normal 0 0 -1
    outer loop
      vertex 11 8 -1
      vertex -11 8 -1
      vertex 8.18837 10.9941 -1
    endloop
  endfacet
  facet normal 0 0 -1
    outer loop
      vertex -11 -8 -1
      vertex -8.56214 -10.9469 -1
      vertex -8.92705 -10.8532 -1
    endloop
  endfacet
  facet normal -0 0 -1
    outer loop
      vertex 8.18837 10.9941 -1
      vertex -11 8 -1
      vertex -8.18837 10.9941 -1
    endloop
  endfacet
  facet normal 0 0 -1
    outer loop
      vertex -11 -8 -1
      vertex -8.92705 -10.8532 -1
      vertex -9.27734 -10.7145 -1
    endloop
  endfacet
  facet normal 0 0 -1
    outer loop
      vertex -8.18837 10.9941 -1
      vertex -11 8 -1
      vertex -8.56214 10.9469 -1
    endloop
  endfacet
  facet normal 0 0 -1
    outer loop
      vertex -11 -8 -1
      vertex -9.27734 -10.7145 -1
      vertex -9.60748 -10.533 -1
    endloop
  endfacet
  facet normal 0 0 -1
    outer loop
      vertex -8.56214 10.9469 -1
      vertex -11 8 -1
      vertex -8.92705 10.8532 -1
    endloop
  endfacet
  facet normal 0 0 -1
    outer loop
      vertex -11 -8 -1
      vertex -9.60748 -10.533 -1
      vertex -9.91227 -10.3115 -1
    endloop
  endfacet
  facet normal 0 0 -1
    outer loop
      vertex -8.92705 10.8532 -1
      vertex -11 8 -1
      vertex -9.27734 10.7145 -1
    endloop
  endfacet
  facet normal 0 0 -1
    outer loop
      vertex -11 -8 -1
      vertex -9.91227 -10.3115 -1
      vertex -10.1869 -10.0536 -1
    endloop
  endfacet
  facet normal 0 0 -1
    outer loop
      vertex -9.27734 10.7145 -1
      vertex -11 8 -1
      vertex -9.60748 10.533 -1
    endloop
  endfacet
  facet normal 0 0 -1
    outer loop
      vertex -11 -8 -1
      vertex -10.1869 -10.0536 -1
      vertex -10.4271 -9.76336 -1
    endloop
  endfacet
  facet normal 0 0 -1
    outer loop
      vertex -9.60748 10.533 -1
      vertex -11 8 -1
      vertex -9.91227 10.3115 -1
    endloop
  endfacet
  facet normal 0 0 -1
    outer loop
      vertex -11 -8 -1
      vertex -10.4271 -9.76336 -1
      vertex -10.6289 -9.44526 -1
    endloop
  endfacet
  facet normal 0 0 -1
    outer loop
      vertex -9.91227 10.3115 -1
      vertex -11 8 -1
      vertex -10.1869 10.0536 -1
    endloop
  endfacet
  facet normal 0 0 -1
    outer loop
      vertex -11 -8 -1
      vertex -10.6289 -9.44526 -1
      vertex -10.7893 -9.10437 -1
    endloop
  endfacet
  facet normal 0 0 -1
    outer loop
      vertex -10.1869 10.0536 -1
      vertex -11 8 -1
      vertex -10.4271 9.76336 -1
    endloop
  endfacet
  facet normal 0 0 -1
    outer loop
      vertex -11 -8 -1
      vertex -10.7893 -9.10437 -1
      vertex -10.9057 -8.74607 -1
    endloop
  endfacet
  facet normal 0 0 -1
    outer loop
      vertex -10.4271 9.76336 -1
      vertex -11 8 -1
      vertex -10.6289 9.44526 -1
    endloop
  endfacet
  facet normal 0 0 -1
    outer loop
      vertex -11 -8 -1
      vertex -10.9057 -8.74607 -1
      vertex -10.9763 -8.376 -1
    endloop
  endfacet
  facet normal 0 0 -1
    outer loop
      vertex -10.6289 9.44526 -1
      vertex -11 8 -1
      vertex -10.7893 9.10437 -1
    endloop
  endfacet
  facet normal 0 0 -1
    outer loop
      vertex -10.7893 9.10437 -1
      vertex -11 8 -1
      vertex -10.9057 8.74607 -1
    endloop
  endfacet
  facet normal 0 0 -1
    outer loop
      vertex -10.9057 8.74607 -1
      vertex -11 8 -1
      vertex -10.9763 8.376 -1
    endloop
  endfacet
  facet normal 0.684555 -0.728962 0
    outer loop
      vertex 9.91227 -10.3115 -1
      vertex 10.1869 -10.0536 4
      vertex 9.91227 -10.3115 4
    endloop
  endfacet
  facet normal 0.684555 -0.728962 0
    outer loop
      vertex 10.1869 -10.0536 4
      vertex 9.91227 -10.3115 -1
      vertex 10.1869 -10.0536 -1
    endloop
  endfacet
  facet normal 0.368148 -0.929767 0
    outer loop
      vertex 8.92705 -10.8532 -1
      vertex 9.27734 -10.7145 4
      vertex 8.92705 -10.8532 4
    endloop
  endfacet
  facet normal 0.368148 -0.929767 0
    outer loop
      vertex 9.27734 -10.7145 4
      vertex 8.92705 -10.8532 -1
      vertex 9.27734 -10.7145 -1
    endloop
  endfacet
  facet normal 0.770393 0.63757 0
    outer loop
      vertex 10.4271 9.76336 4
      vertex 10.1869 10.0536 -1
      vertex 10.1869 10.0536 4
    endloop
  endfacet
  facet normal 0.770393 0.63757 0
    outer loop
      vertex 10.1869 10.0536 -1
      vertex 10.4271 9.76336 4
      vertex 10.4271 9.76336 -1
    endloop
  endfacet
  facet normal 0.481762 0.876302 -0
    outer loop
      vertex 9.60748 10.533 -1
      vertex 9.27734 10.7145 4
      vertex 9.60748 10.533 4
    endloop
  endfacet
  facet normal 0.481762 0.876302 0
    outer loop
      vertex 9.27734 10.7145 4
      vertex 9.60748 10.533 -1
      vertex 9.27734 10.7145 -1
    endloop
  endfacet
  facet normal 0.904838 -0.425756 0
    outer loop
      vertex 10.6289 -9.44526 4
      vertex 10.7893 -9.10437 -1
      vertex 10.7893 -9.10437 4
    endloop
  endfacet
  facet normal 0.904838 -0.425756 0
    outer loop
      vertex 10.7893 -9.10437 -1
      vertex 10.6289 -9.44526 4
      vertex 10.6289 -9.44526 -1
    endloop
  endfacet
  facet normal -0.125286 -0.992121 0
    outer loop
      vertex -8.56214 -10.9469 -1
      vertex -8.18837 -10.9941 4
      vertex -8.56214 -10.9469 4
    endloop
  endfacet
  facet normal -0.125286 -0.992121 -0
    outer loop
      vertex -8.18837 -10.9941 4
      vertex -8.56214 -10.9469 -1
      vertex -8.18837 -10.9941 -1
    endloop
  endfacet
  facet normal 0.587884 0.808945 -0
    outer loop
      vertex 9.91227 10.3115 -1
      vertex 9.60748 10.533 4
      vertex 9.91227 10.3115 4
    endloop
  endfacet
  facet normal 0.587884 0.808945 0
    outer loop
      vertex 9.60748 10.533 4
      vertex 9.91227 10.3115 -1
      vertex 9.60748 10.533 -1
    endloop
  endfacet
  facet normal 0.998019 0.0629071 0
    outer loop
      vertex 11 8 4
      vertex 10.9763 8.376 -1
      vertex 10.9763 8.376 4
    endloop
  endfacet
  facet normal 0.998019 0.0629071 0
    outer loop
      vertex 10.9763 8.376 -1
      vertex 11 8 4
      vertex 11 8 -1
    endloop
  endfacet
  facet normal 0.982285 -0.187395 0
    outer loop
      vertex 10.9057 -8.74607 4
      vertex 10.9763 -8.376 -1
      vertex 10.9763 -8.376 4
    endloop
  endfacet
  facet normal 0.982285 -0.187395 0
    outer loop
      vertex 10.9763 -8.376 -1
      vertex 10.9057 -8.74607 4
      vertex 10.9057 -8.74607 -1
    endloop
  endfacet
  facet normal 0.951071 -0.308972 0
    outer loop
      vertex 10.7893 -9.10437 4
      vertex 10.9057 -8.74607 -1
      vertex 10.9057 -8.74607 4
    endloop
  endfacet
  facet normal 0.951071 -0.308972 0
    outer loop
      vertex 10.9057 -8.74607 -1
      vertex 10.7893 -9.10437 4
      vertex 10.7893 -9.10437 -1
    endloop
  endfacet
  facet normal -0.904838 0.425756 0
    outer loop
      vertex -10.7893 9.10437 -1
      vertex -10.6289 9.44526 4
      vertex -10.6289 9.44526 -1
    endloop
  endfacet
  facet normal -0.904838 0.425756 0
    outer loop
      vertex -10.6289 9.44526 4
      vertex -10.7893 9.10437 -1
      vertex -10.7893 9.10437 4
    endloop
  endfacet
  facet normal -0.844415 -0.53569 0
    outer loop
      vertex -10.4271 -9.76336 -1
      vertex -10.6289 -9.44526 4
      vertex -10.6289 -9.44526 -1
    endloop
  endfacet
  facet normal -0.844415 -0.53569 0
    outer loop
      vertex -10.6289 -9.44526 4
      vertex -10.4271 -9.76336 -1
      vertex -10.4271 -9.76336 4
    endloop
  endfacet
  facet normal -0.998019 -0.0629071 0
    outer loop
      vertex -10.9763 -8.376 -1
      vertex -11 -8 4
      vertex -11 -8 -1
    endloop
  endfacet
  facet normal -0.998019 -0.0629071 0
    outer loop
      vertex -11 -8 4
      vertex -10.9763 -8.376 -1
      vertex -10.9763 -8.376 4
    endloop
  endfacet
  facet normal 0.587884 -0.808945 0
    outer loop
      vertex 9.60748 -10.533 -1
      vertex 9.91227 -10.3115 4
      vertex 9.60748 -10.533 4
    endloop
  endfacet
  facet normal 0.587884 -0.808945 0
    outer loop
      vertex 9.91227 -10.3115 4
      vertex 9.60748 -10.533 -1
      vertex 9.91227 -10.3115 -1
    endloop
  endfacet
  facet normal -0.951071 -0.308972 0
    outer loop
      vertex -10.7893 -9.10437 -1
      vertex -10.9057 -8.74607 4
      vertex -10.9057 -8.74607 -1
    endloop
  endfacet
  facet normal -0.951071 -0.308972 0
    outer loop
      vertex -10.9057 -8.74607 4
      vertex -10.7893 -9.10437 -1
      vertex -10.7893 -9.10437 4
    endloop
  endfacet
  facet normal -0.248707 0.968579 0
    outer loop
      vertex -8.56214 10.9469 -1
      vertex -8.92705 10.8532 4
      vertex -8.56214 10.9469 4
    endloop
  endfacet
  facet normal -0.248707 0.968579 0
    outer loop
      vertex -8.92705 10.8532 4
      vertex -8.56214 10.9469 -1
      vertex -8.92705 10.8532 -1
    endloop
  endfacet
  facet normal -0.951071 0.308972 0
    outer loop
      vertex -10.9057 8.74607 -1
      vertex -10.7893 9.10437 4
      vertex -10.7893 9.10437 -1
    endloop
  endfacet
  facet normal -0.951071 0.308972 0
    outer loop
      vertex -10.7893 9.10437 4
      vertex -10.9057 8.74607 -1
      vertex -10.9057 8.74607 4
    endloop
  endfacet
  facet normal 0.125286 0.992121 -0
    outer loop
      vertex 8.56214 10.9469 -1
      vertex 8.18837 10.9941 4
      vertex 8.56214 10.9469 4
    endloop
  endfacet
  facet normal 0.125286 0.992121 0
    outer loop
      vertex 8.18837 10.9941 4
      vertex 8.56214 10.9469 -1
      vertex 8.18837 10.9941 -1
    endloop
  endfacet
  facet normal -0.587884 0.808945 0
    outer loop
      vertex -9.60748 10.533 -1
      vertex -9.91227 10.3115 4
      vertex -9.60748 10.533 4
    endloop
  endfacet
  facet normal -0.587884 0.808945 0
    outer loop
      vertex -9.91227 10.3115 4
      vertex -9.60748 10.533 -1
      vertex -9.91227 10.3115 -1
    endloop
  endfacet
  facet normal -0.481762 0.876302 0
    outer loop
      vertex -9.27734 10.7145 -1
      vertex -9.60748 10.533 4
      vertex -9.27734 10.7145 4
    endloop
  endfacet
  facet normal -0.481762 0.876302 0
    outer loop
      vertex -9.60748 10.533 4
      vertex -9.27734 10.7145 -1
      vertex -9.60748 10.533 -1
    endloop
  endfacet
  facet normal -0.770393 0.63757 0
    outer loop
      vertex -10.4271 9.76336 -1
      vertex -10.1869 10.0536 4
      vertex -10.1869 10.0536 -1
    endloop
  endfacet
  facet normal -0.770393 0.63757 0
    outer loop
      vertex -10.1869 10.0536 4
      vertex -10.4271 9.76336 -1
      vertex -10.4271 9.76336 4
    endloop
  endfacet
  facet normal 0.904838 0.425756 0
    outer loop
      vertex 10.7893 9.10437 4
      vertex 10.6289 9.44526 -1
      vertex 10.6289 9.44526 4
    endloop
  endfacet
  facet normal 0.904838 0.425756 0
    outer loop
      vertex 10.6289 9.44526 -1
      vertex 10.7893 9.10437 4
      vertex 10.7893 9.10437 -1
    endloop
  endfacet
  facet normal -0.904838 -0.425756 0
    outer loop
      vertex -10.6289 -9.44526 -1
      vertex -10.7893 -9.10437 4
      vertex -10.7893 -9.10437 -1
    endloop
  endfacet
  facet normal -0.904838 -0.425756 0
    outer loop
      vertex -10.7893 -9.10437 4
      vertex -10.6289 -9.44526 -1
      vertex -10.6289 -9.44526 4
    endloop
  endfacet
  facet normal -0.125286 0.992121 0
    outer loop
      vertex -8.18837 10.9941 -1
      vertex -8.56214 10.9469 4
      vertex -8.18837 10.9941 4
    endloop
  endfacet
  facet normal -0.125286 0.992121 0
    outer loop
      vertex -8.56214 10.9469 4
      vertex -8.18837 10.9941 -1
      vertex -8.56214 10.9469 -1
    endloop
  endfacet
  facet normal 0.844415 -0.53569 0
    outer loop
      vertex 10.4271 -9.76336 4
      vertex 10.6289 -9.44526 -1
      vertex 10.6289 -9.44526 4
    endloop
  endfacet
  facet normal 0.844415 -0.53569 0
    outer loop
      vertex 10.6289 -9.44526 -1
      vertex 10.4271 -9.76336 4
      vertex 10.4271 -9.76336 -1
    endloop
  endfacet
  facet normal 0.125286 -0.992121 0
    outer loop
      vertex 8.18837 -10.9941 -1
      vertex 8.56214 -10.9469 4
      vertex 8.18837 -10.9941 4
    endloop
  endfacet
  facet normal 0.125286 -0.992121 0
    outer loop
      vertex 8.56214 -10.9469 4
      vertex 8.18837 -10.9941 -1
      vertex 8.56214 -10.9469 -1
    endloop
  endfacet
  facet normal 0.368148 0.929767 -0
    outer loop
      vertex 9.27734 10.7145 -1
      vertex 8.92705 10.8532 4
      vertex 9.27734 10.7145 4
    endloop
  endfacet
  facet normal 0.368148 0.929767 0
    outer loop
      vertex 8.92705 10.8532 4
      vertex 9.27734 10.7145 -1
      vertex 8.92705 10.8532 -1
    endloop
  endfacet
  facet normal 0.770393 -0.63757 0
    outer loop
      vertex 10.1869 -10.0536 4
      vertex 10.4271 -9.76336 -1
      vertex 10.4271 -9.76336 4
    endloop
  endfacet
  facet normal 0.770393 -0.63757 0
    outer loop
      vertex 10.4271 -9.76336 -1
      vertex 10.1869 -10.0536 4
      vertex 10.1869 -10.0536 -1
    endloop
  endfacet
  facet normal 0.684555 0.728962 -0
    outer loop
      vertex 10.1869 10.0536 -1
      vertex 9.91227 10.3115 4
      vertex 10.1869 10.0536 4
    endloop
  endfacet
  facet normal 0.684555 0.728962 0
    outer loop
      vertex 9.91227 10.3115 4
      vertex 10.1869 10.0536 -1
      vertex 9.91227 10.3115 -1
    endloop
  endfacet
  facet normal 0.982285 0.187395 0
    outer loop
      vertex 10.9763 8.376 4
      vertex 10.9057 8.74607 -1
      vertex 10.9057 8.74607 4
    endloop
  endfacet
  facet normal 0.982285 0.187395 0
    outer loop
      vertex 10.9057 8.74607 -1
      vertex 10.9763 8.376 4
      vertex 10.9763 8.376 -1
    endloop
  endfacet
  facet normal 0 0 1
    outer loop
      vertex 8.18837 10.9941 4
      vertex 11 8 4
      vertex 10.9763 8.376 4
    endloop
  endfacet
  facet normal 0 0 1
    outer loop
      vertex 11 8 4
      vertex 2.5 0 4
      vertex 11 -8 4
    endloop
  endfacet
  facet normal 0 0 1
    outer loop
      vertex 8.18837 10.9941 4
      vertex 10.9763 8.376 4
      vertex 10.9057 8.74607 4
    endloop
  endfacet
  facet normal -0 0 1
    outer loop
      vertex 2.48029 -0.313333 4
      vertex 11 -8 4
      vertex 2.5 0 4
    endloop
  endfacet
  facet normal 0 0 1
    outer loop
      vertex 8.18837 10.9941 4
      vertex 10.9057 8.74607 4
      vertex 10.7893 9.10437 4
    endloop
  endfacet
  facet normal -0 0 1
    outer loop
      vertex 2.42146 -0.621724 4
      vertex 11 -8 4
      vertex 2.48029 -0.313333 4
    endloop
  endfacet
  facet normal 0 0 1
    outer loop
      vertex 8.18837 10.9941 4
      vertex 10.7893 9.10437 4
      vertex 10.6289 9.44526 4
    endloop
  endfacet
  facet normal -0 0 1
    outer loop
      vertex 2.32444 -0.920311 4
      vertex 11 -8 4
      vertex 2.42146 -0.621724 4
    endloop
  endfacet
  facet normal 0 0 1
    outer loop
      vertex 8.18837 10.9941 4
      vertex 10.6289 9.44526 4
      vertex 10.4271 9.76336 4
    endloop
  endfacet
  facet normal -0 0 1
    outer loop
      vertex 2.19077 -1.20438 4
      vertex 11 -8 4
      vertex 2.32444 -0.920311 4
    endloop
  endfacet
  facet normal 0 0 1
    outer loop
      vertex 8.18837 10.9941 4
      vertex 10.4271 9.76336 4
      vertex 10.1869 10.0536 4
    endloop
  endfacet
  facet normal -0 0 1
    outer loop
      vertex 2.02254 -1.46946 4
      vertex 11 -8 4
      vertex 2.19077 -1.20438 4
    endloop
  endfacet
  facet normal 0 0 1
    outer loop
      vertex 8.18837 10.9941 4
      vertex 10.1869 10.0536 4
      vertex 9.91227 10.3115 4
    endloop
  endfacet
  facet normal -0 0 1
    outer loop
      vertex 1.82242 -1.71137 4
      vertex 11 -8 4
      vertex 2.02254 -1.46946 4
    endloop
  endfacet
  facet normal 0 0 1
    outer loop
      vertex 8.18837 10.9941 4
      vertex 9.91227 10.3115 4
      vertex 9.60748 10.533 4
    endloop
  endfacet
  facet normal 0 -0 1
    outer loop
      vertex 8.18837 -10.9941 4
      vertex 11 -8 4
      vertex 1.82242 -1.71137 4
    endloop
  endfacet
  facet normal 0 0 1
    outer loop
      vertex 8.18837 10.9941 4
      vertex 9.60748 10.533 4
      vertex 9.27734 10.7145 4
    endloop
  endfacet
  facet normal 0 0 1
    outer loop
      vertex 11 -8 4
      vertex 8.18837 -10.9941 4
      vertex 10.9763 -8.376 4
    endloop
  endfacet
  facet normal 0 0 1
    outer loop
      vertex 8.18837 10.9941 4
      vertex 9.27734 10.7145 4
      vertex 8.92705 10.8532 4
    endloop
  endfacet
  facet normal 0 0 1
    outer loop
      vertex 10.9763 -8.376 4
      vertex 8.18837 -10.9941 4
      vertex 10.9057 -8.74607 4
    endloop
  endfacet
  facet normal 0 0 1
    outer loop
      vertex 8.18837 10.9941 4
      vertex 8.92705 10.8532 4
      vertex 8.56214 10.9469 4
    endloop
  endfacet
  facet normal 0 0 1
    outer loop
      vertex 10.9057 -8.74607 4
      vertex 8.18837 -10.9941 4
      vertex 10.7893 -9.10437 4
    endloop
  endfacet
  facet normal 0 0 1
    outer loop
      vertex 11 8 4
      vertex 8.18837 10.9941 4
      vertex 1.82242 1.71137 4
    endloop
  endfacet
  facet normal 0 0 1
    outer loop
      vertex 10.6289 -9.44526 4
      vertex 8.18837 -10.9941 4
      vertex 10.4271 -9.76336 4
    endloop
  endfacet
  facet normal 0 0 1
    outer loop
      vertex 10.4271 -9.76336 4
      vertex 8.18837 -10.9941 4
      vertex 10.1869 -10.0536 4
    endloop
  endfacet
  facet normal 0 0 1
    outer loop
      vertex 11 8 4
      vertex 2.48029 0.313333 4
      vertex 2.5 0 4
    endloop
  endfacet
  facet normal 0 0 1
    outer loop
      vertex 11 8 4
      vertex 2.42146 0.621724 4
      vertex 2.48029 0.313333 4
    endloop
  endfacet
  facet normal 0 0 1
    outer loop
      vertex 11 8 4
      vertex 2.32444 0.920311 4
      vertex 2.42146 0.621724 4
    endloop
  endfacet
  facet normal 0 0 1
    outer loop
      vertex 11 8 4
      vertex 2.19077 1.20438 4
      vertex 2.32444 0.920311 4
    endloop
  endfacet
  facet normal 0 0 1
    outer loop
      vertex 11 8 4
      vertex 2.02254 1.46946 4
      vertex 2.19077 1.20438 4
    endloop
  endfacet
  facet normal 0 0 1
    outer loop
      vertex 11 8 4
      vertex 1.82242 1.71137 4
      vertex 2.02254 1.46946 4
    endloop
  endfacet
  facet normal 0 0 1
    outer loop
      vertex 8.18837 10.9941 4
      vertex 1.59356 1.92628 4
      vertex 1.82242 1.71137 4
    endloop
  endfacet
  facet normal 0 0 1
    outer loop
      vertex 8.18837 10.9941 4
      vertex 1.33957 2.11082 4
      vertex 1.59356 1.92628 4
    endloop
  endfacet
  facet normal 0 0 1
    outer loop
      vertex 8.18837 10.9941 4
      vertex 1.06445 2.26207 4
      vertex 1.33957 2.11082 4
    endloop
  endfacet
  facet normal 0 0 1
    outer loop
      vertex 8.18837 10.9941 4
      vertex 0.772542 2.37764 4
      vertex 1.06445 2.26207 4
    endloop
  endfacet
  facet normal 0 0 1
    outer loop
      vertex 8.18837 10.9941 4
      vertex 0.468452 2.45572 4
      vertex 0.772542 2.37764 4
    endloop
  endfacet
  facet normal 0 0 1
    outer loop
      vertex 8.18837 10.9941 4
      vertex 0.156976 2.49507 4
      vertex 0.468452 2.45572 4
    endloop
  endfacet
  facet normal 0 0 1
    outer loop
      vertex 8.18837 10.9941 4
      vertex -0.156976 2.49507 4
      vertex 0.156976 2.49507 4
    endloop
  endfacet
  facet normal -0 0 1
    outer loop
      vertex -8.18837 10.9941 4
      vertex -0.156976 2.49507 4
      vertex 8.18837 10.9941 4
    endloop
  endfacet
  facet normal 0 0 1
    outer loop
      vertex -0.156976 2.49507 4
      vertex -8.18837 10.9941 4
      vertex -0.468452 2.45572 4
    endloop
  endfacet
  facet normal 0 0 1
    outer loop
      vertex -0.468452 2.45572 4
      vertex -8.18837 10.9941 4
      vertex -0.772542 2.37764 4
    endloop
  endfacet
  facet normal 0 0 1
    outer loop
      vertex -0.772542 2.37764 4
      vertex -8.18837 10.9941 4
      vertex -1.06445 2.26207 4
    endloop
  endfacet
  facet normal 0 0 1
    outer loop
      vertex -1.06445 2.26207 4
      vertex -8.18837 10.9941 4
      vertex -1.33957 2.11082 4
    endloop
  endfacet
  facet normal 0 0 1
    outer loop
      vertex -2.42146 0.621724 4
      vertex -11 8 4
      vertex -2.48029 0.313333 4
    endloop
  endfacet
  facet normal 0 0 1
    outer loop
      vertex -2.32444 0.920311 4
      vertex -11 8 4
      vertex -2.42146 0.621724 4
    endloop
  endfacet
  facet normal 0 0 1
    outer loop
      vertex -2.19077 1.20438 4
      vertex -11 8 4
      vertex -2.32444 0.920311 4
    endloop
  endfacet
  facet normal 0 0 1
    outer loop
      vertex -2.02254 1.46946 4
      vertex -11 8 4
      vertex -2.19077 1.20438 4
    endloop
  endfacet
  facet normal 0 0 1
    outer loop
      vertex -1.82242 1.71137 4
      vertex -11 8 4
      vertex -2.02254 1.46946 4
    endloop
  endfacet
  facet normal -0 0 1
    outer loop
      vertex -11 8 4
      vertex -1.82242 1.71137 4
      vertex -8.18837 10.9941 4
    endloop
  endfacet
  facet normal 0 0 1
    outer loop
      vertex -1.59356 1.92628 4
      vertex -8.18837 10.9941 4
      vertex -1.82242 1.71137 4
    endloop
  endfacet
  facet normal 0 0 1
    outer loop
      vertex -1.33957 2.11082 4
      vertex -8.18837 10.9941 4
      vertex -1.59356 1.92628 4
    endloop
  endfacet
  facet normal 0 0 1
    outer loop
      vertex 10.1869 -10.0536 4
      vertex 8.18837 -10.9941 4
      vertex 9.91227 -10.3115 4
    endloop
  endfacet
  facet normal 0 0 1
    outer loop
      vertex 9.91227 -10.3115 4
      vertex 8.18837 -10.9941 4
      vertex 9.60748 -10.533 4
    endloop
  endfacet
  facet normal 0 0 1
    outer loop
      vertex 9.27734 -10.7145 4
      vertex 8.18837 -10.9941 4
      vertex 8.92705 -10.8532 4
    endloop
  endfacet
  facet normal 0 0 1
    outer loop
      vertex 8.92705 -10.8532 4
      vertex 8.18837 -10.9941 4
      vertex 8.56214 -10.9469 4
    endloop
  endfacet
  facet normal 0 0 1
    outer loop
      vertex 9.60748 -10.533 4
      vertex 8.18837 -10.9941 4
      vertex 9.27734 -10.7145 4
    endloop
  endfacet
  facet normal 0 0 1
    outer loop
      vertex 10.7893 -9.10437 4
      vertex 8.18837 -10.9941 4
      vertex 10.6289 -9.44526 4
    endloop
  endfacet
  facet normal -0 0 1
    outer loop
      vertex 1.59356 -1.92628 4
      vertex 8.18837 -10.9941 4
      vertex 1.82242 -1.71137 4
    endloop
  endfacet
  facet normal -0 0 1
    outer loop
      vertex 1.33957 -2.11082 4
      vertex 8.18837 -10.9941 4
      vertex 1.59356 -1.92628 4
    endloop
  endfacet
  facet normal -0 0 1
    outer loop
      vertex 1.06445 -2.26207 4
      vertex 8.18837 -10.9941 4
      vertex 1.33957 -2.11082 4
    endloop
  endfacet
  facet normal -0 0 1
    outer loop
      vertex 0.772542 -2.37764 4
      vertex 8.18837 -10.9941 4
      vertex 1.06445 -2.26207 4
    endloop
  endfacet
  facet normal -0 0 1
    outer loop
      vertex 0.468452 -2.45572 4
      vertex 8.18837 -10.9941 4
      vertex 0.772542 -2.37764 4
    endloop
  endfacet
  facet normal -0 0 1
    outer loop
      vertex 0.156976 -2.49507 4
      vertex 8.18837 -10.9941 4
      vertex 0.468452 -2.45572 4
    endloop
  endfacet
  facet normal -0 0 1
    outer loop
      vertex -0.156976 -2.49507 4
      vertex 8.18837 -10.9941 4
      vertex 0.156976 -2.49507 4
    endloop
  endfacet
  facet normal 0 0 1
    outer loop
      vertex -8.18837 -10.9941 4
      vertex -0.156976 -2.49507 4
      vertex -0.468452 -2.45572 4
    endloop
  endfacet
  facet normal 0 0 1
    outer loop
      vertex -8.18837 -10.9941 4
      vertex -0.468452 -2.45572 4
      vertex -0.772542 -2.37764 4
    endloop
  endfacet
  facet normal 0 0 1
    outer loop
      vertex -8.18837 -10.9941 4
      vertex -0.772542 -2.37764 4
      vertex -1.06445 -2.26207 4
    endloop
  endfacet
  facet normal 0 0 1
    outer loop
      vertex -8.18837 -10.9941 4
      vertex -1.06445 -2.26207 4
      vertex -1.33957 -2.11082 4
    endloop
  endfacet
  facet normal 0 0 1
    outer loop
      vertex -8.18837 -10.9941 4
      vertex -1.33957 -2.11082 4
      vertex -1.59356 -1.92628 4
    endloop
  endfacet
  facet normal 0 0 1
    outer loop
      vertex -2.48029 0.313333 4
      vertex -11 8 4
      vertex -2.5 0 4
    endloop
  endfacet
  facet normal 0 0 1
    outer loop
      vertex -11 -8 4
      vertex -2.5 0 4
      vertex -11 8 4
    endloop
  endfacet
  facet normal 0 0 1
    outer loop
      vertex -2.5 0 4
      vertex -11 -8 4
      vertex -2.48029 -0.313333 4
    endloop
  endfacet
  facet normal 0 0 1
    outer loop
      vertex -2.48029 -0.313333 4
      vertex -11 -8 4
      vertex -2.42146 -0.621724 4
    endloop
  endfacet
  facet normal 0 0 1
    outer loop
      vertex -0.156976 -2.49507 4
      vertex -8.18837 -10.9941 4
      vertex 8.18837 -10.9941 4
    endloop
  endfacet
  facet normal 0 0 1
    outer loop
      vertex -1.82242 -1.71137 4
      vertex -8.18837 -10.9941 4
      vertex -1.59356 -1.92628 4
    endloop
  endfacet
  facet normal 0 0 1
    outer loop
      vertex -11 -8 4
      vertex -1.82242 -1.71137 4
      vertex -2.02254 -1.46946 4
    endloop
  endfacet
  facet normal 0 0 1
    outer loop
      vertex -11 -8 4
      vertex -2.02254 -1.46946 4
      vertex -2.19077 -1.20438 4
    endloop
  endfacet
  facet normal 0 0 1
    outer loop
      vertex -2.42146 -0.621724 4
      vertex -11 -8 4
      vertex -2.32444 -0.920311 4
    endloop
  endfacet
  facet normal 0 0 1
    outer loop
      vertex -11 8 4
      vertex -8.18837 10.9941 4
      vertex -8.56214 10.9469 4
    endloop
  endfacet
  facet normal 0 0 1
    outer loop
      vertex -2.32444 -0.920311 4
      vertex -11 -8 4
      vertex -2.19077 -1.20438 4
    endloop
  endfacet
  facet normal 0 0 1
    outer loop
      vertex -11 8 4
      vertex -8.56214 10.9469 4
      vertex -8.92705 10.8532 4
    endloop
  endfacet
  facet normal 0 0 1
    outer loop
      vertex -1.82242 -1.71137 4
      vertex -11 -8 4
      vertex -8.18837 -10.9941 4
    endloop
  endfacet
  facet normal 0 0 1
    outer loop
      vertex -11 8 4
      vertex -8.92705 10.8532 4
      vertex -9.27734 10.7145 4
    endloop
  endfacet
  facet normal 0 0 1
    outer loop
      vertex -8.18837 -10.9941 4
      vertex -11 -8 4
      vertex -8.56214 -10.9469 4
    endloop
  endfacet
  facet normal 0 0 1
    outer loop
      vertex -11 8 4
      vertex -9.27734 10.7145 4
      vertex -9.60748 10.533 4
    endloop
  endfacet
  facet normal 0 0 1
    outer loop
      vertex -8.56214 -10.9469 4
      vertex -11 -8 4
      vertex -8.92705 -10.8532 4
    endloop
  endfacet
  facet normal 0 0 1
    outer loop
      vertex -11 8 4
      vertex -9.60748 10.533 4
      vertex -9.91227 10.3115 4
    endloop
  endfacet
  facet normal 0 0 1
    outer loop
      vertex -8.92705 -10.8532 4
      vertex -11 -8 4
      vertex -9.27734 -10.7145 4
    endloop
  endfacet
  facet normal 0 0 1
    outer loop
      vertex -11 8 4
      vertex -9.91227 10.3115 4
      vertex -10.1869 10.0536 4
    endloop
  endfacet
  facet normal 0 0 1
    outer loop
      vertex -9.27734 -10.7145 4
      vertex -11 -8 4
      vertex -9.60748 -10.533 4
    endloop
  endfacet
  facet normal 0 0 1
    outer loop
      vertex -11 8 4
      vertex -10.1869 10.0536 4
      vertex -10.4271 9.76336 4
    endloop
  endfacet
  facet normal 0 0 1
    outer loop
      vertex -9.60748 -10.533 4
      vertex -11 -8 4
      vertex -9.91227 -10.3115 4
    endloop
  endfacet
  facet normal 0 0 1
    outer loop
      vertex -11 8 4
      vertex -10.4271 9.76336 4
      vertex -10.6289 9.44526 4
    endloop
  endfacet
  facet normal 0 0 1
    outer loop
      vertex -9.91227 -10.3115 4
      vertex -11 -8 4
      vertex -10.1869 -10.0536 4
    endloop
  endfacet
  facet normal 0 0 1
    outer loop
      vertex -11 8 4
      vertex -10.6289 9.44526 4
      vertex -10.7893 9.10437 4
    endloop
  endfacet
  facet normal 0 0 1
    outer loop
      vertex -10.1869 -10.0536 4
      vertex -11 -8 4
      vertex -10.4271 -9.76336 4
    endloop
  endfacet
  facet normal 0 0 1
    outer loop
      vertex -11 8 4
      vertex -10.7893 9.10437 4
      vertex -10.9057 8.74607 4
    endloop
  endfacet
  facet normal 0 0 1
    outer loop
      vertex -10.4271 -9.76336 4
      vertex -11 -8 4
      vertex -10.6289 -9.44526 4
    endloop
  endfacet
  facet normal 0 0 1
    outer loop
      vertex -11 8 4
      vertex -10.9057 8.74607 4
      vertex -10.9763 8.376 4
    endloop
  endfacet
  facet normal 0 0 1
    outer loop
      vertex -10.6289 -9.44526 4
      vertex -11 -8 4
      vertex -10.7893 -9.10437 4
    endloop
  endfacet
  facet normal 0 0 1
    outer loop
      vertex -10.7893 -9.10437 4
      vertex -11 -8 4
      vertex -10.9057 -8.74607 4
    endloop
  endfacet
  facet normal 0 0 1
    outer loop
      vertex -10.9057 -8.74607 4
      vertex -11 -8 4
      vertex -10.9763 -8.376 4
    endloop
  endfacet
  facet normal 0.248707 0.968579 -0
    outer loop
      vertex 8.92705 10.8532 -1
      vertex 8.56214 10.9469 4
      vertex 8.92705 10.8532 4
    endloop
  endfacet
  facet normal 0.248707 0.968579 0
    outer loop
      vertex 8.56214 10.9469 4
      vertex 8.92705 10.8532 -1
      vertex 8.56214 10.9469 -1
    endloop
  endfacet
  facet normal 0.248699 -0.968581 0
    outer loop
      vertex 0.468452 -2.45572 4
      vertex 0.772542 -2.37764 8
      vertex 0.468452 -2.45572 8
    endloop
  endfacet
  facet normal 0.248699 -0.968581 0
    outer loop
      vertex 0.772542 -2.37764 8
      vertex 0.468452 -2.45572 4
      vertex 0.772542 -2.37764 4
    endloop
  endfacet
  facet normal 0.982287 0.187385 0
    outer loop
      vertex 2.48029 0.313333 8
      vertex 2.42146 0.621724 4
      vertex 2.42146 0.621724 8
    endloop
  endfacet
  facet normal 0.982287 0.187385 0
    outer loop
      vertex 2.42146 0.621724 4
      vertex 2.48029 0.313333 8
      vertex 2.48029 0.313333 4
    endloop
  endfacet
  facet normal 0.998027 0.0627802 0
    outer loop
      vertex 2.5 0 8
      vertex 2.48029 0.313333 4
      vertex 2.48029 0.313333 8
    endloop
  endfacet
  facet normal 0.998027 0.0627802 0
    outer loop
      vertex 2.48029 0.313333 4
      vertex 2.5 0 8
      vertex 2.5 0 4
    endloop
  endfacet
  facet normal 0.951054 0.309026 0
    outer loop
      vertex 2.42146 0.621724 8
      vertex 2.32444 0.920311 4
      vertex 2.32444 0.920311 8
    endloop
  endfacet
  facet normal 0.951054 0.309026 0
    outer loop
      vertex 2.32444 0.920311 4
      vertex 2.42146 0.621724 8
      vertex 2.42146 0.621724 4
    endloop
  endfacet
  facet normal 0.368112 0.929781 -0
    outer loop
      vertex 1.06445 2.26207 4
      vertex 0.772542 2.37764 8
      vertex 1.06445 2.26207 8
    endloop
  endfacet
  facet normal 0.368112 0.929781 0
    outer loop
      vertex 0.772542 2.37764 8
      vertex 1.06445 2.26207 4
      vertex 0.772542 2.37764 4
    endloop
  endfacet
  facet normal -0.951054 0.309026 0
    outer loop
      vertex -2.42146 0.621724 4
      vertex -2.32444 0.920311 8
      vertex -2.32444 0.920311 4
    endloop
  endfacet
  facet normal -0.951054 0.309026 0
    outer loop
      vertex -2.32444 0.920311 8
      vertex -2.42146 0.621724 4
      vertex -2.42146 0.621724 8
    endloop
  endfacet
  facet normal -0.770522 -0.637414 0
    outer loop
      vertex -1.82242 -1.71137 4
      vertex -2.02254 -1.46946 8
      vertex -2.02254 -1.46946 4
    endloop
  endfacet
  facet normal -0.770522 -0.637414 0
    outer loop
      vertex -2.02254 -1.46946 8
      vertex -1.82242 -1.71137 4
      vertex -1.82242 -1.71137 8
    endloop
  endfacet
  facet normal 0.998027 -0.0627802 0
    outer loop
      vertex 2.48029 -0.313333 8
      vertex 2.5 0 4
      vertex 2.5 0 8
    endloop
  endfacet
  facet normal 0.998027 -0.0627802 0
    outer loop
      vertex 2.5 0 4
      vertex 2.48029 -0.313333 8
      vertex 2.48029 -0.313333 4
    endloop
  endfacet
  facet normal 0.90483 0.425772 0
    outer loop
      vertex 2.32444 0.920311 8
      vertex 2.19077 1.20438 4
      vertex 2.19077 1.20438 8
    endloop
  endfacet
  facet normal 0.90483 0.425772 0
    outer loop
      vertex 2.19077 1.20438 4
      vertex 2.32444 0.920311 8
      vertex 2.32444 0.920311 4
    endloop
  endfacet
  facet normal -0.125338 0.992114 0
    outer loop
      vertex -0.156976 2.49507 4
      vertex -0.468452 2.45572 8
      vertex -0.156976 2.49507 8
    endloop
  endfacet
  facet normal -0.125338 0.992114 0
    outer loop
      vertex -0.468452 2.45572 8
      vertex -0.156976 2.49507 4
      vertex -0.468452 2.45572 4
    endloop
  endfacet
  facet normal 0.125338 0.992114 -0
    outer loop
      vertex 0.468452 2.45572 4
      vertex 0.156976 2.49507 8
      vertex 0.468452 2.45572 8
    endloop
  endfacet
  facet normal 0.125338 0.992114 0
    outer loop
      vertex 0.156976 2.49507 8
      vertex 0.468452 2.45572 4
      vertex 0.156976 2.49507 4
    endloop
  endfacet
  facet normal 0.587797 -0.809009 0
    outer loop
      vertex 1.33957 -2.11082 4
      vertex 1.59356 -1.92628 8
      vertex 1.33957 -2.11082 8
    endloop
  endfacet
  facet normal 0.587797 -0.809009 0
    outer loop
      vertex 1.59356 -1.92628 8
      vertex 1.33957 -2.11082 4
      vertex 1.59356 -1.92628 4
    endloop
  endfacet
  facet normal -0.587797 -0.809009 0
    outer loop
      vertex -1.59356 -1.92628 4
      vertex -1.33957 -2.11082 8
      vertex -1.59356 -1.92628 8
    endloop
  endfacet
  facet normal -0.587797 -0.809009 -0
    outer loop
      vertex -1.33957 -2.11082 8
      vertex -1.59356 -1.92628 4
      vertex -1.33957 -2.11082 4
    endloop
  endfacet
  facet normal -0.684541 0.728975 0
    outer loop
      vertex -1.59356 1.92628 4
      vertex -1.82242 1.71137 8
      vertex -1.59356 1.92628 8
    endloop
  endfacet
  facet normal -0.684541 0.728975 0
    outer loop
      vertex -1.82242 1.71137 8
      vertex -1.59356 1.92628 4
      vertex -1.82242 1.71137 4
    endloop
  endfacet
  facet normal 0.982287 -0.187385 0
    outer loop
      vertex 2.42146 -0.621724 8
      vertex 2.48029 -0.313333 4
      vertex 2.48029 -0.313333 8
    endloop
  endfacet
  facet normal 0.982287 -0.187385 0
    outer loop
      vertex 2.48029 -0.313333 4
      vertex 2.42146 -0.621724 8
      vertex 2.42146 -0.621724 4
    endloop
  endfacet
  facet normal 0.368112 -0.929781 0
    outer loop
      vertex 0.772542 -2.37764 4
      vertex 1.06445 -2.26207 8
      vertex 0.772542 -2.37764 8
    endloop
  endfacet
  facet normal 0.368112 -0.929781 0
    outer loop
      vertex 1.06445 -2.26207 8
      vertex 0.772542 -2.37764 4
      vertex 1.06445 -2.26207 4
    endloop
  endfacet
  facet normal 0 1 -0
    outer loop
      vertex 0.156976 2.49507 4
      vertex -0.156976 2.49507 8
      vertex 0.156976 2.49507 8
    endloop
  endfacet
  facet normal 0 1 0
    outer loop
      vertex -0.156976 2.49507 8
      vertex 0.156976 2.49507 4
      vertex -0.156976 2.49507 4
    endloop
  endfacet
  facet normal 0.684541 -0.728975 0
    outer loop
      vertex 1.59356 -1.92628 4
      vertex 1.82242 -1.71137 8
      vertex 1.59356 -1.92628 8
    endloop
  endfacet
  facet normal 0.684541 -0.728975 0
    outer loop
      vertex 1.82242 -1.71137 8
      vertex 1.59356 -1.92628 4
      vertex 1.82242 -1.71137 4
    endloop
  endfacet
  facet normal 0.587797 0.809009 -0
    outer loop
      vertex 1.59356 1.92628 4
      vertex 1.33957 2.11082 8
      vertex 1.59356 1.92628 8
    endloop
  endfacet
  facet normal 0.587797 0.809009 0
    outer loop
      vertex 1.33957 2.11082 8
      vertex 1.59356 1.92628 4
      vertex 1.33957 2.11082 4
    endloop
  endfacet
  facet normal -0.368112 0.929781 0
    outer loop
      vertex -0.772542 2.37764 4
      vertex -1.06445 2.26207 8
      vertex -0.772542 2.37764 8
    endloop
  endfacet
  facet normal -0.368112 0.929781 0
    outer loop
      vertex -1.06445 2.26207 8
      vertex -0.772542 2.37764 4
      vertex -1.06445 2.26207 4
    endloop
  endfacet
  facet normal 0.844321 0.535838 0
    outer loop
      vertex 2.19077 1.20438 8
      vertex 2.02254 1.46946 4
      vertex 2.02254 1.46946 8
    endloop
  endfacet
  facet normal 0.844321 0.535838 0
    outer loop
      vertex 2.02254 1.46946 4
      vertex 2.19077 1.20438 8
      vertex 2.19077 1.20438 4
    endloop
  endfacet
  facet normal -0.248699 0.968581 0
    outer loop
      vertex -0.468452 2.45572 4
      vertex -0.772542 2.37764 8
      vertex -0.468452 2.45572 8
    endloop
  endfacet
  facet normal -0.248699 0.968581 0
    outer loop
      vertex -0.772542 2.37764 8
      vertex -0.468452 2.45572 4
      vertex -0.772542 2.37764 4
    endloop
  endfacet
  facet normal 0.481757 0.876305 -0
    outer loop
      vertex 1.33957 2.11082 4
      vertex 1.06445 2.26207 8
      vertex 1.33957 2.11082 8
    endloop
  endfacet
  facet normal 0.481757 0.876305 0
    outer loop
      vertex 1.06445 2.26207 8
      vertex 1.33957 2.11082 4
      vertex 1.06445 2.26207 4
    endloop
  endfacet
  facet normal -0.248699 -0.968581 0
    outer loop
      vertex -0.772542 -2.37764 4
      vertex -0.468452 -2.45572 8
      vertex -0.772542 -2.37764 8
    endloop
  endfacet
  facet normal -0.248699 -0.968581 -0
    outer loop
      vertex -0.468452 -2.45572 8
      vertex -0.772542 -2.37764 4
      vertex -0.468452 -2.45572 4
    endloop
  endfacet
  facet normal -0.587797 0.809009 0
    outer loop
      vertex -1.33957 2.11082 4
      vertex -1.59356 1.92628 8
      vertex -1.33957 2.11082 8
    endloop
  endfacet
  facet normal -0.587797 0.809009 0
    outer loop
      vertex -1.59356 1.92628 8
      vertex -1.33957 2.11082 4
      vertex -1.59356 1.92628 4
    endloop
  endfacet
  facet normal 0.125338 -0.992114 0
    outer loop
      vertex 0.156976 -2.49507 4
      vertex 0.468452 -2.45572 8
      vertex 0.156976 -2.49507 8
    endloop
  endfacet
  facet normal 0.125338 -0.992114 0
    outer loop
      vertex 0.468452 -2.45572 8
      vertex 0.156976 -2.49507 4
      vertex 0.468452 -2.45572 4
    endloop
  endfacet
  facet normal 0.684541 0.728975 -0
    outer loop
      vertex 1.82242 1.71137 4
      vertex 1.59356 1.92628 8
      vertex 1.82242 1.71137 8
    endloop
  endfacet
  facet normal 0.684541 0.728975 0
    outer loop
      vertex 1.59356 1.92628 8
      vertex 1.82242 1.71137 4
      vertex 1.59356 1.92628 4
    endloop
  endfacet
  facet normal 0.770522 -0.637414 0
    outer loop
      vertex 1.82242 -1.71137 8
      vertex 2.02254 -1.46946 4
      vertex 2.02254 -1.46946 8
    endloop
  endfacet
  facet normal 0.770522 -0.637414 0
    outer loop
      vertex 2.02254 -1.46946 4
      vertex 1.82242 -1.71137 8
      vertex 1.82242 -1.71137 4
    endloop
  endfacet
  facet normal -0.951054 -0.309026 0
    outer loop
      vertex -2.32444 -0.920311 4
      vertex -2.42146 -0.621724 8
      vertex -2.42146 -0.621724 4
    endloop
  endfacet
  facet normal -0.951054 -0.309026 0
    outer loop
      vertex -2.42146 -0.621724 8
      vertex -2.32444 -0.920311 4
      vertex -2.32444 -0.920311 8
    endloop
  endfacet
  facet normal 0.770522 0.637414 0
    outer loop
      vertex 2.02254 1.46946 8
      vertex 1.82242 1.71137 4
      vertex 1.82242 1.71137 8
    endloop
  endfacet
  facet normal 0.770522 0.637414 0
    outer loop
      vertex 1.82242 1.71137 4
      vertex 2.02254 1.46946 8
      vertex 2.02254 1.46946 4
    endloop
  endfacet
  facet normal 0 0 1
    outer loop
      vertex 2.48029 0.313333 8
      vertex 2.48029 -0.313333 8
      vertex 2.5 0 8
    endloop
  endfacet
  facet normal 0 0 1
    outer loop
      vertex 2.42146 0.621724 8
      vertex 2.48029 -0.313333 8
      vertex 2.48029 0.313333 8
    endloop
  endfacet
  facet normal 0 0 1
    outer loop
      vertex 2.42146 0.621724 8
      vertex 2.42146 -0.621724 8
      vertex 2.48029 -0.313333 8
    endloop
  endfacet
  facet normal 0 0 1
    outer loop
      vertex 2.32444 0.920311 8
      vertex 2.42146 -0.621724 8
      vertex 2.42146 0.621724 8
    endloop
  endfacet
  facet normal 0 0 1
    outer loop
      vertex 2.32444 0.920311 8
      vertex 2.32444 -0.920311 8
      vertex 2.42146 -0.621724 8
    endloop
  endfacet
  facet normal 0 0 1
    outer loop
      vertex 2.19077 1.20438 8
      vertex 2.32444 -0.920311 8
      vertex 2.32444 0.920311 8
    endloop
  endfacet
  facet normal 0 0 1
    outer loop
      vertex 2.19077 1.20438 8
      vertex 2.19077 -1.20438 8
      vertex 2.32444 -0.920311 8
    endloop
  endfacet
  facet normal 0 0 1
    outer loop
      vertex 2.02254 1.46946 8
      vertex 2.19077 -1.20438 8
      vertex 2.19077 1.20438 8
    endloop
  endfacet
  facet normal 0 0 1
    outer loop
      vertex 2.02254 1.46946 8
      vertex 2.02254 -1.46946 8
      vertex 2.19077 -1.20438 8
    endloop
  endfacet
  facet normal 0 0 1
    outer loop
      vertex 1.82242 1.71137 8
      vertex 2.02254 -1.46946 8
      vertex 2.02254 1.46946 8
    endloop
  endfacet
  facet normal 0 0 1
    outer loop
      vertex 1.82242 1.71137 8
      vertex 1.82242 -1.71137 8
      vertex 2.02254 -1.46946 8
    endloop
  endfacet
  facet normal 0 0 1
    outer loop
      vertex 1.59356 1.92628 8
      vertex 1.82242 -1.71137 8
      vertex 1.82242 1.71137 8
    endloop
  endfacet
  facet normal 0 0 1
    outer loop
      vertex 1.59356 1.92628 8
      vertex 1.59356 -1.92628 8
      vertex 1.82242 -1.71137 8
    endloop
  endfacet
  facet normal 0 0 1
    outer loop
      vertex 1.33957 2.11082 8
      vertex 1.59356 -1.92628 8
      vertex 1.59356 1.92628 8
    endloop
  endfacet
  facet normal 0 0 1
    outer loop
      vertex 1.33957 2.11082 8
      vertex 1.33957 -2.11082 8
      vertex 1.59356 -1.92628 8
    endloop
  endfacet
  facet normal 0 0 1
    outer loop
      vertex 1.06445 2.26207 8
      vertex 1.33957 -2.11082 8
      vertex 1.33957 2.11082 8
    endloop
  endfacet
  facet normal 0 0 1
    outer loop
      vertex 1.06445 2.26207 8
      vertex 1.06445 -2.26207 8
      vertex 1.33957 -2.11082 8
    endloop
  endfacet
  facet normal 0 0 1
    outer loop
      vertex 0.772542 2.37764 8
      vertex 1.06445 -2.26207 8
      vertex 1.06445 2.26207 8
    endloop
  endfacet
  facet normal 0 0 1
    outer loop
      vertex 0.772542 2.37764 8
      vertex 0.772542 -2.37764 8
      vertex 1.06445 -2.26207 8
    endloop
  endfacet
  facet normal 0 0 1
    outer loop
      vertex 0.468452 2.45572 8
      vertex 0.772542 -2.37764 8
      vertex 0.772542 2.37764 8
    endloop
  endfacet
  facet normal 0 0 1
    outer loop
      vertex 0.468452 2.45572 8
      vertex 0.468452 -2.45572 8
      vertex 0.772542 -2.37764 8
    endloop
  endfacet
  facet normal 0 0 1
    outer loop
      vertex 0.156976 2.49507 8
      vertex 0.468452 -2.45572 8
      vertex 0.468452 2.45572 8
    endloop
  endfacet
  facet normal 0 0 1
    outer loop
      vertex 0.156976 2.49507 8
      vertex 0.156976 -2.49507 8
      vertex 0.468452 -2.45572 8
    endloop
  endfacet
  facet normal -0 0 1
    outer loop
      vertex -0.156976 2.49507 8
      vertex 0.156976 -2.49507 8
      vertex 0.156976 2.49507 8
    endloop
  endfacet
  facet normal 0 0 1
    outer loop
      vertex -0.156976 2.49507 8
      vertex -0.156976 -2.49507 8
      vertex 0.156976 -2.49507 8
    endloop
  endfacet
  facet normal -0 0 1
    outer loop
      vertex -0.468452 2.45572 8
      vertex -0.156976 -2.49507 8
      vertex -0.156976 2.49507 8
    endloop
  endfacet
  facet normal 0 0 1
    outer loop
      vertex -0.468452 2.45572 8
      vertex -0.468452 -2.45572 8
      vertex -0.156976 -2.49507 8
    endloop
  endfacet
  facet normal -0 0 1
    outer loop
      vertex -0.772542 2.37764 8
      vertex -0.468452 -2.45572 8
      vertex -0.468452 2.45572 8
    endloop
  endfacet
  facet normal 0 0 1
    outer loop
      vertex -0.772542 2.37764 8
      vertex -0.772542 -2.37764 8
      vertex -0.468452 -2.45572 8
    endloop
  endfacet
  facet normal -0 0 1
    outer loop
      vertex -1.06445 2.26207 8
      vertex -0.772542 -2.37764 8
      vertex -0.772542 2.37764 8
    endloop
  endfacet
  facet normal 0 0 1
    outer loop
      vertex -1.06445 2.26207 8
      vertex -1.06445 -2.26207 8
      vertex -0.772542 -2.37764 8
    endloop
  endfacet
  facet normal -0 0 1
    outer loop
      vertex -1.33957 2.11082 8
      vertex -1.06445 -2.26207 8
      vertex -1.06445 2.26207 8
    endloop
  endfacet
  facet normal 0 0 1
    outer loop
      vertex -1.33957 2.11082 8
      vertex -1.33957 -2.11082 8
      vertex -1.06445 -2.26207 8
    endloop
  endfacet
  facet normal -0 0 1
    outer loop
      vertex -1.59356 1.92628 8
      vertex -1.33957 -2.11082 8
      vertex -1.33957 2.11082 8
    endloop
  endfacet
  facet normal 0 0 1
    outer loop
      vertex -1.59356 1.92628 8
      vertex -1.59356 -1.92628 8
      vertex -1.33957 -2.11082 8
    endloop
  endfacet
  facet normal -0 0 1
    outer loop
      vertex -1.82242 1.71137 8
      vertex -1.59356 -1.92628 8
      vertex -1.59356 1.92628 8
    endloop
  endfacet
  facet normal 0 0 1
    outer loop
      vertex -1.82242 1.71137 8
      vertex -1.82242 -1.71137 8
      vertex -1.59356 -1.92628 8
    endloop
  endfacet
  facet normal -0 0 1
    outer loop
      vertex -2.02254 1.46946 8
      vertex -1.82242 -1.71137 8
      vertex -1.82242 1.71137 8
    endloop
  endfacet
  facet normal 0 0 1
    outer loop
      vertex -2.02254 1.46946 8
      vertex -2.02254 -1.46946 8
      vertex -1.82242 -1.71137 8
    endloop
  endfacet
  facet normal -0 0 1
    outer loop
      vertex -2.19077 1.20438 8
      vertex -2.02254 -1.46946 8
      vertex -2.02254 1.46946 8
    endloop
  endfacet
  facet normal 0 0 1
    outer loop
      vertex -2.19077 1.20438 8
      vertex -2.19077 -1.20438 8
      vertex -2.02254 -1.46946 8
    endloop
  endfacet
  facet normal -0 0 1
    outer loop
      vertex -2.32444 0.920311 8
      vertex -2.19077 -1.20438 8
      vertex -2.19077 1.20438 8
    endloop
  endfacet
  facet normal 0 0 1
    outer loop
      vertex -2.32444 0.920311 8
      vertex -2.32444 -0.920311 8
      vertex -2.19077 -1.20438 8
    endloop
  endfacet
  facet normal -0 0 1
    outer loop
      vertex -2.42146 0.621724 8
      vertex -2.32444 -0.920311 8
      vertex -2.32444 0.920311 8
    endloop
  endfacet
  facet normal 0 0 1
    outer loop
      vertex -2.42146 0.621724 8
      vertex -2.42146 -0.621724 8
      vertex -2.32444 -0.920311 8
    endloop
  endfacet
  facet normal -0 0 1
    outer loop
      vertex -2.48029 0.313333 8
      vertex -2.42146 -0.621724 8
      vertex -2.42146 0.621724 8
    endloop
  endfacet
  facet normal 0 0 1
    outer loop
      vertex -2.48029 0.313333 8
      vertex -2.48029 -0.313333 8
      vertex -2.42146 -0.621724 8
    endloop
  endfacet
  facet normal 0 -0 1
    outer loop
      vertex -2.48029 -0.313333 8
      vertex -2.48029 0.313333 8
      vertex -2.5 0 8
    endloop
  endfacet
  facet normal 0.951054 -0.309026 0
    outer loop
      vertex 2.32444 -0.920311 8
      vertex 2.42146 -0.621724 4
      vertex 2.42146 -0.621724 8
    endloop
  endfacet
  facet normal 0.951054 -0.309026 0
    outer loop
      vertex 2.42146 -0.621724 4
      vertex 2.32444 -0.920311 8
      vertex 2.32444 -0.920311 4
    endloop
  endfacet
  facet normal -0.368112 -0.929781 0
    outer loop
      vertex -1.06445 -2.26207 4
      vertex -0.772542 -2.37764 8
      vertex -1.06445 -2.26207 8
    endloop
  endfacet
  facet normal -0.368112 -0.929781 -0
    outer loop
      vertex -0.772542 -2.37764 8
      vertex -1.06445 -2.26207 4
      vertex -0.772542 -2.37764 4
    endloop
  endfacet
  facet normal 0.844321 -0.535838 0
    outer loop
      vertex 2.02254 -1.46946 8
      vertex 2.19077 -1.20438 4
      vertex 2.19077 -1.20438 8
    endloop
  endfacet
  facet normal 0.844321 -0.535838 0
    outer loop
      vertex 2.19077 -1.20438 4
      vertex 2.02254 -1.46946 8
      vertex 2.02254 -1.46946 4
    endloop
  endfacet
  facet normal -0.481757 -0.876305 0
    outer loop
      vertex -1.33957 -2.11082 4
      vertex -1.06445 -2.26207 8
      vertex -1.33957 -2.11082 8
    endloop
  endfacet
  facet normal -0.481757 -0.876305 -0
    outer loop
      vertex -1.06445 -2.26207 8
      vertex -1.33957 -2.11082 4
      vertex -1.06445 -2.26207 4
    endloop
  endfacet
  facet normal 0.90483 -0.425772 0
    outer loop
      vertex 2.19077 -1.20438 8
      vertex 2.32444 -0.920311 4
      vertex 2.32444 -0.920311 8
    endloop
  endfacet
  facet normal 0.90483 -0.425772 0
    outer loop
      vertex 2.32444 -0.920311 4
      vertex 2.19077 -1.20438 8
      vertex 2.19077 -1.20438 4
    endloop
  endfacet
  facet normal -0.684541 -0.728975 0
    outer loop
      vertex -1.82242 -1.71137 4
      vertex -1.59356 -1.92628 8
      vertex -1.82242 -1.71137 8
    endloop
  endfacet
  facet normal -0.684541 -0.728975 -0
    outer loop
      vertex -1.59356 -1.92628 8
      vertex -1.82242 -1.71137 4
      vertex -1.59356 -1.92628 4
    endloop
  endfacet
  facet normal -0.998027 -0.0627802 0
    outer loop
      vertex -2.48029 -0.313333 4
      vertex -2.5 0 8
      vertex -2.5 0 4
    endloop
  endfacet
  facet normal -0.998027 -0.0627802 0
    outer loop
      vertex -2.5 0 8
      vertex -2.48029 -0.313333 4
      vertex -2.48029 -0.313333 8
    endloop
  endfacet
  facet normal -0.125338 -0.992114 0
    outer loop
      vertex -0.468452 -2.45572 4
      vertex -0.156976 -2.49507 8
      vertex -0.468452 -2.45572 8
    endloop
  endfacet
  facet normal -0.125338 -0.992114 -0
    outer loop
      vertex -0.156976 -2.49507 8
      vertex -0.468452 -2.45572 4
      vertex -0.156976 -2.49507 4
    endloop
  endfacet
  facet normal -0.90483 -0.425772 0
    outer loop
      vertex -2.19077 -1.20438 4
      vertex -2.32444 -0.920311 8
      vertex -2.32444 -0.920311 4
    endloop
  endfacet
  facet normal -0.90483 -0.425772 0
    outer loop
      vertex -2.32444 -0.920311 8
      vertex -2.19077 -1.20438 4
      vertex -2.19077 -1.20438 8
    endloop
  endfacet
  facet normal -0.982287 -0.187385 0
    outer loop
      vertex -2.42146 -0.621724 4
      vertex -2.48029 -0.313333 8
      vertex -2.48029 -0.313333 4
    endloop
  endfacet
  facet normal -0.982287 -0.187385 0
    outer loop
      vertex -2.48029 -0.313333 8
      vertex -2.42146 -0.621724 4
      vertex -2.42146 -0.621724 8
    endloop
  endfacet
  facet normal 0.248699 0.968581 -0
    outer loop
      vertex 0.772542 2.37764 4
      vertex 0.468452 2.45572 8
      vertex 0.772542 2.37764 8
    endloop
  endfacet
  facet normal 0.248699 0.968581 0
    outer loop
      vertex 0.468452 2.45572 8
      vertex 0.772542 2.37764 4
      vertex 0.468452 2.45572 4
    endloop
  endfacet
  facet normal -0.844321 -0.535838 0
    outer loop
      vertex -2.02254 -1.46946 4
      vertex -2.19077 -1.20438 8
      vertex -2.19077 -1.20438 4
    endloop
  endfacet
  facet normal -0.844321 -0.535838 0
    outer loop
      vertex -2.19077 -1.20438 8
      vertex -2.02254 -1.46946 4
      vertex -2.02254 -1.46946 8
    endloop
  endfacet
  facet normal -0.998027 0.0627802 0
    outer loop
      vertex -2.5 0 4
      vertex -2.48029 0.313333 8
      vertex -2.48029 0.313333 4
    endloop
  endfacet
  facet normal -0.998027 0.0627802 0
    outer loop
      vertex -2.48029 0.313333 8
      vertex -2.5 0 4
      vertex -2.5 0 8
    endloop
  endfacet
  facet normal -0.481757 0.876305 0
    outer loop
      vertex -1.06445 2.26207 4
      vertex -1.33957 2.11082 8
      vertex -1.06445 2.26207 8
    endloop
  endfacet
  facet normal -0.481757 0.876305 0
    outer loop
      vertex -1.33957 2.11082 8
      vertex -1.06445 2.26207 4
      vertex -1.33957 2.11082 4
    endloop
  endfacet
  facet normal 0 -1 0
    outer loop
      vertex -0.156976 -2.49507 4
      vertex 0.156976 -2.49507 8
      vertex -0.156976 -2.49507 8
    endloop
  endfacet
  facet normal 0 -1 -0
    outer loop
      vertex 0.156976 -2.49507 8
      vertex -0.156976 -2.49507 4
      vertex 0.156976 -2.49507 4
    endloop
  endfacet
  facet normal -0.844321 0.535838 0
    outer loop
      vertex -2.19077 1.20438 4
      vertex -2.02254 1.46946 8
      vertex -2.02254 1.46946 4
    endloop
  endfacet
  facet normal -0.844321 0.535838 0
    outer loop
      vertex -2.02254 1.46946 8
      vertex -2.19077 1.20438 4
      vertex -2.19077 1.20438 8
    endloop
  endfacet
  facet normal -0.982287 0.187385 0
    outer loop
      vertex -2.48029 0.313333 4
      vertex -2.42146 0.621724 8
      vertex -2.42146 0.621724 4
    endloop
  endfacet
  facet normal -0.982287 0.187385 0
    outer loop
      vertex -2.42146 0.621724 8
      vertex -2.48029 0.313333 4
      vertex -2.48029 0.313333 8
    endloop
  endfacet
  facet normal 0.481757 -0.876305 0
    outer loop
      vertex 1.06445 -2.26207 4
      vertex 1.33957 -2.11082 8
      vertex 1.06445 -2.26207 8
    endloop
  endfacet
  facet normal 0.481757 -0.876305 0
    outer loop
      vertex 1.33957 -2.11082 8
      vertex 1.06445 -2.26207 4
      vertex 1.33957 -2.11082 4
    endloop
  endfacet
  facet normal -0.90483 0.425772 0
    outer loop
      vertex -2.32444 0.920311 4
      vertex -2.19077 1.20438 8
      vertex -2.19077 1.20438 4
    endloop
  endfacet
  facet normal -0.90483 0.425772 0
    outer loop
      vertex -2.19077 1.20438 8
      vertex -2.32444 0.920311 4
      vertex -2.32444 0.920311 8
    endloop
  endfacet
  facet normal -0.770522 0.637414 0
    outer loop
      vertex -2.02254 1.46946 4
      vertex -1.82242 1.71137 8
      vertex -1.82242 1.71137 4
    endloop
  endfacet
  facet normal -0.770522 0.637414 0
    outer loop
      vertex -1.82242 1.71137 8
      vertex -2.02254 1.46946 4
      vertex -2.02254 1.46946 8
    endloop
  endfacet
endsolid OpenSCAD_Model
