solid OpenSCAD_Model
  facet normal 0.866026 0.5 0
    outer loop
      vertex 9.13545 4.06737 125
      vertex 8.09017 5.87785 0
      vertex 8.09017 5.87785 125
    endloop
  endfacet
  facet normal 0.866026 0.5 0
    outer loop
      vertex 8.09017 5.87785 0
      vertex 9.13545 4.06737 125
      vertex 9.13545 4.06737 0
    endloop
  endfacet
  facet normal 0.743145 0.669131 0
    outer loop
      vertex 8.09017 5.87785 125
      vertex 6.69131 7.43145 0
      vertex 6.69131 7.43145 125
    endloop
  endfacet
  facet normal 0.743145 0.669131 0
    outer loop
      vertex 6.69131 7.43145 0
      vertex 8.09017 5.87785 125
      vertex 8.09017 5.87785 0
    endloop
  endfacet
  facet normal -0.406737 0.913545 0
    outer loop
      vertex -3.09017 9.51056 0
      vertex -5 8.66025 125
      vertex -3.09017 9.51056 125
    endloop
  endfacet
  facet normal -0.406737 0.913545 0
    outer loop
      vertex -5 8.66025 125
      vertex -3.09017 9.51056 0
      vertex -5 8.66025 0
    endloop
  endfacet
  facet normal 0.994522 -0.104529 0
    outer loop
      vertex 9.78148 -2.07912 125
      vertex 10 0 0
      vertex 10 0 125
    endloop
  endfacet
  facet normal 0.994522 -0.104529 0
    outer loop
      vertex 10 0 0
      vertex 9.78148 -2.07912 125
      vertex 9.78148 -2.07912 0
    endloop
  endfacet
  facet normal 0.587785 0.809017 -0
    outer loop
      vertex 6.69131 7.43145 0
      vertex 5 8.66025 125
      vertex 6.69131 7.43145 125
    endloop
  endfacet
  facet normal 0.587785 0.809017 0
    outer loop
      vertex 5 8.66025 125
      vertex 6.69131 7.43145 0
      vertex 5 8.66025 0
    endloop
  endfacet
  facet normal 0 1 -0
    outer loop
      vertex 1.04528 9.94522 0
      vertex -1.04528 9.94522 125
      vertex 1.04528 9.94522 125
    endloop
  endfacet
  facet normal 0 1 0
    outer loop
      vertex -1.04528 9.94522 125
      vertex 1.04528 9.94522 0
      vertex -1.04528 9.94522 0
    endloop
  endfacet
  facet normal 0.406737 0.913545 -0
    outer loop
      vertex 5 8.66025 0
      vertex 3.09017 9.51056 125
      vertex 5 8.66025 125
    endloop
  endfacet
  facet normal 0.406737 0.913545 0
    outer loop
      vertex 3.09017 9.51056 125
      vertex 5 8.66025 0
      vertex 3.09017 9.51056 0
    endloop
  endfacet
  facet normal -0.994522 0.104529 0
    outer loop
      vertex -10 0 0
      vertex -9.78148 2.07912 125
      vertex -9.78148 2.07912 0
    endloop
  endfacet
  facet normal -0.994522 0.104529 0
    outer loop
      vertex -9.78148 2.07912 125
      vertex -10 0 0
      vertex -10 0 125
    endloop
  endfacet
  facet normal -0.866026 0.5 0
    outer loop
      vertex -9.13545 4.06737 0
      vertex -8.09017 5.87785 125
      vertex -8.09017 5.87785 0
    endloop
  endfacet
  facet normal -0.866026 0.5 0
    outer loop
      vertex -8.09017 5.87785 125
      vertex -9.13545 4.06737 0
      vertex -9.13545 4.06737 125
    endloop
  endfacet
  facet normal -0.587785 0.809017 0
    outer loop
      vertex -5 8.66025 0
      vertex -6.69131 7.43145 125
      vertex -5 8.66025 125
    endloop
  endfacet
  facet normal -0.587785 0.809017 0
    outer loop
      vertex -6.69131 7.43145 125
      vertex -5 8.66025 0
      vertex -6.69131 7.43145 0
    endloop
  endfacet
  facet normal -0.207911 0.978148 0
    outer loop
      vertex -1.04528 9.94522 0
      vertex -3.09017 9.51056 125
      vertex -1.04528 9.94522 125
    endloop
  endfacet
  facet normal -0.207911 0.978148 0
    outer loop
      vertex -3.09017 9.51056 125
      vertex -1.04528 9.94522 0
      vertex -3.09017 9.51056 0
    endloop
  endfacet
  facet normal -0.743145 0.669131 0
    outer loop
      vertex -8.09017 5.87785 0
      vertex -6.69131 7.43145 125
      vertex -6.69131 7.43145 0
    endloop
  endfacet
  facet normal -0.743145 0.669131 0
    outer loop
      vertex -6.69131 7.43145 125
      vertex -8.09017 5.87785 0
      vertex -8.09017 5.87785 125
    endloop
  endfacet
  facet normal 0.994522 0.104529 0
    outer loop
      vertex 10 0 125
      vertex 9.78148 2.07912 0
      vertex 9.78148 2.07912 125
    endloop
  endfacet
  facet normal 0.994522 0.104529 0
    outer loop
      vertex 9.78148 2.07912 0
      vertex 10 0 125
      vertex 10 0 0
    endloop
  endfacet
  facet normal 0.951057 -0.309017 0
    outer loop
      vertex 9.13545 -4.06737 125
      vertex 9.78148 -2.07912 0
      vertex 9.78148 -2.07912 125
    endloop
  endfacet
  facet normal 0.951057 -0.309017 0
    outer loop
      vertex 9.78148 -2.07912 0
      vertex 9.13545 -4.06737 125
      vertex 9.13545 -4.06737 0
    endloop
  endfacet
  facet normal -0.866026 -0.5 0
    outer loop
      vertex -8.09017 -5.87785 0
      vertex -9.13545 -4.06737 125
      vertex -9.13545 -4.06737 0
    endloop
  endfacet
  facet normal -0.866026 -0.5 0
    outer loop
      vertex -9.13545 -4.06737 125
      vertex -8.09017 -5.87785 0
      vertex -8.09017 -5.87785 125
    endloop
  endfacet
  facet normal 0.587785 -0.809017 0
    outer loop
      vertex 5 -8.66025 0
      vertex 6.69131 -7.43145 125
      vertex 5 -8.66025 125
    endloop
  endfacet
  facet normal 0.587785 -0.809017 0
    outer loop
      vertex 6.69131 -7.43145 125
      vertex 5 -8.66025 0
      vertex 6.69131 -7.43145 0
    endloop
  endfacet
  facet normal 0.951057 0.309017 0
    outer loop
      vertex 9.78148 2.07912 125
      vertex 9.13545 4.06737 0
      vertex 9.13545 4.06737 125
    endloop
  endfacet
  facet normal 0.951057 0.309017 0
    outer loop
      vertex 9.13545 4.06737 0
      vertex 9.78148 2.07912 125
      vertex 9.78148 2.07912 0
    endloop
  endfacet
  facet normal 0.207911 0.978148 -0
    outer loop
      vertex 3.09017 9.51056 0
      vertex 1.04528 9.94522 125
      vertex 3.09017 9.51056 125
    endloop
  endfacet
  facet normal 0.207911 0.978148 0
    outer loop
      vertex 1.04528 9.94522 125
      vertex 3.09017 9.51056 0
      vertex 1.04528 9.94522 0
    endloop
  endfacet
  facet normal 0 0 1
    outer loop
      vertex 7 0 125
      vertex 10 0 125
      vertex 9.78148 2.07912 125
    endloop
  endfacet
  facet normal 0 0 1
    outer loop
      vertex 6.71645 1.97213 125
      vertex 9.78148 2.07912 125
      vertex 9.13545 4.06737 125
    endloop
  endfacet
  facet normal 0 0 1
    outer loop
      vertex 10 0 125
      vertex 7 0 125
      vertex 9.78148 -2.07912 125
    endloop
  endfacet
  facet normal 0 0 1
    outer loop
      vertex 5.88877 3.78448 125
      vertex 9.13545 4.06737 125
      vertex 8.09017 5.87785 125
    endloop
  endfacet
  facet normal -0 0 1
    outer loop
      vertex 6.71645 -1.97213 125
      vertex 9.78148 -2.07912 125
      vertex 7 0 125
    endloop
  endfacet
  facet normal 0 0 1
    outer loop
      vertex 9.78148 -2.07912 125
      vertex 6.71645 -1.97213 125
      vertex 9.13545 -4.06737 125
    endloop
  endfacet
  facet normal 0 0 1
    outer loop
      vertex 9.78148 2.07912 125
      vertex 6.71645 1.97213 125
      vertex 7 0 125
    endloop
  endfacet
  facet normal 0 0 1
    outer loop
      vertex 4.58402 5.29025 125
      vertex 8.09017 5.87785 125
      vertex 6.69131 7.43145 125
    endloop
  endfacet
  facet normal 0 0 1
    outer loop
      vertex 9.13545 4.06737 125
      vertex 5.88877 3.78448 125
      vertex 6.71645 1.97213 125
    endloop
  endfacet
  facet normal 0 0 1
    outer loop
      vertex 4.58402 5.29025 125
      vertex 6.69131 7.43145 125
      vertex 5 8.66025 125
    endloop
  endfacet
  facet normal 0 0 1
    outer loop
      vertex 8.09017 5.87785 125
      vertex 4.58402 5.29025 125
      vertex 5.88877 3.78448 125
    endloop
  endfacet
  facet normal 0 0 1
    outer loop
      vertex 2.9079 6.36742 125
      vertex 5 8.66025 125
      vertex 3.09017 9.51056 125
    endloop
  endfacet
  facet normal 0 0 1
    outer loop
      vertex 5 8.66025 125
      vertex 2.9079 6.36742 125
      vertex 4.58402 5.29025 125
    endloop
  endfacet
  facet normal 0 0 1
    outer loop
      vertex 0.996203 6.92875 125
      vertex 3.09017 9.51056 125
      vertex 1.04528 9.94522 125
    endloop
  endfacet
  facet normal 0 0 1
    outer loop
      vertex 3.09017 9.51056 125
      vertex 0.996203 6.92875 125
      vertex 2.9079 6.36742 125
    endloop
  endfacet
  facet normal 0 0 1
    outer loop
      vertex 1.04528 9.94522 125
      vertex -0.996203 6.92875 125
      vertex 0.996203 6.92875 125
    endloop
  endfacet
  facet normal -0 0 1
    outer loop
      vertex -1.04528 9.94522 125
      vertex -0.996203 6.92875 125
      vertex 1.04528 9.94522 125
    endloop
  endfacet
  facet normal -0 0 1
    outer loop
      vertex -3.09017 9.51056 125
      vertex -0.996203 6.92875 125
      vertex -1.04528 9.94522 125
    endloop
  endfacet
  facet normal 0 0 1
    outer loop
      vertex -0.996203 6.92875 125
      vertex -3.09017 9.51056 125
      vertex -2.9079 6.36742 125
    endloop
  endfacet
  facet normal -0 0 1
    outer loop
      vertex -5 8.66025 125
      vertex -2.9079 6.36742 125
      vertex -3.09017 9.51056 125
    endloop
  endfacet
  facet normal 0 0 1
    outer loop
      vertex -2.9079 6.36742 125
      vertex -5 8.66025 125
      vertex -4.58402 5.29025 125
    endloop
  endfacet
  facet normal -0 0 1
    outer loop
      vertex -6.69131 7.43145 125
      vertex -4.58402 5.29025 125
      vertex -5 8.66025 125
    endloop
  endfacet
  facet normal -0 0 1
    outer loop
      vertex -8.09017 5.87785 125
      vertex -4.58402 5.29025 125
      vertex -6.69131 7.43145 125
    endloop
  endfacet
  facet normal 0 0 1
    outer loop
      vertex -4.58402 5.29025 125
      vertex -8.09017 5.87785 125
      vertex -5.88877 3.78448 125
    endloop
  endfacet
  facet normal -0 0 1
    outer loop
      vertex -9.13545 4.06737 125
      vertex -5.88877 3.78448 125
      vertex -8.09017 5.87785 125
    endloop
  endfacet
  facet normal 0 0 1
    outer loop
      vertex -5.88877 3.78448 125
      vertex -9.13545 4.06737 125
      vertex -6.71645 1.97213 125
    endloop
  endfacet
  facet normal -0 0 1
    outer loop
      vertex 5.88877 -3.78448 125
      vertex 9.13545 -4.06737 125
      vertex 6.71645 -1.97213 125
    endloop
  endfacet
  facet normal 0 0 1
    outer loop
      vertex 9.13545 -4.06737 125
      vertex 5.88877 -3.78448 125
      vertex 8.09017 -5.87785 125
    endloop
  endfacet
  facet normal -0 0 1
    outer loop
      vertex 4.58402 -5.29025 125
      vertex 8.09017 -5.87785 125
      vertex 5.88877 -3.78448 125
    endloop
  endfacet
  facet normal 0 0 1
    outer loop
      vertex 8.09017 -5.87785 125
      vertex 4.58402 -5.29025 125
      vertex 6.69131 -7.43145 125
    endloop
  endfacet
  facet normal 0 0 1
    outer loop
      vertex 6.69131 -7.43145 125
      vertex 4.58402 -5.29025 125
      vertex 5 -8.66025 125
    endloop
  endfacet
  facet normal -0 0 1
    outer loop
      vertex 2.9079 -6.36742 125
      vertex 5 -8.66025 125
      vertex 4.58402 -5.29025 125
    endloop
  endfacet
  facet normal 0 0 1
    outer loop
      vertex 5 -8.66025 125
      vertex 2.9079 -6.36742 125
      vertex 3.09017 -9.51056 125
    endloop
  endfacet
  facet normal -0 0 1
    outer loop
      vertex 0.996203 -6.92875 125
      vertex 3.09017 -9.51056 125
      vertex 2.9079 -6.36742 125
    endloop
  endfacet
  facet normal 0 0 1
    outer loop
      vertex 3.09017 -9.51056 125
      vertex 0.996203 -6.92875 125
      vertex 1.04528 -9.94522 125
    endloop
  endfacet
  facet normal -0 0 1
    outer loop
      vertex -0.996203 -6.92875 125
      vertex 1.04528 -9.94522 125
      vertex 0.996203 -6.92875 125
    endloop
  endfacet
  facet normal 0 0 1
    outer loop
      vertex -0.996203 -6.92875 125
      vertex -1.04528 -9.94522 125
      vertex 1.04528 -9.94522 125
    endloop
  endfacet
  facet normal 0 0 1
    outer loop
      vertex -3.09017 -9.51056 125
      vertex -0.996203 -6.92875 125
      vertex -2.9079 -6.36742 125
    endloop
  endfacet
  facet normal 0 0 1
    outer loop
      vertex -0.996203 -6.92875 125
      vertex -3.09017 -9.51056 125
      vertex -1.04528 -9.94522 125
    endloop
  endfacet
  facet normal 0 0 1
    outer loop
      vertex -5 -8.66025 125
      vertex -2.9079 -6.36742 125
      vertex -4.58402 -5.29025 125
    endloop
  endfacet
  facet normal 0 0 1
    outer loop
      vertex -2.9079 -6.36742 125
      vertex -5 -8.66025 125
      vertex -3.09017 -9.51056 125
    endloop
  endfacet
  facet normal 0 0 1
    outer loop
      vertex -8.09017 -5.87785 125
      vertex -4.58402 -5.29025 125
      vertex -5.88877 -3.78448 125
    endloop
  endfacet
  facet normal 0 0 1
    outer loop
      vertex -4.58402 -5.29025 125
      vertex -6.69131 -7.43145 125
      vertex -5 -8.66025 125
    endloop
  endfacet
  facet normal 0 0 1
    outer loop
      vertex -9.13545 -4.06737 125
      vertex -5.88877 -3.78448 125
      vertex -6.71645 -1.97213 125
    endloop
  endfacet
  facet normal 0 0 1
    outer loop
      vertex -9.78148 -2.07912 125
      vertex -6.71645 -1.97213 125
      vertex -7 0 125
    endloop
  endfacet
  facet normal -0 0 1
    outer loop
      vertex -9.78148 2.07912 125
      vertex -6.71645 1.97213 125
      vertex -9.13545 4.06737 125
    endloop
  endfacet
  facet normal 0 0 1
    outer loop
      vertex -4.58402 -5.29025 125
      vertex -8.09017 -5.87785 125
      vertex -6.69131 -7.43145 125
    endloop
  endfacet
  facet normal 0 0 1
    outer loop
      vertex -6.71645 1.97213 125
      vertex -9.78148 2.07912 125
      vertex -7 0 125
    endloop
  endfacet
  facet normal 0 0 1
    outer loop
      vertex -5.88877 -3.78448 125
      vertex -9.13545 -4.06737 125
      vertex -8.09017 -5.87785 125
    endloop
  endfacet
  facet normal 0 0 1
    outer loop
      vertex -10 0 125
      vertex -7 0 125
      vertex -9.78148 2.07912 125
    endloop
  endfacet
  facet normal 0 0 1
    outer loop
      vertex -6.71645 -1.97213 125
      vertex -9.78148 -2.07912 125
      vertex -9.13545 -4.06737 125
    endloop
  endfacet
  facet normal 0 0 1
    outer loop
      vertex -7 0 125
      vertex -10 0 125
      vertex -9.78148 -2.07912 125
    endloop
  endfacet
  facet normal -0.951057 0.309017 0
    outer loop
      vertex -9.78148 2.07912 0
      vertex -9.13545 4.06737 125
      vertex -9.13545 4.06737 0
    endloop
  endfacet
  facet normal -0.951057 0.309017 0
    outer loop
      vertex -9.13545 4.06737 125
      vertex -9.78148 2.07912 0
      vertex -9.78148 2.07912 125
    endloop
  endfacet
  facet normal 0.866026 -0.5 0
    outer loop
      vertex 8.09017 -5.87785 125
      vertex 9.13545 -4.06737 0
      vertex 9.13545 -4.06737 125
    endloop
  endfacet
  facet normal 0.866026 -0.5 0
    outer loop
      vertex 9.13545 -4.06737 0
      vertex 8.09017 -5.87785 125
      vertex 8.09017 -5.87785 0
    endloop
  endfacet
  facet normal 0 -1 0
    outer loop
      vertex -1.04528 -9.94522 0
      vertex 1.04528 -9.94522 125
      vertex -1.04528 -9.94522 125
    endloop
  endfacet
  facet normal 0 -1 -0
    outer loop
      vertex 1.04528 -9.94522 125
      vertex -1.04528 -9.94522 0
      vertex 1.04528 -9.94522 0
    endloop
  endfacet
  facet normal 0 0 -1
    outer loop
      vertex 7 0 0
      vertex 10 0 0
      vertex 9.78148 -2.07912 0
    endloop
  endfacet
  facet normal 0 0 -1
    outer loop
      vertex 6.71645 -1.97213 0
      vertex 9.78148 -2.07912 0
      vertex 9.13545 -4.06737 0
    endloop
  endfacet
  facet normal 0 0 -1
    outer loop
      vertex 10 0 0
      vertex 7 0 0
      vertex 9.78148 2.07912 0
    endloop
  endfacet
  facet normal 0 0 -1
    outer loop
      vertex 5.88877 -3.78448 0
      vertex 9.13545 -4.06737 0
      vertex 8.09017 -5.87785 0
    endloop
  endfacet
  facet normal 0 0 -1
    outer loop
      vertex 6.71645 1.97213 0
      vertex 9.78148 2.07912 0
      vertex 7 0 0
    endloop
  endfacet
  facet normal -0 0 -1
    outer loop
      vertex 9.78148 2.07912 0
      vertex 6.71645 1.97213 0
      vertex 9.13545 4.06737 0
    endloop
  endfacet
  facet normal 0 0 -1
    outer loop
      vertex 9.78148 -2.07912 0
      vertex 6.71645 -1.97213 0
      vertex 7 0 0
    endloop
  endfacet
  facet normal 0 0 -1
    outer loop
      vertex 4.58402 -5.29025 0
      vertex 8.09017 -5.87785 0
      vertex 6.69131 -7.43145 0
    endloop
  endfacet
  facet normal 0 0 -1
    outer loop
      vertex 9.13545 -4.06737 0
      vertex 5.88877 -3.78448 0
      vertex 6.71645 -1.97213 0
    endloop
  endfacet
  facet normal 0 0 -1
    outer loop
      vertex 4.58402 -5.29025 0
      vertex 6.69131 -7.43145 0
      vertex 5 -8.66025 0
    endloop
  endfacet
  facet normal 0 0 -1
    outer loop
      vertex 8.09017 -5.87785 0
      vertex 4.58402 -5.29025 0
      vertex 5.88877 -3.78448 0
    endloop
  endfacet
  facet normal 0 0 -1
    outer loop
      vertex 2.9079 -6.36742 0
      vertex 5 -8.66025 0
      vertex 3.09017 -9.51056 0
    endloop
  endfacet
  facet normal 0 0 -1
    outer loop
      vertex 5 -8.66025 0
      vertex 2.9079 -6.36742 0
      vertex 4.58402 -5.29025 0
    endloop
  endfacet
  facet normal 0 0 -1
    outer loop
      vertex 0.996203 -6.92875 0
      vertex 3.09017 -9.51056 0
      vertex 1.04528 -9.94522 0
    endloop
  endfacet
  facet normal 0 0 -1
    outer loop
      vertex 3.09017 -9.51056 0
      vertex 0.996203 -6.92875 0
      vertex 2.9079 -6.36742 0
    endloop
  endfacet
  facet normal 0 0 -1
    outer loop
      vertex 1.04528 -9.94522 0
      vertex -0.996203 -6.92875 0
      vertex 0.996203 -6.92875 0
    endloop
  endfacet
  facet normal 0 0 -1
    outer loop
      vertex -1.04528 -9.94522 0
      vertex -0.996203 -6.92875 0
      vertex 1.04528 -9.94522 0
    endloop
  endfacet
  facet normal 0 0 -1
    outer loop
      vertex -3.09017 -9.51056 0
      vertex -0.996203 -6.92875 0
      vertex -1.04528 -9.94522 0
    endloop
  endfacet
  facet normal -0 0 -1
    outer loop
      vertex -0.996203 -6.92875 0
      vertex -3.09017 -9.51056 0
      vertex -2.9079 -6.36742 0
    endloop
  endfacet
  facet normal 0 0 -1
    outer loop
      vertex -5 -8.66025 0
      vertex -2.9079 -6.36742 0
      vertex -3.09017 -9.51056 0
    endloop
  endfacet
  facet normal -0 0 -1
    outer loop
      vertex -2.9079 -6.36742 0
      vertex -5 -8.66025 0
      vertex -4.58402 -5.29025 0
    endloop
  endfacet
  facet normal 0 0 -1
    outer loop
      vertex -6.69131 -7.43145 0
      vertex -4.58402 -5.29025 0
      vertex -5 -8.66025 0
    endloop
  endfacet
  facet normal 0 0 -1
    outer loop
      vertex -8.09017 -5.87785 0
      vertex -4.58402 -5.29025 0
      vertex -6.69131 -7.43145 0
    endloop
  endfacet
  facet normal -0 0 -1
    outer loop
      vertex -4.58402 -5.29025 0
      vertex -8.09017 -5.87785 0
      vertex -5.88877 -3.78448 0
    endloop
  endfacet
  facet normal 0 0 -1
    outer loop
      vertex -9.13545 -4.06737 0
      vertex -5.88877 -3.78448 0
      vertex -8.09017 -5.87785 0
    endloop
  endfacet
  facet normal -0 0 -1
    outer loop
      vertex -5.88877 -3.78448 0
      vertex -9.13545 -4.06737 0
      vertex -6.71645 -1.97213 0
    endloop
  endfacet
  facet normal 0 0 -1
    outer loop
      vertex 5.88877 3.78448 0
      vertex 9.13545 4.06737 0
      vertex 6.71645 1.97213 0
    endloop
  endfacet
  facet normal -0 0 -1
    outer loop
      vertex 9.13545 4.06737 0
      vertex 5.88877 3.78448 0
      vertex 8.09017 5.87785 0
    endloop
  endfacet
  facet normal 0 0 -1
    outer loop
      vertex 4.58402 5.29025 0
      vertex 8.09017 5.87785 0
      vertex 5.88877 3.78448 0
    endloop
  endfacet
  facet normal -0 0 -1
    outer loop
      vertex 8.09017 5.87785 0
      vertex 4.58402 5.29025 0
      vertex 6.69131 7.43145 0
    endloop
  endfacet
  facet normal -0 0 -1
    outer loop
      vertex 6.69131 7.43145 0
      vertex 4.58402 5.29025 0
      vertex 5 8.66025 0
    endloop
  endfacet
  facet normal 0 0 -1
    outer loop
      vertex 2.9079 6.36742 0
      vertex 5 8.66025 0
      vertex 4.58402 5.29025 0
    endloop
  endfacet
  facet normal -0 0 -1
    outer loop
      vertex 5 8.66025 0
      vertex 2.9079 6.36742 0
      vertex 3.09017 9.51056 0
    endloop
  endfacet
  facet normal 0 0 -1
    outer loop
      vertex 0.996203 6.92875 0
      vertex 3.09017 9.51056 0
      vertex 2.9079 6.36742 0
    endloop
  endfacet
  facet normal -0 0 -1
    outer loop
      vertex 3.09017 9.51056 0
      vertex 0.996203 6.92875 0
      vertex 1.04528 9.94522 0
    endloop
  endfacet
  facet normal 0 0 -1
    outer loop
      vertex -0.996203 6.92875 0
      vertex 1.04528 9.94522 0
      vertex 0.996203 6.92875 0
    endloop
  endfacet
  facet normal 0 0 -1
    outer loop
      vertex -0.996203 6.92875 0
      vertex -1.04528 9.94522 0
      vertex 1.04528 9.94522 0
    endloop
  endfacet
  facet normal 0 0 -1
    outer loop
      vertex -3.09017 9.51056 0
      vertex -0.996203 6.92875 0
      vertex -2.9079 6.36742 0
    endloop
  endfacet
  facet normal 0 0 -1
    outer loop
      vertex -0.996203 6.92875 0
      vertex -3.09017 9.51056 0
      vertex -1.04528 9.94522 0
    endloop
  endfacet
  facet normal 0 0 -1
    outer loop
      vertex -5 8.66025 0
      vertex -2.9079 6.36742 0
      vertex -4.58402 5.29025 0
    endloop
  endfacet
  facet normal 0 0 -1
    outer loop
      vertex -2.9079 6.36742 0
      vertex -5 8.66025 0
      vertex -3.09017 9.51056 0
    endloop
  endfacet
  facet normal 0 0 -1
    outer loop
      vertex -8.09017 5.87785 0
      vertex -4.58402 5.29025 0
      vertex -5.88877 3.78448 0
    endloop
  endfacet
  facet normal 0 0 -1
    outer loop
      vertex -4.58402 5.29025 0
      vertex -6.69131 7.43145 0
      vertex -5 8.66025 0
    endloop
  endfacet
  facet normal 0 0 -1
    outer loop
      vertex -9.13545 4.06737 0
      vertex -5.88877 3.78448 0
      vertex -6.71645 1.97213 0
    endloop
  endfacet
  facet normal 0 0 -1
    outer loop
      vertex -9.78148 2.07912 0
      vertex -6.71645 1.97213 0
      vertex -7 0 0
    endloop
  endfacet
  facet normal 0 0 -1
    outer loop
      vertex -9.78148 -2.07912 0
      vertex -6.71645 -1.97213 0
      vertex -9.13545 -4.06737 0
    endloop
  endfacet
  facet normal 0 0 -1
    outer loop
      vertex -4.58402 5.29025 0
      vertex -8.09017 5.87785 0
      vertex -6.69131 7.43145 0
    endloop
  endfacet
  facet normal -0 0 -1
    outer loop
      vertex -6.71645 -1.97213 0
      vertex -9.78148 -2.07912 0
      vertex -7 0 0
    endloop
  endfacet
  facet normal 0 0 -1
    outer loop
      vertex -5.88877 3.78448 0
      vertex -9.13545 4.06737 0
      vertex -8.09017 5.87785 0
    endloop
  endfacet
  facet normal 0 0 -1
    outer loop
      vertex -10 0 0
      vertex -7 0 0
      vertex -9.78148 -2.07912 0
    endloop
  endfacet
  facet normal 0 0 -1
    outer loop
      vertex -6.71645 1.97213 0
      vertex -9.78148 2.07912 0
      vertex -9.13545 4.06737 0
    endloop
  endfacet
  facet normal 0 0 -1
    outer loop
      vertex -7 0 0
      vertex -10 0 0
      vertex -9.78148 2.07912 0
    endloop
  endfacet
  facet normal 0.207911 -0.978148 0
    outer loop
      vertex 1.04528 -9.94522 0
      vertex 3.09017 -9.51056 125
      vertex 1.04528 -9.94522 125
    endloop
  endfacet
  facet normal 0.207911 -0.978148 0
    outer loop
      vertex 3.09017 -9.51056 125
      vertex 1.04528 -9.94522 0
      vertex 3.09017 -9.51056 0
    endloop
  endfacet
  facet normal 0.406737 -0.913545 0
    outer loop
      vertex 3.09017 -9.51056 0
      vertex 5 -8.66025 125
      vertex 3.09017 -9.51056 125
    endloop
  endfacet
  facet normal 0.406737 -0.913545 0
    outer loop
      vertex 5 -8.66025 125
      vertex 3.09017 -9.51056 0
      vertex 5 -8.66025 0
    endloop
  endfacet
  facet normal -0.207911 -0.978148 0
    outer loop
      vertex -3.09017 -9.51056 0
      vertex -1.04528 -9.94522 125
      vertex -3.09017 -9.51056 125
    endloop
  endfacet
  facet normal -0.207911 -0.978148 -0
    outer loop
      vertex -1.04528 -9.94522 125
      vertex -3.09017 -9.51056 0
      vertex -1.04528 -9.94522 0
    endloop
  endfacet
  facet normal -0.951057 -0.309017 0
    outer loop
      vertex -9.13545 -4.06737 0
      vertex -9.78148 -2.07912 125
      vertex -9.78148 -2.07912 0
    endloop
  endfacet
  facet normal -0.951057 -0.309017 0
    outer loop
      vertex -9.78148 -2.07912 125
      vertex -9.13545 -4.06737 0
      vertex -9.13545 -4.06737 125
    endloop
  endfacet
  facet normal -0.994522 -0.104529 0
    outer loop
      vertex -9.78148 -2.07912 0
      vertex -10 0 125
      vertex -10 0 0
    endloop
  endfacet
  facet normal -0.994522 -0.104529 0
    outer loop
      vertex -10 0 125
      vertex -9.78148 -2.07912 0
      vertex -9.78148 -2.07912 125
    endloop
  endfacet
  facet normal -0.743145 -0.669131 0
    outer loop
      vertex -6.69131 -7.43145 0
      vertex -8.09017 -5.87785 125
      vertex -8.09017 -5.87785 0
    endloop
  endfacet
  facet normal -0.743145 -0.669131 0
    outer loop
      vertex -8.09017 -5.87785 125
      vertex -6.69131 -7.43145 0
      vertex -6.69131 -7.43145 125
    endloop
  endfacet
  facet normal 0.743145 -0.669131 0
    outer loop
      vertex 6.69131 -7.43145 125
      vertex 8.09017 -5.87785 0
      vertex 8.09017 -5.87785 125
    endloop
  endfacet
  facet normal 0.743145 -0.669131 0
    outer loop
      vertex 8.09017 -5.87785 0
      vertex 6.69131 -7.43145 125
      vertex 6.69131 -7.43145 0
    endloop
  endfacet
  facet normal -0.406737 -0.913545 0
    outer loop
      vertex -5 -8.66025 0
      vertex -3.09017 -9.51056 125
      vertex -5 -8.66025 125
    endloop
  endfacet
  facet normal -0.406737 -0.913545 -0
    outer loop
      vertex -3.09017 -9.51056 125
      vertex -5 -8.66025 0
      vertex -3.09017 -9.51056 0
    endloop
  endfacet
  facet normal -0.587785 -0.809017 0
    outer loop
      vertex -6.69131 -7.43145 0
      vertex -5 -8.66025 125
      vertex -6.69131 -7.43145 125
    endloop
  endfacet
  facet normal -0.587785 -0.809017 -0
    outer loop
      vertex -5 -8.66025 125
      vertex -6.69131 -7.43145 0
      vertex -5 -8.66025 0
    endloop
  endfacet
  facet normal -0.989821 -0.142315 0
    outer loop
      vertex 7 0 0
      vertex 6.71645 1.97213 10
      vertex 6.71645 1.97213 0
    endloop
  endfacet
  facet normal -0.989821 -0.142315 0
    outer loop
      vertex 6.71645 1.97213 10
      vertex 7 0 0
      vertex 7 0 10
    endloop
  endfacet
  facet normal 0.989821 -0.142315 0
    outer loop
      vertex -7 0 10
      vertex -6.71645 1.97213 0
      vertex -6.71645 1.97213 10
    endloop
  endfacet
  facet normal 0.989821 -0.142315 0
    outer loop
      vertex -6.71645 1.97213 0
      vertex -7 0 10
      vertex -7 0 0
    endloop
  endfacet
  facet normal 0 -1 0
    outer loop
      vertex -0.996203 6.92875 0
      vertex 0.996203 6.92875 10
      vertex -0.996203 6.92875 10
    endloop
  endfacet
  facet normal 0 -1 -0
    outer loop
      vertex 0.996203 6.92875 10
      vertex -0.996203 6.92875 0
      vertex 0.996203 6.92875 0
    endloop
  endfacet
  facet normal 0 1 -0
    outer loop
      vertex 0.996203 -6.92875 0
      vertex -0.996203 -6.92875 10
      vertex 0.996203 -6.92875 10
    endloop
  endfacet
  facet normal 0 1 0
    outer loop
      vertex -0.996203 -6.92875 10
      vertex 0.996203 -6.92875 0
      vertex -0.996203 -6.92875 0
    endloop
  endfacet
  facet normal -0.75575 -0.654861 0
    outer loop
      vertex 5.88877 3.78448 0
      vertex 4.58402 5.29025 10
      vertex 4.58402 5.29025 0
    endloop
  endfacet
  facet normal -0.75575 -0.654861 0
    outer loop
      vertex 4.58402 5.29025 10
      vertex 5.88877 3.78448 0
      vertex 5.88877 3.78448 10
    endloop
  endfacet
  facet normal -0.909632 -0.415415 0
    outer loop
      vertex 6.71645 1.97213 0
      vertex 5.88877 3.78448 10
      vertex 5.88877 3.78448 0
    endloop
  endfacet
  facet normal -0.909632 -0.415415 0
    outer loop
      vertex 5.88877 3.78448 10
      vertex 6.71645 1.97213 0
      vertex 6.71645 1.97213 10
    endloop
  endfacet
  facet normal 0.540641 -0.841254 0
    outer loop
      vertex -4.58402 5.29025 0
      vertex -2.9079 6.36742 10
      vertex -4.58402 5.29025 10
    endloop
  endfacet
  facet normal 0.540641 -0.841254 0
    outer loop
      vertex -2.9079 6.36742 10
      vertex -4.58402 5.29025 0
      vertex -2.9079 6.36742 0
    endloop
  endfacet
  facet normal 0 0 -1
    outer loop
      vertex 5 0 10
      vertex 7 0 10
      vertex 6.71645 -1.97213 10
    endloop
  endfacet
  facet normal 0 0 -1
    outer loop
      vertex 4.6194 -1.91342 10
      vertex 6.71645 -1.97213 10
      vertex 5.88877 -3.78448 10
    endloop
  endfacet
  facet normal 0 0 -1
    outer loop
      vertex 7 0 10
      vertex 5 0 10
      vertex 6.71645 1.97213 10
    endloop
  endfacet
  facet normal 0 0 -1
    outer loop
      vertex 4.6194 1.91342 10
      vertex 6.71645 1.97213 10
      vertex 5 0 10
    endloop
  endfacet
  facet normal 0 0 -1
    outer loop
      vertex 6.71645 -1.97213 10
      vertex 4.6194 -1.91342 10
      vertex 5 0 10
    endloop
  endfacet
  facet normal 0 0 -1
    outer loop
      vertex 3.53553 -3.53553 10
      vertex 5.88877 -3.78448 10
      vertex 4.58402 -5.29025 10
    endloop
  endfacet
  facet normal 0 0 -1
    outer loop
      vertex 5.88877 -3.78448 10
      vertex 3.53553 -3.53553 10
      vertex 4.6194 -1.91342 10
    endloop
  endfacet
  facet normal 0 0 -1
    outer loop
      vertex 1.91342 -4.6194 10
      vertex 4.58402 -5.29025 10
      vertex 2.9079 -6.36742 10
    endloop
  endfacet
  facet normal 0 0 -1
    outer loop
      vertex 4.58402 -5.29025 10
      vertex 1.91342 -4.6194 10
      vertex 3.53553 -3.53553 10
    endloop
  endfacet
  facet normal 0 0 -1
    outer loop
      vertex 0.996203 -6.92875 10
      vertex 1.91342 -4.6194 10
      vertex 2.9079 -6.36742 10
    endloop
  endfacet
  facet normal 0 0 -1
    outer loop
      vertex 0.996203 -6.92875 10
      vertex 0 -5 10
      vertex 1.91342 -4.6194 10
    endloop
  endfacet
  facet normal 0 0 -1
    outer loop
      vertex -0.996203 -6.92875 10
      vertex 0 -5 10
      vertex 0.996203 -6.92875 10
    endloop
  endfacet
  facet normal 0 0 -1
    outer loop
      vertex -0.996203 -6.92875 10
      vertex -1.91342 -4.6194 10
      vertex 0 -5 10
    endloop
  endfacet
  facet normal 0 0 -1
    outer loop
      vertex -2.9079 -6.36742 10
      vertex -1.91342 -4.6194 10
      vertex -0.996203 -6.92875 10
    endloop
  endfacet
  facet normal 0 0 -1
    outer loop
      vertex -4.58402 -5.29025 10
      vertex -1.91342 -4.6194 10
      vertex -2.9079 -6.36742 10
    endloop
  endfacet
  facet normal -0 0 -1
    outer loop
      vertex -1.91342 -4.6194 10
      vertex -4.58402 -5.29025 10
      vertex -3.53553 -3.53553 10
    endloop
  endfacet
  facet normal 0 0 -1
    outer loop
      vertex -5.88877 -3.78448 10
      vertex -3.53553 -3.53553 10
      vertex -4.58402 -5.29025 10
    endloop
  endfacet
  facet normal -0 0 -1
    outer loop
      vertex -3.53553 -3.53553 10
      vertex -5.88877 -3.78448 10
      vertex -4.6194 -1.91342 10
    endloop
  endfacet
  facet normal 0 0 -1
    outer loop
      vertex -6.71645 -1.97213 10
      vertex -4.6194 -1.91342 10
      vertex -5.88877 -3.78448 10
    endloop
  endfacet
  facet normal -0 0 -1
    outer loop
      vertex 6.71645 1.97213 10
      vertex 4.6194 1.91342 10
      vertex 5.88877 3.78448 10
    endloop
  endfacet
  facet normal 0 0 -1
    outer loop
      vertex 3.53553 3.53553 10
      vertex 5.88877 3.78448 10
      vertex 4.6194 1.91342 10
    endloop
  endfacet
  facet normal -0 0 -1
    outer loop
      vertex 5.88877 3.78448 10
      vertex 3.53553 3.53553 10
      vertex 4.58402 5.29025 10
    endloop
  endfacet
  facet normal 0 0 -1
    outer loop
      vertex 1.91342 4.6194 10
      vertex 4.58402 5.29025 10
      vertex 3.53553 3.53553 10
    endloop
  endfacet
  facet normal -0 0 -1
    outer loop
      vertex 4.58402 5.29025 10
      vertex 1.91342 4.6194 10
      vertex 2.9079 6.36742 10
    endloop
  endfacet
  facet normal 0 0 -1
    outer loop
      vertex 1.91342 4.6194 10
      vertex 0.996203 6.92875 10
      vertex 2.9079 6.36742 10
    endloop
  endfacet
  facet normal 0 0 -1
    outer loop
      vertex 0 5 10
      vertex 0.996203 6.92875 10
      vertex 1.91342 4.6194 10
    endloop
  endfacet
  facet normal 0 0 -1
    outer loop
      vertex 0 5 10
      vertex -0.996203 6.92875 10
      vertex 0.996203 6.92875 10
    endloop
  endfacet
  facet normal 0 0 -1
    outer loop
      vertex -1.91342 4.6194 10
      vertex -0.996203 6.92875 10
      vertex 0 5 10
    endloop
  endfacet
  facet normal 0 0 -1
    outer loop
      vertex -1.91342 4.6194 10
      vertex -2.9079 6.36742 10
      vertex -0.996203 6.92875 10
    endloop
  endfacet
  facet normal 0 0 -1
    outer loop
      vertex -4.58402 5.29025 10
      vertex -1.91342 4.6194 10
      vertex -3.53553 3.53553 10
    endloop
  endfacet
  facet normal 0 0 -1
    outer loop
      vertex -1.91342 4.6194 10
      vertex -4.58402 5.29025 10
      vertex -2.9079 6.36742 10
    endloop
  endfacet
  facet normal 0 0 -1
    outer loop
      vertex -5.88877 3.78448 10
      vertex -3.53553 3.53553 10
      vertex -4.6194 1.91342 10
    endloop
  endfacet
  facet normal 0 0 -1
    outer loop
      vertex -6.71645 1.97213 10
      vertex -4.6194 1.91342 10
      vertex -5 0 10
    endloop
  endfacet
  facet normal -0 0 -1
    outer loop
      vertex -4.6194 -1.91342 10
      vertex -6.71645 -1.97213 10
      vertex -5 0 10
    endloop
  endfacet
  facet normal 0 0 -1
    outer loop
      vertex -3.53553 3.53553 10
      vertex -5.88877 3.78448 10
      vertex -4.58402 5.29025 10
    endloop
  endfacet
  facet normal 0 0 -1
    outer loop
      vertex -7 0 10
      vertex -5 0 10
      vertex -6.71645 -1.97213 10
    endloop
  endfacet
  facet normal 0 0 -1
    outer loop
      vertex -4.6194 1.91342 10
      vertex -6.71645 1.97213 10
      vertex -5.88877 3.78448 10
    endloop
  endfacet
  facet normal 0 0 -1
    outer loop
      vertex -5 0 10
      vertex -7 0 10
      vertex -6.71645 1.97213 10
    endloop
  endfacet
  facet normal 0.281733 -0.959493 0
    outer loop
      vertex -2.9079 6.36742 0
      vertex -0.996203 6.92875 10
      vertex -2.9079 6.36742 10
    endloop
  endfacet
  facet normal 0.281733 -0.959493 0
    outer loop
      vertex -0.996203 6.92875 10
      vertex -2.9079 6.36742 0
      vertex -0.996203 6.92875 0
    endloop
  endfacet
  facet normal -0.281733 -0.959493 0
    outer loop
      vertex 0.996203 6.92875 0
      vertex 2.9079 6.36742 10
      vertex 0.996203 6.92875 10
    endloop
  endfacet
  facet normal -0.281733 -0.959493 -0
    outer loop
      vertex 2.9079 6.36742 10
      vertex 0.996203 6.92875 0
      vertex 2.9079 6.36742 0
    endloop
  endfacet
  facet normal -0.540641 -0.841254 0
    outer loop
      vertex 2.9079 6.36742 0
      vertex 4.58402 5.29025 10
      vertex 2.9079 6.36742 10
    endloop
  endfacet
  facet normal -0.540641 -0.841254 -0
    outer loop
      vertex 4.58402 5.29025 10
      vertex 2.9079 6.36742 0
      vertex 4.58402 5.29025 0
    endloop
  endfacet
  facet normal 0.75575 -0.654861 0
    outer loop
      vertex -5.88877 3.78448 10
      vertex -4.58402 5.29025 0
      vertex -4.58402 5.29025 10
    endloop
  endfacet
  facet normal 0.75575 -0.654861 0
    outer loop
      vertex -4.58402 5.29025 0
      vertex -5.88877 3.78448 10
      vertex -5.88877 3.78448 0
    endloop
  endfacet
  facet normal 0.909632 -0.415415 0
    outer loop
      vertex -6.71645 1.97213 10
      vertex -5.88877 3.78448 0
      vertex -5.88877 3.78448 10
    endloop
  endfacet
  facet normal 0.909632 -0.415415 0
    outer loop
      vertex -5.88877 3.78448 0
      vertex -6.71645 1.97213 10
      vertex -6.71645 1.97213 0
    endloop
  endfacet
  facet normal 0.989821 0.142315 0
    outer loop
      vertex -6.71645 -1.97213 10
      vertex -7 0 0
      vertex -7 0 10
    endloop
  endfacet
  facet normal 0.989821 0.142315 0
    outer loop
      vertex -7 0 0
      vertex -6.71645 -1.97213 10
      vertex -6.71645 -1.97213 0
    endloop
  endfacet
  facet normal -0.75575 0.654861 0
    outer loop
      vertex 4.58402 -5.29025 0
      vertex 5.88877 -3.78448 10
      vertex 5.88877 -3.78448 0
    endloop
  endfacet
  facet normal -0.75575 0.654861 0
    outer loop
      vertex 5.88877 -3.78448 10
      vertex 4.58402 -5.29025 0
      vertex 4.58402 -5.29025 10
    endloop
  endfacet
  facet normal -0.909632 0.415415 0
    outer loop
      vertex 5.88877 -3.78448 0
      vertex 6.71645 -1.97213 10
      vertex 6.71645 -1.97213 0
    endloop
  endfacet
  facet normal -0.909632 0.415415 0
    outer loop
      vertex 6.71645 -1.97213 10
      vertex 5.88877 -3.78448 0
      vertex 5.88877 -3.78448 10
    endloop
  endfacet
  facet normal 0.540641 0.841254 -0
    outer loop
      vertex -2.9079 -6.36742 0
      vertex -4.58402 -5.29025 10
      vertex -2.9079 -6.36742 10
    endloop
  endfacet
  facet normal 0.540641 0.841254 0
    outer loop
      vertex -4.58402 -5.29025 10
      vertex -2.9079 -6.36742 0
      vertex -4.58402 -5.29025 0
    endloop
  endfacet
  facet normal 0.909632 0.415415 0
    outer loop
      vertex -5.88877 -3.78448 10
      vertex -6.71645 -1.97213 0
      vertex -6.71645 -1.97213 10
    endloop
  endfacet
  facet normal 0.909632 0.415415 0
    outer loop
      vertex -6.71645 -1.97213 0
      vertex -5.88877 -3.78448 10
      vertex -5.88877 -3.78448 0
    endloop
  endfacet
  facet normal 0.75575 0.654861 0
    outer loop
      vertex -4.58402 -5.29025 10
      vertex -5.88877 -3.78448 0
      vertex -5.88877 -3.78448 10
    endloop
  endfacet
  facet normal 0.75575 0.654861 0
    outer loop
      vertex -5.88877 -3.78448 0
      vertex -4.58402 -5.29025 10
      vertex -4.58402 -5.29025 0
    endloop
  endfacet
  facet normal -0.281733 0.959493 0
    outer loop
      vertex 2.9079 -6.36742 0
      vertex 0.996203 -6.92875 10
      vertex 2.9079 -6.36742 10
    endloop
  endfacet
  facet normal -0.281733 0.959493 0
    outer loop
      vertex 0.996203 -6.92875 10
      vertex 2.9079 -6.36742 0
      vertex 0.996203 -6.92875 0
    endloop
  endfacet
  facet normal -0.989821 0.142315 0
    outer loop
      vertex 6.71645 -1.97213 0
      vertex 7 0 10
      vertex 7 0 0
    endloop
  endfacet
  facet normal -0.989821 0.142315 0
    outer loop
      vertex 7 0 10
      vertex 6.71645 -1.97213 0
      vertex 6.71645 -1.97213 10
    endloop
  endfacet
  facet normal 0.281733 0.959493 -0
    outer loop
      vertex -0.996203 -6.92875 0
      vertex -2.9079 -6.36742 10
      vertex -0.996203 -6.92875 10
    endloop
  endfacet
  facet normal 0.281733 0.959493 0
    outer loop
      vertex -2.9079 -6.36742 10
      vertex -0.996203 -6.92875 0
      vertex -2.9079 -6.36742 0
    endloop
  endfacet
  facet normal -0.540641 0.841254 0
    outer loop
      vertex 4.58402 -5.29025 0
      vertex 2.9079 -6.36742 10
      vertex 4.58402 -5.29025 10
    endloop
  endfacet
  facet normal -0.540641 0.841254 0
    outer loop
      vertex 2.9079 -6.36742 10
      vertex 4.58402 -5.29025 0
      vertex 2.9079 -6.36742 0
    endloop
  endfacet
  facet normal 0.989821 0.142315 0
    outer loop
      vertex 7 0 135
      vertex 6.71645 1.97213 125
      vertex 6.71645 1.97213 135
    endloop
  endfacet
  facet normal 0.989821 0.142315 0
    outer loop
      vertex 6.71645 1.97213 125
      vertex 7 0 135
      vertex 7 0 125
    endloop
  endfacet
  facet normal -0.989821 0.142315 0
    outer loop
      vertex -7 0 125
      vertex -6.71645 1.97213 135
      vertex -6.71645 1.97213 125
    endloop
  endfacet
  facet normal -0.989821 0.142315 0
    outer loop
      vertex -6.71645 1.97213 135
      vertex -7 0 125
      vertex -7 0 135
    endloop
  endfacet
  facet normal 0 1 -0
    outer loop
      vertex 0.996203 6.92875 125
      vertex -0.996203 6.92875 135
      vertex 0.996203 6.92875 135
    endloop
  endfacet
  facet normal 0 1 0
    outer loop
      vertex -0.996203 6.92875 135
      vertex 0.996203 6.92875 125
      vertex -0.996203 6.92875 125
    endloop
  endfacet
  facet normal 0 -1 0
    outer loop
      vertex -0.996203 -6.92875 125
      vertex 0.996203 -6.92875 135
      vertex -0.996203 -6.92875 135
    endloop
  endfacet
  facet normal 0 -1 -0
    outer loop
      vertex 0.996203 -6.92875 135
      vertex -0.996203 -6.92875 125
      vertex 0.996203 -6.92875 125
    endloop
  endfacet
  facet normal 0.75575 0.654861 0
    outer loop
      vertex 5.88877 3.78448 135
      vertex 4.58402 5.29025 125
      vertex 4.58402 5.29025 135
    endloop
  endfacet
  facet normal 0.75575 0.654861 0
    outer loop
      vertex 4.58402 5.29025 125
      vertex 5.88877 3.78448 135
      vertex 5.88877 3.78448 125
    endloop
  endfacet
  facet normal 0.909632 0.415415 0
    outer loop
      vertex 6.71645 1.97213 135
      vertex 5.88877 3.78448 125
      vertex 5.88877 3.78448 135
    endloop
  endfacet
  facet normal 0.909632 0.415415 0
    outer loop
      vertex 5.88877 3.78448 125
      vertex 6.71645 1.97213 135
      vertex 6.71645 1.97213 125
    endloop
  endfacet
  facet normal -0.540641 0.841254 0
    outer loop
      vertex -2.9079 6.36742 125
      vertex -4.58402 5.29025 135
      vertex -2.9079 6.36742 135
    endloop
  endfacet
  facet normal -0.540641 0.841254 0
    outer loop
      vertex -4.58402 5.29025 135
      vertex -2.9079 6.36742 125
      vertex -4.58402 5.29025 125
    endloop
  endfacet
  facet normal 0 0 1
    outer loop
      vertex 5 0 135
      vertex 7 0 135
      vertex 6.71645 1.97213 135
    endloop
  endfacet
  facet normal 0 0 1
    outer loop
      vertex 4.6194 1.91342 135
      vertex 6.71645 1.97213 135
      vertex 5.88877 3.78448 135
    endloop
  endfacet
  facet normal 0 0 1
    outer loop
      vertex 7 0 135
      vertex 5 0 135
      vertex 6.71645 -1.97213 135
    endloop
  endfacet
  facet normal -0 0 1
    outer loop
      vertex 4.6194 -1.91342 135
      vertex 6.71645 -1.97213 135
      vertex 5 0 135
    endloop
  endfacet
  facet normal 0 0 1
    outer loop
      vertex 6.71645 1.97213 135
      vertex 4.6194 1.91342 135
      vertex 5 0 135
    endloop
  endfacet
  facet normal 0 0 1
    outer loop
      vertex 3.53553 3.53553 135
      vertex 5.88877 3.78448 135
      vertex 4.58402 5.29025 135
    endloop
  endfacet
  facet normal 0 0 1
    outer loop
      vertex 5.88877 3.78448 135
      vertex 3.53553 3.53553 135
      vertex 4.6194 1.91342 135
    endloop
  endfacet
  facet normal 0 0 1
    outer loop
      vertex 1.91342 4.6194 135
      vertex 4.58402 5.29025 135
      vertex 2.9079 6.36742 135
    endloop
  endfacet
  facet normal 0 0 1
    outer loop
      vertex 4.58402 5.29025 135
      vertex 1.91342 4.6194 135
      vertex 3.53553 3.53553 135
    endloop
  endfacet
  facet normal 0 0 1
    outer loop
      vertex 0.996203 6.92875 135
      vertex 1.91342 4.6194 135
      vertex 2.9079 6.36742 135
    endloop
  endfacet
  facet normal 0 0 1
    outer loop
      vertex 0.996203 6.92875 135
      vertex 0 5 135
      vertex 1.91342 4.6194 135
    endloop
  endfacet
  facet normal -0 0 1
    outer loop
      vertex -0.996203 6.92875 135
      vertex 0 5 135
      vertex 0.996203 6.92875 135
    endloop
  endfacet
  facet normal 0 0 1
    outer loop
      vertex -0.996203 6.92875 135
      vertex -1.91342 4.6194 135
      vertex 0 5 135
    endloop
  endfacet
  facet normal -0 0 1
    outer loop
      vertex -2.9079 6.36742 135
      vertex -1.91342 4.6194 135
      vertex -0.996203 6.92875 135
    endloop
  endfacet
  facet normal -0 0 1
    outer loop
      vertex -4.58402 5.29025 135
      vertex -1.91342 4.6194 135
      vertex -2.9079 6.36742 135
    endloop
  endfacet
  facet normal 0 0 1
    outer loop
      vertex -1.91342 4.6194 135
      vertex -4.58402 5.29025 135
      vertex -3.53553 3.53553 135
    endloop
  endfacet
  facet normal -0 0 1
    outer loop
      vertex -5.88877 3.78448 135
      vertex -3.53553 3.53553 135
      vertex -4.58402 5.29025 135
    endloop
  endfacet
  facet normal 0 0 1
    outer loop
      vertex -3.53553 3.53553 135
      vertex -5.88877 3.78448 135
      vertex -4.6194 1.91342 135
    endloop
  endfacet
  facet normal -0 0 1
    outer loop
      vertex -6.71645 1.97213 135
      vertex -4.6194 1.91342 135
      vertex -5.88877 3.78448 135
    endloop
  endfacet
  facet normal 0 0 1
    outer loop
      vertex 6.71645 -1.97213 135
      vertex 4.6194 -1.91342 135
      vertex 5.88877 -3.78448 135
    endloop
  endfacet
  facet normal -0 0 1
    outer loop
      vertex 3.53553 -3.53553 135
      vertex 5.88877 -3.78448 135
      vertex 4.6194 -1.91342 135
    endloop
  endfacet
  facet normal 0 0 1
    outer loop
      vertex 5.88877 -3.78448 135
      vertex 3.53553 -3.53553 135
      vertex 4.58402 -5.29025 135
    endloop
  endfacet
  facet normal -0 0 1
    outer loop
      vertex 1.91342 -4.6194 135
      vertex 4.58402 -5.29025 135
      vertex 3.53553 -3.53553 135
    endloop
  endfacet
  facet normal 0 0 1
    outer loop
      vertex 4.58402 -5.29025 135
      vertex 1.91342 -4.6194 135
      vertex 2.9079 -6.36742 135
    endloop
  endfacet
  facet normal 0 0 1
    outer loop
      vertex 1.91342 -4.6194 135
      vertex 0.996203 -6.92875 135
      vertex 2.9079 -6.36742 135
    endloop
  endfacet
  facet normal -0 0 1
    outer loop
      vertex 0 -5 135
      vertex 0.996203 -6.92875 135
      vertex 1.91342 -4.6194 135
    endloop
  endfacet
  facet normal 0 0 1
    outer loop
      vertex 0 -5 135
      vertex -0.996203 -6.92875 135
      vertex 0.996203 -6.92875 135
    endloop
  endfacet
  facet normal 0 0 1
    outer loop
      vertex -1.91342 -4.6194 135
      vertex -0.996203 -6.92875 135
      vertex 0 -5 135
    endloop
  endfacet
  facet normal 0 0 1
    outer loop
      vertex -1.91342 -4.6194 135
      vertex -2.9079 -6.36742 135
      vertex -0.996203 -6.92875 135
    endloop
  endfacet
  facet normal 0 0 1
    outer loop
      vertex -4.58402 -5.29025 135
      vertex -1.91342 -4.6194 135
      vertex -3.53553 -3.53553 135
    endloop
  endfacet
  facet normal 0 0 1
    outer loop
      vertex -1.91342 -4.6194 135
      vertex -4.58402 -5.29025 135
      vertex -2.9079 -6.36742 135
    endloop
  endfacet
  facet normal 0 0 1
    outer loop
      vertex -5.88877 -3.78448 135
      vertex -3.53553 -3.53553 135
      vertex -4.6194 -1.91342 135
    endloop
  endfacet
  facet normal 0 0 1
    outer loop
      vertex -6.71645 -1.97213 135
      vertex -4.6194 -1.91342 135
      vertex -5 0 135
    endloop
  endfacet
  facet normal 0 0 1
    outer loop
      vertex -4.6194 1.91342 135
      vertex -6.71645 1.97213 135
      vertex -5 0 135
    endloop
  endfacet
  facet normal 0 0 1
    outer loop
      vertex -3.53553 -3.53553 135
      vertex -5.88877 -3.78448 135
      vertex -4.58402 -5.29025 135
    endloop
  endfacet
  facet normal 0 0 1
    outer loop
      vertex -7 0 135
      vertex -5 0 135
      vertex -6.71645 1.97213 135
    endloop
  endfacet
  facet normal 0 0 1
    outer loop
      vertex -4.6194 -1.91342 135
      vertex -6.71645 -1.97213 135
      vertex -5.88877 -3.78448 135
    endloop
  endfacet
  facet normal 0 0 1
    outer loop
      vertex -5 0 135
      vertex -7 0 135
      vertex -6.71645 -1.97213 135
    endloop
  endfacet
  facet normal -0.281733 0.959493 0
    outer loop
      vertex -0.996203 6.92875 125
      vertex -2.9079 6.36742 135
      vertex -0.996203 6.92875 135
    endloop
  endfacet
  facet normal -0.281733 0.959493 0
    outer loop
      vertex -2.9079 6.36742 135
      vertex -0.996203 6.92875 125
      vertex -2.9079 6.36742 125
    endloop
  endfacet
  facet normal 0.281733 0.959493 -0
    outer loop
      vertex 2.9079 6.36742 125
      vertex 0.996203 6.92875 135
      vertex 2.9079 6.36742 135
    endloop
  endfacet
  facet normal 0.281733 0.959493 0
    outer loop
      vertex 0.996203 6.92875 135
      vertex 2.9079 6.36742 125
      vertex 0.996203 6.92875 125
    endloop
  endfacet
  facet normal 0.540641 0.841254 -0
    outer loop
      vertex 4.58402 5.29025 125
      vertex 2.9079 6.36742 135
      vertex 4.58402 5.29025 135
    endloop
  endfacet
  facet normal 0.540641 0.841254 0
    outer loop
      vertex 2.9079 6.36742 135
      vertex 4.58402 5.29025 125
      vertex 2.9079 6.36742 125
    endloop
  endfacet
  facet normal -0.75575 0.654861 0
    outer loop
      vertex -5.88877 3.78448 125
      vertex -4.58402 5.29025 135
      vertex -4.58402 5.29025 125
    endloop
  endfacet
  facet normal -0.75575 0.654861 0
    outer loop
      vertex -4.58402 5.29025 135
      vertex -5.88877 3.78448 125
      vertex -5.88877 3.78448 135
    endloop
  endfacet
  facet normal -0.909632 0.415415 0
    outer loop
      vertex -6.71645 1.97213 125
      vertex -5.88877 3.78448 135
      vertex -5.88877 3.78448 125
    endloop
  endfacet
  facet normal -0.909632 0.415415 0
    outer loop
      vertex -5.88877 3.78448 135
      vertex -6.71645 1.97213 125
      vertex -6.71645 1.97213 135
    endloop
  endfacet
  facet normal -0.989821 -0.142315 0
    outer loop
      vertex -6.71645 -1.97213 125
      vertex -7 0 135
      vertex -7 0 125
    endloop
  endfacet
  facet normal -0.989821 -0.142315 0
    outer loop
      vertex -7 0 135
      vertex -6.71645 -1.97213 125
      vertex -6.71645 -1.97213 135
    endloop
  endfacet
  facet normal 0.75575 -0.654861 0
    outer loop
      vertex 4.58402 -5.29025 135
      vertex 5.88877 -3.78448 125
      vertex 5.88877 -3.78448 135
    endloop
  endfacet
  facet normal 0.75575 -0.654861 0
    outer loop
      vertex 5.88877 -3.78448 125
      vertex 4.58402 -5.29025 135
      vertex 4.58402 -5.29025 125
    endloop
  endfacet
  facet normal 0.909632 -0.415415 0
    outer loop
      vertex 5.88877 -3.78448 135
      vertex 6.71645 -1.97213 125
      vertex 6.71645 -1.97213 135
    endloop
  endfacet
  facet normal 0.909632 -0.415415 0
    outer loop
      vertex 6.71645 -1.97213 125
      vertex 5.88877 -3.78448 135
      vertex 5.88877 -3.78448 125
    endloop
  endfacet
  facet normal -0.540641 -0.841254 0
    outer loop
      vertex -4.58402 -5.29025 125
      vertex -2.9079 -6.36742 135
      vertex -4.58402 -5.29025 135
    endloop
  endfacet
  facet normal -0.540641 -0.841254 -0
    outer loop
      vertex -2.9079 -6.36742 135
      vertex -4.58402 -5.29025 125
      vertex -2.9079 -6.36742 125
    endloop
  endfacet
  facet normal -0.909632 -0.415415 0
    outer loop
      vertex -5.88877 -3.78448 125
      vertex -6.71645 -1.97213 135
      vertex -6.71645 -1.97213 125
    endloop
  endfacet
  facet normal -0.909632 -0.415415 0
    outer loop
      vertex -6.71645 -1.97213 135
      vertex -5.88877 -3.78448 125
      vertex -5.88877 -3.78448 135
    endloop
  endfacet
  facet normal -0.75575 -0.654861 0
    outer loop
      vertex -4.58402 -5.29025 125
      vertex -5.88877 -3.78448 135
      vertex -5.88877 -3.78448 125
    endloop
  endfacet
  facet normal -0.75575 -0.654861 0
    outer loop
      vertex -5.88877 -3.78448 135
      vertex -4.58402 -5.29025 125
      vertex -4.58402 -5.29025 135
    endloop
  endfacet
  facet normal 0.281733 -0.959493 0
    outer loop
      vertex 0.996203 -6.92875 125
      vertex 2.9079 -6.36742 135
      vertex 0.996203 -6.92875 135
    endloop
  endfacet
  facet normal 0.281733 -0.959493 0
    outer loop
      vertex 2.9079 -6.36742 135
      vertex 0.996203 -6.92875 125
      vertex 2.9079 -6.36742 125
    endloop
  endfacet
  facet normal 0.989821 -0.142315 0
    outer loop
      vertex 6.71645 -1.97213 135
      vertex 7 0 125
      vertex 7 0 135
    endloop
  endfacet
  facet normal 0.989821 -0.142315 0
    outer loop
      vertex 7 0 125
      vertex 6.71645 -1.97213 135
      vertex 6.71645 -1.97213 125
    endloop
  endfacet
  facet normal -0.281733 -0.959493 0
    outer loop
      vertex -2.9079 -6.36742 125
      vertex -0.996203 -6.92875 135
      vertex -2.9079 -6.36742 135
    endloop
  endfacet
  facet normal -0.281733 -0.959493 -0
    outer loop
      vertex -0.996203 -6.92875 135
      vertex -2.9079 -6.36742 125
      vertex -0.996203 -6.92875 125
    endloop
  endfacet
  facet normal 0.540641 -0.841254 0
    outer loop
      vertex 2.9079 -6.36742 125
      vertex 4.58402 -5.29025 135
      vertex 2.9079 -6.36742 135
    endloop
  endfacet
  facet normal 0.540641 -0.841254 0
    outer loop
      vertex 4.58402 -5.29025 135
      vertex 2.9079 -6.36742 125
      vertex 4.58402 -5.29025 125
    endloop
  endfacet
  facet normal -0.980785 -0.195091 0
    outer loop
      vertex 5 0 10
      vertex 4.6194 1.91342 135
      vertex 4.6194 1.91342 10
    endloop
  endfacet
  facet normal -0.980785 -0.195091 0
    outer loop
      vertex 4.6194 1.91342 135
      vertex 5 0 10
      vertex 5 0 135
    endloop
  endfacet
  facet normal 0.980785 -0.195091 0
    outer loop
      vertex -5 0 135
      vertex -4.6194 1.91342 10
      vertex -4.6194 1.91342 135
    endloop
  endfacet
  facet normal 0.980785 -0.195091 0
    outer loop
      vertex -4.6194 1.91342 10
      vertex -5 0 135
      vertex -5 0 10
    endloop
  endfacet
  facet normal -0.195091 -0.980785 0
    outer loop
      vertex 0 5 10
      vertex 1.91342 4.6194 135
      vertex 0 5 135
    endloop
  endfacet
  facet normal -0.195091 -0.980785 -0
    outer loop
      vertex 1.91342 4.6194 135
      vertex 0 5 10
      vertex 1.91342 4.6194 10
    endloop
  endfacet
  facet normal -0.83147 -0.55557 0
    outer loop
      vertex 4.6194 1.91342 10
      vertex 3.53553 3.53553 135
      vertex 3.53553 3.53553 10
    endloop
  endfacet
  facet normal -0.83147 -0.55557 0
    outer loop
      vertex 3.53553 3.53553 135
      vertex 4.6194 1.91342 10
      vertex 4.6194 1.91342 135
    endloop
  endfacet
  facet normal -0.195091 0.980785 0
    outer loop
      vertex 1.91342 -4.6194 10
      vertex 0 -5 135
      vertex 1.91342 -4.6194 135
    endloop
  endfacet
  facet normal -0.195091 0.980785 0
    outer loop
      vertex 0 -5 135
      vertex 1.91342 -4.6194 10
      vertex 0 -5 10
    endloop
  endfacet
  facet normal -0.55557 -0.83147 0
    outer loop
      vertex 1.91342 4.6194 10
      vertex 3.53553 3.53553 135
      vertex 1.91342 4.6194 135
    endloop
  endfacet
  facet normal -0.55557 -0.83147 -0
    outer loop
      vertex 3.53553 3.53553 135
      vertex 1.91342 4.6194 10
      vertex 3.53553 3.53553 10
    endloop
  endfacet
  facet normal 0.55557 -0.83147 0
    outer loop
      vertex -3.53553 3.53553 10
      vertex -1.91342 4.6194 135
      vertex -3.53553 3.53553 135
    endloop
  endfacet
  facet normal 0.55557 -0.83147 0
    outer loop
      vertex -1.91342 4.6194 135
      vertex -3.53553 3.53553 10
      vertex -1.91342 4.6194 10
    endloop
  endfacet
  facet normal 0.83147 -0.55557 0
    outer loop
      vertex -4.6194 1.91342 135
      vertex -3.53553 3.53553 10
      vertex -3.53553 3.53553 135
    endloop
  endfacet
  facet normal 0.83147 -0.55557 0
    outer loop
      vertex -3.53553 3.53553 10
      vertex -4.6194 1.91342 135
      vertex -4.6194 1.91342 10
    endloop
  endfacet
  facet normal 0.195091 -0.980785 0
    outer loop
      vertex -1.91342 4.6194 10
      vertex 0 5 135
      vertex -1.91342 4.6194 135
    endloop
  endfacet
  facet normal 0.195091 -0.980785 0
    outer loop
      vertex 0 5 135
      vertex -1.91342 4.6194 10
      vertex 0 5 10
    endloop
  endfacet
  facet normal 0.55557 0.83147 -0
    outer loop
      vertex -1.91342 -4.6194 10
      vertex -3.53553 -3.53553 135
      vertex -1.91342 -4.6194 135
    endloop
  endfacet
  facet normal 0.55557 0.83147 0
    outer loop
      vertex -3.53553 -3.53553 135
      vertex -1.91342 -4.6194 10
      vertex -3.53553 -3.53553 10
    endloop
  endfacet
  facet normal 0.980785 0.195091 0
    outer loop
      vertex -4.6194 -1.91342 135
      vertex -5 0 10
      vertex -5 0 135
    endloop
  endfacet
  facet normal 0.980785 0.195091 0
    outer loop
      vertex -5 0 10
      vertex -4.6194 -1.91342 135
      vertex -4.6194 -1.91342 10
    endloop
  endfacet
  facet normal -0.55557 0.83147 0
    outer loop
      vertex 3.53553 -3.53553 10
      vertex 1.91342 -4.6194 135
      vertex 3.53553 -3.53553 135
    endloop
  endfacet
  facet normal -0.55557 0.83147 0
    outer loop
      vertex 1.91342 -4.6194 135
      vertex 3.53553 -3.53553 10
      vertex 1.91342 -4.6194 10
    endloop
  endfacet
  facet normal -0.83147 0.55557 0
    outer loop
      vertex 3.53553 -3.53553 10
      vertex 4.6194 -1.91342 135
      vertex 4.6194 -1.91342 10
    endloop
  endfacet
  facet normal -0.83147 0.55557 0
    outer loop
      vertex 4.6194 -1.91342 135
      vertex 3.53553 -3.53553 10
      vertex 3.53553 -3.53553 135
    endloop
  endfacet
  facet normal 0.195091 0.980785 -0
    outer loop
      vertex 0 -5 10
      vertex -1.91342 -4.6194 135
      vertex 0 -5 135
    endloop
  endfacet
  facet normal 0.195091 0.980785 0
    outer loop
      vertex -1.91342 -4.6194 135
      vertex 0 -5 10
      vertex -1.91342 -4.6194 10
    endloop
  endfacet
  facet normal 0.83147 0.55557 0
    outer loop
      vertex -3.53553 -3.53553 135
      vertex -4.6194 -1.91342 10
      vertex -4.6194 -1.91342 135
    endloop
  endfacet
  facet normal 0.83147 0.55557 0
    outer loop
      vertex -4.6194 -1.91342 10
      vertex -3.53553 -3.53553 135
      vertex -3.53553 -3.53553 10
    endloop
  endfacet
  facet normal -0.980785 0.195091 0
    outer loop
      vertex 4.6194 -1.91342 10
      vertex 5 0 135
      vertex 5 0 10
    endloop
  endfacet
  facet normal -0.980785 0.195091 0
    outer loop
      vertex 5 0 135
      vertex 4.6194 -1.91342 10
      vertex 4.6194 -1.91342 135
    endloop
  endfacet
endsolid OpenSCAD_Model
